<svg xmlns="http://www.w3.org/2000/svg" viewBox="0 0 161 80.64"><defs><style>.cls-1{fill:#fff;}.cls-2{fill:#004fff;}</style></defs><title>Ресурс 3</title><g id="Шар_2" data-name="Шар 2"><g id="Шар_1-2" data-name="Шар 1"><path class="cls-1" d="M6.88,51.55,5.83,55H3.54l3.9-12.16h2.83l4,12.16H11.84l-1.1-3.45Zm3.48-1.68-1-3c-.23-.74-.43-1.57-.61-2.27h0c-.18.7-.36,1.55-.58,2.27l-.94,3Z"/><path class="cls-1" d="M19.83,46.22v3.35h3.39V46.22h2.22V55H23.22V51.3H19.83V55H17.61V46.22Z"/><path class="cls-1" d="M36,46.22v1.71H33.41V55H31.2V47.93H28.56V46.22Z"/><path class="cls-1" d="M41.23,46.22v3.16c0,1.39-.05,2.33-.13,3.55h.05c.47-1,.74-1.68,1.19-2.6l2.16-4.11H47.2V55H45.09V51.86c0-1.41.05-2.06.14-3.71h-.07c-.43,1-.72,1.68-1.15,2.53-.69,1.3-1.48,2.88-2.24,4.33H39.12V46.22Z"/><path class="cls-1" d="M53.58,46.22v3.64h.32l2.71-3.64h2.63l-3.5,3.86c1.21.18,1.95,1.14,2.54,2.54.27.65.6,1.62,1,2.38H57a13.12,13.12,0,0,1-.81-1.88,2.3,2.3,0,0,0-2.29-1.77h-.29V55H51.37V46.22Z"/><path class="cls-1" d="M70.54,50.53A4.35,4.35,0,0,1,66,55.2a4.25,4.25,0,0,1-4.4-4.53A4.34,4.34,0,0,1,66.18,46,4.21,4.21,0,0,1,70.54,50.53Zm-6.62.09c0,1.7.83,3,2.18,3s2.15-1.24,2.15-3c0-1.37-.61-2.94-2.13-2.94S63.92,49.16,63.92,50.62Z"/><path class="cls-1" d="M76.37,46.22v3.35h3.39V46.22H82V55H79.76V51.3H76.37V55H74.15V46.22Z"/><path class="cls-1" d="M92.17,42.27l0,3.79c2.52.23,4.51,1.79,4.51,4.56S94.59,55,92.16,55.16l0,3.41H90.1l0-3.39c-2.49-.18-4.53-1.73-4.53-4.51s2.06-4.38,4.53-4.6l0-3.81Zm-2.06,5.27a2.88,2.88,0,0,0-2.33,3.08,2.87,2.87,0,0,0,2.33,3.08Zm2,6.17a3.2,3.2,0,0,0,0-6.17Z"/><path class="cls-1" d="M107.53,46.22V55h-2.24V47.93h-2.38v1.89c0,2.29-.25,3.84-1.3,4.62a2.91,2.91,0,0,1-2.2.72l-.23-1.73a1.82,1.82,0,0,0,.94-.43c.65-.54.72-1.55.72-3.25V46.22Z"/><path class="cls-1" d="M114,43.76a1.25,1.25,0,1,1-1.24-1.21A1.18,1.18,0,0,1,114,43.76ZM111.68,55V46.22h2.24V55Z"/><path class="cls-1" d="M120.32,46.22v3.64h.32l2.71-3.64H126l-3.5,3.86c1.21.18,1.95,1.14,2.54,2.54.27.65.6,1.62,1,2.38h-2.31a13.12,13.12,0,0,1-.81-1.88,2.3,2.3,0,0,0-2.29-1.77h-.29V55H118.1V46.22Z"/><path class="cls-1" d="M135.8,46.22v1.71h-2.63V55h-2.22V47.93h-2.63V46.22Z"/><path class="cls-1" d="M141.09,46.22v3.35h3.39V46.22h2.22V55h-2.22V51.3h-3.39V55h-2.22V46.22Z"/><path class="cls-1" d="M157.68,52.89a14.06,14.06,0,0,0,.13,2.11h-2l-.14-1h-.05A3.26,3.26,0,0,1,153,55.2a2.61,2.61,0,0,1-2.76-2.62c0-2.22,2-3.34,5.21-3.32v-.14c0-.58-.23-1.53-1.79-1.53a4.65,4.65,0,0,0-2.36.65l-.43-1.44a6.32,6.32,0,0,1,3.17-.78c2.81,0,3.63,1.79,3.63,3.7Zm-2.16-2.18c-1.57,0-3.07.31-3.07,1.64a1.16,1.16,0,0,0,1.26,1.26,1.8,1.8,0,0,0,1.73-1.21,1.59,1.59,0,0,0,.07-.49Z"/><path class="cls-1" d="M58.74,67.87v1.75H55.15v7H52.94V67.87Z"/><path class="cls-1" d="M61.9,70.79c0-1.15,0-2.09-.07-2.92h1.95l.11,1.35h0a3.42,3.42,0,0,1,3-1.55c2,0,3.7,1.73,3.7,4.47,0,3.17-2,4.71-4,4.71a2.89,2.89,0,0,1-2.47-1.17h0v4.54H61.9ZM64.12,73a2.28,2.28,0,0,0,.07.61,2,2,0,0,0,1.95,1.55c1.41,0,2.24-1.17,2.24-2.9,0-1.55-.76-2.81-2.18-2.81a2.07,2.07,0,0,0-2,1.64,2,2,0,0,0-.09.56Z"/><path class="cls-1" d="M75.38,67.87,77,72.57c.18.54.36,1.21.49,1.71h.05c.14-.51.31-1.15.47-1.73l1.37-4.69h2.38l-2.2,6c-1.21,3.28-2,4.74-3.07,5.65a4.47,4.47,0,0,1-2.33,1.14l-.5-1.88a3.82,3.82,0,0,0,1.3-.61,3.87,3.87,0,0,0,1.21-1.39.89.89,0,0,0,.14-.4.94.94,0,0,0-.13-.43l-3.21-8.06Z"/><path class="cls-1" d="M92.55,67.87v8.78H90.32V69.58H87v7.07H84.8V67.87Z"/><path class="cls-1" d="M103.54,74.54a14.06,14.06,0,0,0,.13,2.11h-2l-.14-1h-.05a3.26,3.26,0,0,1-2.6,1.17,2.61,2.61,0,0,1-2.76-2.62c0-2.22,2-3.34,5.21-3.32v-.14c0-.58-.23-1.53-1.79-1.53a4.65,4.65,0,0,0-2.36.65l-.43-1.44a6.32,6.32,0,0,1,3.17-.78c2.81,0,3.62,1.79,3.62,3.7Zm-2.16-2.18c-1.57,0-3.07.31-3.07,1.64a1.16,1.16,0,0,0,1.26,1.26,1.8,1.8,0,0,0,1.73-1.21,1.59,1.59,0,0,0,.07-.49Z"/><rect class="cls-2" width="161" height="38"/><path class="cls-1" d="M27.45,11.86v13.5H25V13.88H19.53V25.36H17.07V11.86Z"/><path class="cls-1" d="M50.29,18.47c0,4.53-2.74,7.11-6.47,7.11s-6.21-2.91-6.21-6.87c0-4.15,2.6-7.07,6.41-7.07S50.29,14.62,50.29,18.47Zm-10.08.2c0,2.74,1.38,4.95,3.75,4.95s3.73-2.22,3.73-5c0-2.54-1.26-5-3.73-5S40.22,15.88,40.22,18.67Z"/><path class="cls-1" d="M69.88,11.86v13.5H67.41V13.88H63.73v3.61c0,3.25-.3,6.17-2.28,7.41a4.73,4.73,0,0,1-2.4.64l-.3-2a3,3,0,0,0,1.48-.72c.94-1,1.08-3.09,1.08-5.19V11.86Z"/><path class="cls-1" d="M83.21,11.86v13.5H80.74V11.86Z"/><path class="cls-1" d="M96.51,11.86V23.34h5.39V11.86h2.46V23.4l1.28.06-.14,5.25h-1.9l-.14-3.35H94V11.86Z"/><path class="cls-1" d="M118.06,11.86v13.5h-2.46V11.86Z"/><path class="cls-1" d="M127.7,25.36a8,8,0,0,0,.62-1.38c.56-1.54.9-3.27,2-4.31a2.92,2.92,0,0,1,1.12-.68v-.06a3.28,3.28,0,0,1-2.9-3.31,3.51,3.51,0,0,1,1.32-2.82,6.87,6.87,0,0,1,4.17-1,22.69,22.69,0,0,1,3.59.28V25.36h-2.44V19.81h-1a2.28,2.28,0,0,0-1.66.58c-.88.88-1.24,2.71-1.68,3.91a5.85,5.85,0,0,1-.46,1.06Zm7.43-11.6a6.55,6.55,0,0,0-1.44-.14c-1.48,0-2.73.58-2.73,2.18,0,1.42,1.26,2.2,2.89,2.2a12.09,12.09,0,0,0,1.28,0Z"/></g></g></svg>