<svg xmlns="http://www.w3.org/2000/svg" viewBox="0 0 1082.07 522.56"><defs><style>.cls-1{fill:#fff;}.cls-2{fill:#ccc;}.cls-3{fill:#929292;}.cls-4,.cls-8{fill:#4792e1;}.cls-5,.cls-6,.cls-7{fill:none;stroke-width:2px;}.cls-5,.cls-6,.cls-7,.cls-8{stroke:#4792e1;stroke-miterlimit:10;}.cls-6{opacity:0.5;}.cls-7{opacity:0.25;}.cls-8{stroke-width:0.5px;}</style></defs><title>Ресурс 1</title><g id="Шар_2" data-name="Шар 2"><g id="Шар_1-2" data-name="Шар 1"><path class="cls-1" d="M123.8,38.46H120.7v-4.2H110.24v4.2h-3.15l-.27-6.83h1.31a6.36,6.36,0,0,0,1.6-2.48,15.34,15.34,0,0,0,.8-5l.47-7h11.1V31.63h2ZM114,24.19a19.66,19.66,0,0,1-.61,4.4,10.54,10.54,0,0,1-1.32,3h6.67V19.84h-4.44Z"/><path class="cls-1" d="M125.73,27.81a6.8,6.8,0,0,1,1.58-4.65,5.51,5.51,0,0,1,4.38-1.81,5.57,5.57,0,0,1,4.41,1.8,6.77,6.77,0,0,1,1.59,4.65v.25a6.78,6.78,0,0,1-1.59,4.66,6.27,6.27,0,0,1-8.79,0,6.78,6.78,0,0,1-1.59-4.66Zm3.41.24a5.5,5.5,0,0,0,.61,2.78,2.34,2.34,0,0,0,3.91,0,5.46,5.46,0,0,0,.62-2.77v-.25a5.41,5.41,0,0,0-.62-2.75,2.1,2.1,0,0,0-2-1.06,2.08,2.08,0,0,0-1.94,1.07,5.46,5.46,0,0,0-.62,2.74Z"/><path class="cls-1" d="M140.46,34.27V21.59h5.3a7.38,7.38,0,0,1,3.94.89,2.93,2.93,0,0,1,1.41,2.65,2.36,2.36,0,0,1-.59,1.58,3.69,3.69,0,0,1-1.68,1.05A4,4,0,0,1,151,28.83a2.55,2.55,0,0,1,.74,1.82,3.06,3.06,0,0,1-1.34,2.71,6.81,6.81,0,0,1-3.85.91Zm3.42-7.51h2a2.56,2.56,0,0,0,1.4-.3,1,1,0,0,0,.45-.91,1.12,1.12,0,0,0-.48-1,2.68,2.68,0,0,0-1.46-.32h-1.87Zm0,2.23v2.68h2.7a2.18,2.18,0,0,0,1.34-.33,1.17,1.17,0,0,0,.43-1,1.25,1.25,0,0,0-.42-1,2.09,2.09,0,0,0-1.35-.35Z"/><path class="cls-1" d="M166.5,29.49H165v4.78H161.6V29.49h-1.48l-2.45,4.78h-4.38l4.1-6.88-3.89-5.8h4.31l2.54,4.78h1.24V21.59H165v4.78h1.25l2.55-4.78h4.31l-3.89,5.8,4.09,6.88h-4.38Z"/><path class="cls-1" d="M182.92,21.59h3.41V34.27h-3.41V26.53h-.07l-4.14,7.75h-3.42V21.59h3.42V29.3h.07Z"/><path class="cls-1" d="M200.33,34.27h-3.42V29.36h-4.17v4.91h-3.42V21.59h3.42v5.13h4.17V21.59h3.42Z"/><path class="cls-1" d="M210.84,34.27a7.2,7.2,0,0,1-.32-.91,6.36,6.36,0,0,1-.19-1,4.72,4.72,0,0,1-1.39,1.54,3.47,3.47,0,0,1-2.06.61,4.28,4.28,0,0,1-3.07-1,3.67,3.67,0,0,1-1.08-2.79,3.34,3.34,0,0,1,1.44-2.89,7.17,7.17,0,0,1,4.19-1h1.91v-1a2,2,0,0,0-.48-1.42,2.24,2.24,0,0,0-2.7-.1,1.43,1.43,0,0,0-.45,1.12h-3.3v-.07a3.22,3.22,0,0,1,1.39-2.77,6.08,6.08,0,0,1,3.88-1.17,5.66,5.66,0,0,1,3.69,1.15,4,4,0,0,1,1.42,3.29V31a9.91,9.91,0,0,0,.13,1.68,8.41,8.41,0,0,0,.43,1.56ZM207.71,32a2.94,2.94,0,0,0,1.61-.45,2.32,2.32,0,0,0,.95-1V28.71h-1.91a2.28,2.28,0,0,0-1.65.54,1.77,1.77,0,0,0-.56,1.32,1.32,1.32,0,0,0,.42,1A1.63,1.63,0,0,0,207.71,32Z"/><path class="cls-1" d="M230.89,30.28H231l3.27-8.7h4.28V34.27H235.1V26.7H235l-2.94,7.58h-2.3l-2.87-7.42h-.07v7.41h-3.42V21.59h4.24Z"/><path class="cls-1" d="M249.39,34.27a7.2,7.2,0,0,1-.32-.91,6.36,6.36,0,0,1-.19-1,4.72,4.72,0,0,1-1.39,1.54,3.47,3.47,0,0,1-2.06.61,4.28,4.28,0,0,1-3.07-1,3.67,3.67,0,0,1-1.08-2.79,3.34,3.34,0,0,1,1.44-2.89,7.17,7.17,0,0,1,4.19-1h1.91v-1a2,2,0,0,0-.48-1.42,2.24,2.24,0,0,0-2.7-.1,1.43,1.43,0,0,0-.45,1.12h-3.3v-.07a3.22,3.22,0,0,1,1.39-2.77,6.08,6.08,0,0,1,3.88-1.17,5.66,5.66,0,0,1,3.69,1.15,4,4,0,0,1,1.42,3.29V31a9.91,9.91,0,0,0,.13,1.68,8.41,8.41,0,0,0,.43,1.56ZM246.27,32a2.94,2.94,0,0,0,1.61-.45,2.32,2.32,0,0,0,.95-1V28.71h-1.91a2.28,2.28,0,0,0-1.65.54,1.77,1.77,0,0,0-.56,1.32,1.32,1.32,0,0,0,.42,1A1.63,1.63,0,0,0,246.27,32Z"/><path class="cls-1" d="M266.76,28.28a7.28,7.28,0,0,1-1.3,4.52,4.3,4.3,0,0,1-3.63,1.71,4.06,4.06,0,0,1-1.77-.37,3.63,3.63,0,0,1-1.32-1.08v6.08h-3.41V21.59h3.08l.2,1.5A4.06,4.06,0,0,1,260,21.81a3.66,3.66,0,0,1,1.85-.45,4.22,4.22,0,0,1,3.66,1.84,8.21,8.21,0,0,1,1.3,4.84ZM263.34,28a6.15,6.15,0,0,0-.6-2.91A2,2,0,0,0,260.91,24a2.58,2.58,0,0,0-1.32.32,2.26,2.26,0,0,0-.86.9v5.56a2.1,2.1,0,0,0,.86.82,2.9,2.9,0,0,0,1.34.28,2,2,0,0,0,1.82-1,5.15,5.15,0,0,0,.58-2.64Z"/><path class="cls-1" d="M272.71,21.59v10h3.45v-10h3.43v10H283v-10h3.42V34.27H269.29V21.59Z"/><path class="cls-1" d="M301.08,28.28a7.28,7.28,0,0,1-1.3,4.52,4.3,4.3,0,0,1-3.63,1.71,4.06,4.06,0,0,1-1.77-.37,3.63,3.63,0,0,1-1.32-1.08v6.08h-3.41V21.59h3.08l.2,1.5a4.06,4.06,0,0,1,1.35-1.28,3.66,3.66,0,0,1,1.85-.45,4.22,4.22,0,0,1,3.66,1.84,8.21,8.21,0,0,1,1.3,4.84ZM297.66,28a6.15,6.15,0,0,0-.6-2.91A2,2,0,0,0,295.24,24a2.58,2.58,0,0,0-1.32.32,2.26,2.26,0,0,0-.86.9v5.56a2.1,2.1,0,0,0,.86.82,2.9,2.9,0,0,0,1.34.28,2,2,0,0,0,1.82-1,5.15,5.15,0,0,0,.58-2.64Z"/><path class="cls-1" d="M308.1,28.95l.14.7h.07l2.43-8.06h3.68l-5.14,14.58a6.71,6.71,0,0,1-1.46,2.29,3.76,3.76,0,0,1-2.78.93,4.29,4.29,0,0,1-.8-.07l-.9-.2.4-2.5.33,0,.32,0a1.87,1.87,0,0,0,1.3-.42,2.74,2.74,0,0,0,.7-1l.4-1-4.5-12.67H306Z"/><path class="cls-1" d="M327,24.23H323v10h-3.43v-10h-4V21.59H327Z"/><path class="cls-1" d="M334,28.95l.14.7h.07l2.43-8.06h3.68l-5.14,14.58a6.71,6.71,0,0,1-1.46,2.29,3.76,3.76,0,0,1-2.78.93,4.29,4.29,0,0,1-.8-.07l-.9-.2.4-2.5.33,0,.32,0a1.87,1.87,0,0,0,1.3-.42,2.74,2.74,0,0,0,.7-1l.4-1-4.5-12.67h3.68Z"/><path class="cls-1" d="M353.37,17.21l4.35,12.57h.07l4.38-12.57h4.48V34.27h-3.42V29.18l.33-7.54h-.07l-4.57,12.63h-2.3l-4.55-12.59H352l.33,7.49v5.09h-3.42V17.21Z"/><path class="cls-1" d="M377.49,34.27a7.2,7.2,0,0,1-.32-.91,6.36,6.36,0,0,1-.19-1,4.72,4.72,0,0,1-1.39,1.54,3.47,3.47,0,0,1-2.06.61,4.28,4.28,0,0,1-3.07-1,3.67,3.67,0,0,1-1.08-2.79,3.34,3.34,0,0,1,1.44-2.89,7.17,7.17,0,0,1,4.19-1h1.91v-1a2,2,0,0,0-.48-1.42,2.24,2.24,0,0,0-2.7-.1,1.43,1.43,0,0,0-.45,1.12H370v-.07a3.22,3.22,0,0,1,1.39-2.77,6.08,6.08,0,0,1,3.88-1.17,5.66,5.66,0,0,1,3.69,1.15,4,4,0,0,1,1.42,3.29V31a9.91,9.91,0,0,0,.13,1.68,8.41,8.41,0,0,0,.43,1.56ZM374.36,32a2.94,2.94,0,0,0,1.61-.45,2.32,2.32,0,0,0,.95-1V28.71H375a2.28,2.28,0,0,0-1.65.54,1.77,1.77,0,0,0-.56,1.32,1.32,1.32,0,0,0,.42,1A1.63,1.63,0,0,0,374.36,32Z"/><path class="cls-1" d="M394.85,28.28a7.28,7.28,0,0,1-1.3,4.52,4.3,4.3,0,0,1-3.63,1.71,4.06,4.06,0,0,1-1.77-.37,3.63,3.63,0,0,1-1.32-1.08v6.08h-3.41V21.59h3.08l.2,1.5a4.06,4.06,0,0,1,1.35-1.28,3.66,3.66,0,0,1,1.85-.45,4.22,4.22,0,0,1,3.66,1.84,8.21,8.21,0,0,1,1.3,4.84ZM391.43,28a6.15,6.15,0,0,0-.6-2.91A2,2,0,0,0,389,24a2.58,2.58,0,0,0-1.32.32,2.26,2.26,0,0,0-.86.9v5.56a2.1,2.1,0,0,0,.86.82,2.9,2.9,0,0,0,1.34.28,2,2,0,0,0,1.82-1,5.15,5.15,0,0,0,.58-2.64Z"/><path class="cls-1" d="M400.81,21.59v10h3.45v-10h3.43v10h3.45v-10h3.42V34.27H397.39V21.59Z"/><path class="cls-1" d="M422.31,28.95l.14.7h.07l2.43-8.06h3.68l-5.14,14.58A6.71,6.71,0,0,1,422,38.46a3.76,3.76,0,0,1-2.78.93,4.29,4.29,0,0,1-.8-.07l-.9-.2.4-2.5.33,0,.32,0a1.87,1.87,0,0,0,1.3-.42,2.74,2.74,0,0,0,.7-1l.4-1-4.5-12.67h3.68Z"/><path class="cls-1" d="M121.59,226.21v17.06h-3.43V236.7a13.15,13.15,0,0,1-1.73.29,16.88,16.88,0,0,1-1.72.1,7.66,7.66,0,0,1-4.86-1.36,5,5,0,0,1-1.72-4.21v-5.31h3.42v5.31a2.91,2.91,0,0,0,.74,2.3,3.7,3.7,0,0,0,2.41.63q.73,0,1.71-.1a13.12,13.12,0,0,0,1.75-.29v-7.85Z"/><path class="cls-1" d="M131.93,243.27a7.2,7.2,0,0,1-.32-.91,6.36,6.36,0,0,1-.19-1,4.72,4.72,0,0,1-1.39,1.54,3.47,3.47,0,0,1-2.06.61,4.28,4.28,0,0,1-3.07-1,3.67,3.67,0,0,1-1.08-2.79,3.34,3.34,0,0,1,1.44-2.89,7.17,7.17,0,0,1,4.19-1h1.91v-1a2,2,0,0,0-.48-1.42,2.24,2.24,0,0,0-2.7-.1,1.43,1.43,0,0,0-.45,1.12h-3.3v-.07a3.22,3.22,0,0,1,1.39-2.77,6.08,6.08,0,0,1,3.88-1.17,5.66,5.66,0,0,1,3.69,1.15,4,4,0,0,1,1.42,3.29V240a9.91,9.91,0,0,0,.13,1.68,8.41,8.41,0,0,0,.43,1.56ZM128.8,241a2.94,2.94,0,0,0,1.61-.45,2.32,2.32,0,0,0,.95-1v-1.79h-1.91a2.28,2.28,0,0,0-1.65.54,1.77,1.77,0,0,0-.56,1.32,1.32,1.32,0,0,0,.42,1A1.63,1.63,0,0,0,128.8,241Z"/><path class="cls-1" d="M142.7,240.88a2,2,0,0,0,1.46-.53,1.89,1.89,0,0,0,.55-1.42h3.11l0,.07a4,4,0,0,1-1.45,3.22,6.09,6.09,0,0,1-8.08-.49,6.83,6.83,0,0,1-1.54-4.61v-.35a6.88,6.88,0,0,1,1.53-4.61,5.41,5.41,0,0,1,4.37-1.8,5.33,5.33,0,0,1,3.78,1.34,4.44,4.44,0,0,1,1.39,3.52l0,.07h-3.12a2.48,2.48,0,0,0-.54-1.63,1.83,1.83,0,0,0-1.49-.65,2,2,0,0,0-1.92,1.05,5.79,5.79,0,0,0-.56,2.71v.35a5.77,5.77,0,0,0,.56,2.73A2,2,0,0,0,142.7,240.88Z"/><path class="cls-1" d="M166.76,243.27h-3.42v-10h-4.2v10h-3.42V230.59h11Z"/><path class="cls-1" d="M168.8,236.81a6.8,6.8,0,0,1,1.58-4.65,5.51,5.51,0,0,1,4.38-1.81,5.57,5.57,0,0,1,4.41,1.8,6.77,6.77,0,0,1,1.59,4.65v.25a6.78,6.78,0,0,1-1.59,4.66,6.27,6.27,0,0,1-8.79,0,6.78,6.78,0,0,1-1.59-4.66Zm3.41.24a5.5,5.5,0,0,0,.61,2.78,2.34,2.34,0,0,0,3.91,0,5.46,5.46,0,0,0,.62-2.77v-.25a5.41,5.41,0,0,0-.62-2.75,2.1,2.1,0,0,0-2-1.06,2.08,2.08,0,0,0-1.94,1.07,5.46,5.46,0,0,0-.62,2.74Z"/><path class="cls-1" d="M193.76,243.27h-3.42v-4a7.32,7.32,0,0,1-.88.13q-.45,0-.85,0a6.84,6.84,0,0,1-4.32-1.2,4.37,4.37,0,0,1-1.52-3.66v-4h3.42v4a2.23,2.23,0,0,0,.55,1.73,2.84,2.84,0,0,0,1.86.48,7.9,7.9,0,0,0,.86,0q.43,0,.87-.14v-6h3.42Z"/><path class="cls-1" d="M203.75,243.27a7.2,7.2,0,0,1-.32-.91,6.36,6.36,0,0,1-.19-1,4.72,4.72,0,0,1-1.39,1.54,3.47,3.47,0,0,1-2.06.61,4.28,4.28,0,0,1-3.07-1,3.67,3.67,0,0,1-1.08-2.79,3.34,3.34,0,0,1,1.44-2.89,7.17,7.17,0,0,1,4.19-1h1.91v-1a2,2,0,0,0-.48-1.42,2.24,2.24,0,0,0-2.7-.1,1.43,1.43,0,0,0-.45,1.12h-3.3v-.07a3.22,3.22,0,0,1,1.39-2.77,6.08,6.08,0,0,1,3.88-1.17,5.66,5.66,0,0,1,3.69,1.15,4,4,0,0,1,1.42,3.29V240a9.91,9.91,0,0,0,.13,1.68,8.41,8.41,0,0,0,.43,1.56ZM200.63,241a2.94,2.94,0,0,0,1.61-.45,2.32,2.32,0,0,0,.95-1v-1.79h-1.91a2.28,2.28,0,0,0-1.65.54,1.77,1.77,0,0,0-.56,1.32,1.32,1.32,0,0,0,.42,1A1.63,1.63,0,0,0,200.63,241Z"/><path class="cls-1" d="M219.71,233.23h-4.05v10h-3.43v-10h-4v-2.64h11.48Z"/><path class="cls-1" d="M226.45,238.52h-1.31v4.75h-3.42V230.59h3.42v4.83h1.2l2.73-4.83h4.32l-4.14,6,4.51,6.7h-4.56Z"/><path class="cls-1" d="M239.54,237.95l.14.7h.07l2.43-8.06h3.68l-5.14,14.58a6.71,6.71,0,0,1-1.46,2.29,3.76,3.76,0,0,1-2.78.93,4.29,4.29,0,0,1-.8-.07l-.9-.2.4-2.5.33,0,.32,0a1.87,1.87,0,0,0,1.3-.42,2.74,2.74,0,0,0,.7-1l.4-1-4.5-12.67h3.68Z"/><path class="cls-1" d="M256.8,227.55h-3.42V225h3.42Zm0,15.71h-3.42V230.59h3.42Z"/><path class="cls-1" d="M270.53,238.52h-1.31v4.75h-3.42V230.59h3.42v4.83h1.2l2.73-4.83h4.32l-4.14,6,4.51,6.7h-4.56Z"/><path class="cls-1" d="M282.64,227.55h-3.42V225h3.42Zm0,15.71h-3.42V230.59h3.42Z"/><path class="cls-1" d="M296.41,243.27H293v-4.91h-4.17v4.91H285.4V230.59h3.42v5.13H293v-5.13h3.42Z"/><path class="cls-1" d="M298.95,230.59h3.42v10h4.2v-10H310v10h1.83v6.83H308.4v-4.2h-9.46Z"/><path class="cls-1" d="M324.47,230.59v12.68h-3.4v-4.44H319l-2.48,4.44h-3.46l2.8-5a4.18,4.18,0,0,1-1.79-1.42,3.51,3.51,0,0,1-.63-2.05,3.71,3.71,0,0,1,1.47-3,6.17,6.17,0,0,1,4-1.18Zm-7.59,4.31a1.51,1.51,0,0,0,.51,1.13,2,2,0,0,0,1.45.48h2.24v-3.29h-2.18a2.05,2.05,0,0,0-1.49.51A1.58,1.58,0,0,0,316.88,234.9Z"/><path class="cls-1" d="M338.05,226.21l4.35,12.57h.07l4.38-12.57h4.48v17.06h-3.42v-5.09l.33-7.54h-.07l-4.57,12.63h-2.3l-4.55-12.59h-.07l.33,7.49v5.09h-3.42V226.21Z"/><path class="cls-1" d="M361.69,243.27a7.2,7.2,0,0,1-.32-.91,6.36,6.36,0,0,1-.19-1,4.72,4.72,0,0,1-1.39,1.54,3.47,3.47,0,0,1-2.06.61,4.28,4.28,0,0,1-3.07-1,3.67,3.67,0,0,1-1.08-2.79,3.34,3.34,0,0,1,1.44-2.89,7.17,7.17,0,0,1,4.19-1h1.91v-1a2,2,0,0,0-.48-1.42,2.24,2.24,0,0,0-2.7-.1,1.43,1.43,0,0,0-.45,1.12h-3.3v-.07a3.22,3.22,0,0,1,1.39-2.77,6.08,6.08,0,0,1,3.88-1.17,5.66,5.66,0,0,1,3.69,1.15,4,4,0,0,1,1.42,3.29V240a9.91,9.91,0,0,0,.13,1.68,8.41,8.41,0,0,0,.43,1.56ZM358.56,241a2.94,2.94,0,0,0,1.61-.45,2.32,2.32,0,0,0,.95-1v-1.79H359.2a2.28,2.28,0,0,0-1.65.54,1.77,1.77,0,0,0-.56,1.32,1.32,1.32,0,0,0,.42,1A1.63,1.63,0,0,0,358.56,241Z"/><path class="cls-1" d="M378.57,237.28a7.28,7.28,0,0,1-1.3,4.52,4.3,4.3,0,0,1-3.63,1.71,4.06,4.06,0,0,1-1.77-.37,3.63,3.63,0,0,1-1.32-1.08v6.08h-3.41V230.59h3.08l.2,1.5a4.06,4.06,0,0,1,1.35-1.28,3.66,3.66,0,0,1,1.85-.45,4.22,4.22,0,0,1,3.66,1.84,8.21,8.21,0,0,1,1.3,4.84Zm-3.42-.26a6.15,6.15,0,0,0-.6-2.91,2,2,0,0,0-1.83-1.11,2.58,2.58,0,0,0-1.32.32,2.26,2.26,0,0,0-.86.9v5.56a2.1,2.1,0,0,0,.86.82,2.9,2.9,0,0,0,1.34.28,2,2,0,0,0,1.82-1,5.15,5.15,0,0,0,.58-2.64Z"/><path class="cls-1" d="M384,230.59v10h3.45v-10h3.43v10h3.45v-10h3.42v12.68H380.63V230.59Z"/><path class="cls-1" d="M405.07,237.95l.14.7h.07l2.43-8.06h3.68l-5.14,14.58a6.71,6.71,0,0,1-1.46,2.29,3.76,3.76,0,0,1-2.78.93,4.29,4.29,0,0,1-.8-.07l-.9-.2.4-2.5.33,0,.32,0a1.87,1.87,0,0,0,1.3-.42,2.74,2.74,0,0,0,.7-1l.4-1-4.5-12.67h3.68Z"/><path class="cls-1" d="M422.44,237.08v6.19H419V226.21h6.8a6.72,6.72,0,0,1,4.63,1.5,5.45,5.45,0,0,1,0,7.89,6.75,6.75,0,0,1-4.63,1.49Zm0-2.64h3.38a2.85,2.85,0,0,0,2.17-.78,2.77,2.77,0,0,0,.74-2,2.9,2.9,0,0,0-.73-2,2.8,2.8,0,0,0-2.17-.8h-3.37Z"/><path class="cls-1" d="M438,227.55h-3.42V225H438Zm0,15.71h-3.42V230.59H438Z"/><path class="cls-1" d="M441,243.27V230.59h5.3a7.38,7.38,0,0,1,3.94.89,2.93,2.93,0,0,1,1.41,2.65,2.36,2.36,0,0,1-.59,1.58,3.69,3.69,0,0,1-1.68,1.05,4,4,0,0,1,2.19,1.06,2.55,2.55,0,0,1,.74,1.82,3.06,3.06,0,0,1-1.34,2.71,6.81,6.81,0,0,1-3.85.91Zm3.42-7.51h2a2.56,2.56,0,0,0,1.4-.3,1,1,0,0,0,.45-.91,1.12,1.12,0,0,0-.48-1,2.68,2.68,0,0,0-1.46-.32h-1.87Zm0,2.23v2.68h2.7a2.18,2.18,0,0,0,1.34-.33,1.17,1.17,0,0,0,.43-1,1.25,1.25,0,0,0-.42-1,2.09,2.09,0,0,0-1.35-.35Z"/><path class="cls-1" d="M465.28,243.27h-3.42v-4.91h-4.17v4.91h-3.42V230.59h3.42v5.13h4.17v-5.13h3.42Z"/><path class="cls-1" d="M467.34,236.81a6.8,6.8,0,0,1,1.58-4.65,5.51,5.51,0,0,1,4.38-1.81,5.57,5.57,0,0,1,4.41,1.8,6.77,6.77,0,0,1,1.59,4.65v.25a6.78,6.78,0,0,1-1.59,4.66,6.27,6.27,0,0,1-8.79,0,6.78,6.78,0,0,1-1.59-4.66Zm3.41.24a5.5,5.5,0,0,0,.61,2.78,2.34,2.34,0,0,0,3.91,0,5.46,5.46,0,0,0,.62-2.77v-.25a5.41,5.41,0,0,0-.62-2.75,2.1,2.1,0,0,0-2-1.06,2.08,2.08,0,0,0-1.94,1.07,5.46,5.46,0,0,0-.62,2.74Z"/><path class="cls-1" d="M486.74,240.88a2,2,0,0,0,1.46-.53,1.89,1.89,0,0,0,.55-1.42h3.11l0,.07a4,4,0,0,1-1.45,3.22,6.09,6.09,0,0,1-8.08-.49,6.83,6.83,0,0,1-1.54-4.61v-.35a6.88,6.88,0,0,1,1.53-4.61,5.41,5.41,0,0,1,4.37-1.8,5.33,5.33,0,0,1,3.78,1.34,4.44,4.44,0,0,1,1.39,3.52l0,.07h-3.12a2.48,2.48,0,0,0-.54-1.63,1.83,1.83,0,0,0-1.49-.65,2,2,0,0,0-1.92,1.05,5.79,5.79,0,0,0-.56,2.71v.35a5.77,5.77,0,0,0,.56,2.73A2,2,0,0,0,486.74,240.88Z"/><path class="cls-1" d="M504.57,233.23h-4.05v10h-3.43v-10h-4v-2.64h11.48Z"/><path class="cls-1" d="M510,227.55h-3.42V225H510Zm0,15.71h-3.42V230.59H510Z"/><path class="cls-2" d="M439.83,82.27h-8.3V81.07l4.19-4.65a11.76,11.76,0,0,0,1.52-2,3.14,3.14,0,0,0,.4-1.51,2.4,2.4,0,0,0-.56-1.61,1.85,1.85,0,0,0-1.48-.65,2.54,2.54,0,0,0-2,.68,2.71,2.71,0,0,0-.63,1.91h-1.66l0-.05a3.6,3.6,0,0,1,1.1-2.78,4.31,4.31,0,0,1,3.16-1.12,3.75,3.75,0,0,1,2.75,1,3.44,3.44,0,0,1,1,2.56,4.1,4.1,0,0,1-.62,2.1A13.47,13.47,0,0,1,437,77.21l-3.37,3.66,0,0h6.15Z"/><path class="cls-2" d="M449.77,77.39a5.73,5.73,0,0,1-1.09,3.76,4.05,4.05,0,0,1-6,0,5.69,5.69,0,0,1-1.1-3.75v-3a5.72,5.72,0,0,1,1.09-3.76,4,4,0,0,1,6,0,5.72,5.72,0,0,1,1.09,3.76ZM448,74a4.28,4.28,0,0,0-.6-2.5,2.23,2.23,0,0,0-3.48,0,4.3,4.3,0,0,0-.6,2.5v3.75a4.3,4.3,0,0,0,.61,2.51,2,2,0,0,0,1.75.85,2,2,0,0,0,1.74-.84,4.37,4.37,0,0,0,.59-2.51Z"/><path class="cls-2" d="M456.76,82.27H455V71.16l-2.62,0V69.95l4.35-.47Z"/><path class="cls-2" d="M466.84,69.29a5.77,5.77,0,0,1,1.31.15,4.29,4.29,0,0,1,1.07.38l-.37,1.33a5.1,5.1,0,0,0-.9-.36,4,4,0,0,0-1.1-.14,2.65,2.65,0,0,0-2.21,1.1,4.59,4.59,0,0,0-.84,2.87v.2a4.23,4.23,0,0,1,1.29-.77,4.34,4.34,0,0,1,1.56-.28A3.42,3.42,0,0,1,469.37,75a4.45,4.45,0,0,1,1,3,4.77,4.77,0,0,1-1.09,3.24,3.64,3.64,0,0,1-2.9,1.25,4,4,0,0,1-3.11-1.36,5.53,5.53,0,0,1-1.23-3.84V74.81a5.75,5.75,0,0,1,1.37-4A4.38,4.38,0,0,1,466.84,69.29Zm-.59,5.77a3,3,0,0,0-1.51.36,2.44,2.44,0,0,0-.95,1v1a4.33,4.33,0,0,0,.75,2.72,2.29,2.29,0,0,0,1.87,1,1.88,1.88,0,0,0,1.66-.9,4,4,0,0,0,.59-2.23,3.28,3.28,0,0,0-.64-2.08A2.12,2.12,0,0,0,466.25,75.06Z"/><path class="cls-2" d="M490.83,129.27h-8.3v-1.19l4.19-4.65a11.76,11.76,0,0,0,1.52-2,3.14,3.14,0,0,0,.4-1.51,2.4,2.4,0,0,0-.56-1.61,1.85,1.85,0,0,0-1.48-.65,2.54,2.54,0,0,0-2,.68,2.71,2.71,0,0,0-.63,1.91h-1.66l0-.05a3.6,3.6,0,0,1,1.1-2.78,4.31,4.31,0,0,1,3.16-1.12,3.75,3.75,0,0,1,2.75,1,3.44,3.44,0,0,1,1,2.56,4.1,4.1,0,0,1-.62,2.1,13.47,13.47,0,0,1-1.74,2.25l-3.37,3.66,0,0h6.15Z"/><path class="cls-2" d="M500.77,124.39a5.73,5.73,0,0,1-1.09,3.76,4.05,4.05,0,0,1-6,0,5.69,5.69,0,0,1-1.1-3.75v-3a5.72,5.72,0,0,1,1.09-3.76,4,4,0,0,1,6,0,5.72,5.72,0,0,1,1.09,3.76ZM499,121a4.28,4.28,0,0,0-.6-2.5,2.23,2.23,0,0,0-3.48,0,4.3,4.3,0,0,0-.6,2.5v3.75a4.3,4.3,0,0,0,.61,2.51,2,2,0,0,0,1.75.85,2,2,0,0,0,1.74-.84,4.37,4.37,0,0,0,.59-2.51Z"/><path class="cls-2" d="M507.76,129.27H506V118.16l-2.62,0v-1.25l4.35-.47Z"/><path class="cls-2" d="M521.24,117.83a18,18,0,0,0-3.13,4.89,21.83,21.83,0,0,0-1.17,5.16l-.14,1.38h-1.73l.14-1.38a18.79,18.79,0,0,1,1.43-5.41,20.85,20.85,0,0,1,2.91-4.65h-7v-1.36h8.66Z"/><path class="cls-2" d="M931.83,82.27h-8.3V81.07l4.19-4.65a11.7,11.7,0,0,0,1.52-2,3.13,3.13,0,0,0,.4-1.51,2.4,2.4,0,0,0-.56-1.61,1.85,1.85,0,0,0-1.48-.65,2.54,2.54,0,0,0-2,.68,2.71,2.71,0,0,0-.63,1.91h-1.66l0-.05a3.6,3.6,0,0,1,1.1-2.78,4.31,4.31,0,0,1,3.16-1.12,3.75,3.75,0,0,1,2.75,1,3.44,3.44,0,0,1,1,2.56,4.09,4.09,0,0,1-.62,2.1A13.41,13.41,0,0,1,929,77.21l-3.37,3.66,0,0h6.15Z"/><path class="cls-2" d="M941.77,77.39a5.74,5.74,0,0,1-1.08,3.76,4.05,4.05,0,0,1-6,0,5.69,5.69,0,0,1-1.1-3.75v-3a5.73,5.73,0,0,1,1.09-3.76,4,4,0,0,1,6,0,5.72,5.72,0,0,1,1.09,3.76ZM940,74a4.28,4.28,0,0,0-.6-2.5,2.23,2.23,0,0,0-3.49,0,4.3,4.3,0,0,0-.6,2.5v3.75a4.3,4.3,0,0,0,.61,2.51,2,2,0,0,0,1.75.85,2,2,0,0,0,1.74-.84,4.36,4.36,0,0,0,.59-2.51Z"/><path class="cls-2" d="M948.76,82.27H947V71.16l-2.62,0V69.95l4.35-.47Z"/><path class="cls-2" d="M958.84,69.29a5.78,5.78,0,0,1,1.31.15,4.3,4.3,0,0,1,1.07.38l-.37,1.33a5.08,5.08,0,0,0-.9-.36,4,4,0,0,0-1.1-.14,2.65,2.65,0,0,0-2.21,1.1,4.59,4.59,0,0,0-.84,2.87v.2a4.24,4.24,0,0,1,1.29-.77,4.34,4.34,0,0,1,1.56-.28A3.42,3.42,0,0,1,961.37,75a4.45,4.45,0,0,1,1,3,4.77,4.77,0,0,1-1.08,3.24,3.64,3.64,0,0,1-2.9,1.25,4,4,0,0,1-3.11-1.36,5.53,5.53,0,0,1-1.23-3.84V74.81a5.75,5.75,0,0,1,1.37-4A4.38,4.38,0,0,1,958.84,69.29Zm-.59,5.77a3,3,0,0,0-1.51.36,2.44,2.44,0,0,0-.95,1v1a4.33,4.33,0,0,0,.75,2.72,2.29,2.29,0,0,0,1.87,1,1.88,1.88,0,0,0,1.66-.9,4,4,0,0,0,.59-2.23,3.28,3.28,0,0,0-.64-2.08A2.12,2.12,0,0,0,958.25,75.06Z"/><path class="cls-2" d="M982.83,129.27h-8.3v-1.19l4.19-4.65a11.7,11.7,0,0,0,1.52-2,3.13,3.13,0,0,0,.4-1.51,2.4,2.4,0,0,0-.56-1.61,1.85,1.85,0,0,0-1.48-.65,2.54,2.54,0,0,0-2,.68,2.71,2.71,0,0,0-.63,1.91h-1.66l0-.05a3.6,3.6,0,0,1,1.1-2.78,4.31,4.31,0,0,1,3.16-1.12,3.75,3.75,0,0,1,2.75,1,3.44,3.44,0,0,1,1,2.56,4.09,4.09,0,0,1-.62,2.1,13.41,13.41,0,0,1-1.74,2.25l-3.37,3.66,0,0h6.15Z"/><path class="cls-2" d="M992.77,124.39a5.74,5.74,0,0,1-1.08,3.76,4.05,4.05,0,0,1-6,0,5.69,5.69,0,0,1-1.1-3.75v-3a5.73,5.73,0,0,1,1.09-3.76,4,4,0,0,1,6,0,5.72,5.72,0,0,1,1.09,3.76ZM991,121a4.28,4.28,0,0,0-.6-2.5,2.23,2.23,0,0,0-3.49,0,4.3,4.3,0,0,0-.6,2.5v3.75a4.3,4.3,0,0,0,.61,2.51,2,2,0,0,0,1.75.85,2,2,0,0,0,1.74-.84,4.36,4.36,0,0,0,.59-2.51Z"/><path class="cls-2" d="M999.76,129.27H998V118.16l-2.62,0v-1.25l4.35-.47Z"/><path class="cls-2" d="M1013.24,117.83a18,18,0,0,0-3.13,4.89,21.78,21.78,0,0,0-1.17,5.16l-.14,1.38h-1.73l.14-1.38a18.79,18.79,0,0,1,1.43-5.41,20.85,20.85,0,0,1,2.91-4.65h-7v-1.36h8.66Z"/><path class="cls-3" d="M146.35,83.49a3.16,3.16,0,0,0,2.58-1.22,5.77,5.77,0,0,0,1-3.67v-.3a4.43,4.43,0,0,1-1.6,1.31,4.57,4.57,0,0,1-2,.44,5.49,5.49,0,0,1-4.37-1.83,7.43,7.43,0,0,1-1.59-5,7.17,7.17,0,0,1,1.89-5.07,6.25,6.25,0,0,1,4.79-2,6.37,6.37,0,0,1,4.95,2.1,8.48,8.48,0,0,1,1.9,5.9v4.32a8.21,8.21,0,0,1-2.11,6,7.29,7.29,0,0,1-5.43,2.15,11.32,11.32,0,0,1-2.14-.21,9.42,9.42,0,0,1-2-.62l.45-2.88a10.42,10.42,0,0,0,1.78.5A10.85,10.85,0,0,0,146.35,83.49Zm.64-6.37a3.82,3.82,0,0,0,1.74-.38,3.12,3.12,0,0,0,1.18-1V73.61a6,6,0,0,0-.77-3.32,2.39,2.39,0,0,0-2.08-1.13,2.26,2.26,0,0,0-2,1.18,5.17,5.17,0,0,0-.76,2.85,5.31,5.31,0,0,0,.68,2.87A2.18,2.18,0,0,0,147,77.12Z"/><path class="cls-3" d="M169.89,78.52q0,4-1.81,6a6.94,6.94,0,0,1-9.84,0q-1.82-2-1.82-6V74.13a8.81,8.81,0,0,1,1.81-6,6.9,6.9,0,0,1,9.83,0,8.77,8.77,0,0,1,1.83,6Zm-4-4.8a6.55,6.55,0,0,0-.71-3.47,2.47,2.47,0,0,0-4.1,0,6.65,6.65,0,0,0-.7,3.47V78.9a6.66,6.66,0,0,0,.7,3.5,2.31,2.31,0,0,0,2.07,1.09,2.27,2.27,0,0,0,2-1.09,6.72,6.72,0,0,0,.7-3.5Z"/><path class="cls-3" d="M185.89,78.52q0,4-1.81,6a6.94,6.94,0,0,1-9.84,0q-1.82-2-1.82-6V74.13a8.81,8.81,0,0,1,1.81-6,6.9,6.9,0,0,1,9.83,0,8.77,8.77,0,0,1,1.83,6Zm-4-4.8a6.55,6.55,0,0,0-.71-3.47,2.47,2.47,0,0,0-4.1,0,6.65,6.65,0,0,0-.7,3.47V78.9a6.66,6.66,0,0,0,.7,3.5,2.31,2.31,0,0,0,2.07,1.09,2.27,2.27,0,0,0,2-1.09,6.72,6.72,0,0,0,.7-3.5Z"/><path class="cls-3" d="M206,81.62h.08l3.8-10.14H217v2.41l-2.12.41v9.17l2.12.41v2.39h-7.62V83.88l1.5-.41v-6h-.08l-3.43,8.82h-2.68l-3.35-8.65h-.08v5.84l1.52.41v2.39H195.2V83.88l2.13-.41V74.29l-2.13-.41V71.48h7.07Z"/><path class="cls-3" d="M140.39,126.88l3.36-.41V113h-3.4V110.7l7.38-1.34v17.1l3.36.41v2.39H140.39Z"/><path class="cls-3" d="M152.87,129.27v-2.61l6.44-6.9a15.58,15.58,0,0,0,2-2.7,4.38,4.38,0,0,0,.59-2,3.08,3.08,0,0,0-.68-2.06,2.38,2.38,0,0,0-1.92-.8,2.48,2.48,0,0,0-2.1.94,4,4,0,0,0-.72,2.5h-3.88l0-.08a6,6,0,0,1,1.77-4.56,6.64,6.64,0,0,1,5-1.87,6.94,6.94,0,0,1,4.84,1.6,5.48,5.48,0,0,1,1.76,4.27,6,6,0,0,1-1,3.34,31.44,31.44,0,0,1-3.29,4l-3.54,3.87,0,.07h5.17l.16-2h3v5Z"/><path class="cls-3" d="M182.14,121.52q0,4-1.81,6a6.94,6.94,0,0,1-9.84,0q-1.82-2-1.82-6v-4.39a8.81,8.81,0,0,1,1.81-6,6.9,6.9,0,0,1,9.83,0,8.77,8.77,0,0,1,1.83,6Zm-4-4.8a6.55,6.55,0,0,0-.71-3.47,2.47,2.47,0,0,0-4.1,0,6.65,6.65,0,0,0-.7,3.47v5.18a6.66,6.66,0,0,0,.7,3.5,2.31,2.31,0,0,0,2.07,1.09,2.27,2.27,0,0,0,2-1.09,6.72,6.72,0,0,0,.7-3.5Z"/><path class="cls-3" d="M198.14,121.52q0,4-1.81,6a6.94,6.94,0,0,1-9.84,0q-1.82-2-1.82-6v-4.39a8.81,8.81,0,0,1,1.81-6,6.9,6.9,0,0,1,9.83,0,8.77,8.77,0,0,1,1.83,6Zm-4-4.8a6.55,6.55,0,0,0-.71-3.47,2.47,2.47,0,0,0-4.1,0,6.65,6.65,0,0,0-.7,3.47v5.18a6.66,6.66,0,0,0,.7,3.5,2.31,2.31,0,0,0,2.07,1.09,2.27,2.27,0,0,0,2-1.09,6.72,6.72,0,0,0,.7-3.5Z"/><path class="cls-3" d="M218.29,124.62h.08l3.8-10.14h7.12v2.41l-2.12.41v9.17l2.12.41v2.39h-7.62v-2.39l1.5-.41v-6h-.08l-3.43,8.82H217l-3.35-8.65h-.08v5.84l1.52.41v2.39h-7.63v-2.39l2.13-.41v-9.17l-2.13-.41v-2.41h7.07Z"/><path class="cls-3" d="M140.39,299.88l3.36-.41V286h-3.4V283.7l7.38-1.34v17.1l3.36.41v2.39H140.39Z"/><path class="cls-3" d="M167.79,294.52q0,4-1.81,6a6.94,6.94,0,0,1-9.84,0q-1.82-2-1.82-6v-4.39a8.81,8.81,0,0,1,1.81-6,6.9,6.9,0,0,1,9.83,0,8.77,8.77,0,0,1,1.83,6Zm-4-4.8a6.55,6.55,0,0,0-.71-3.47,2.47,2.47,0,0,0-4.1,0,6.65,6.65,0,0,0-.7,3.47v5.18a6.66,6.66,0,0,0,.7,3.5,2.31,2.31,0,0,0,2.07,1.09,2.27,2.27,0,0,0,2-1.09,6.72,6.72,0,0,0,.7-3.5Z"/><path class="cls-3" d="M175.33,291h-4v-3.5h4Zm0,11.28h-4v-3.5h4Z"/><path class="cls-3" d="M192.24,294.52q0,4-1.81,6a6.94,6.94,0,0,1-9.84,0q-1.82-2-1.82-6v-4.39a8.81,8.81,0,0,1,1.81-6,6.9,6.9,0,0,1,9.83,0,8.77,8.77,0,0,1,1.83,6Zm-4-4.8a6.55,6.55,0,0,0-.71-3.47,2.47,2.47,0,0,0-4.1,0,6.65,6.65,0,0,0-.7,3.47v5.18a6.66,6.66,0,0,0,.7,3.5,2.31,2.31,0,0,0,2.07,1.09,2.27,2.27,0,0,0,2-1.09,6.72,6.72,0,0,0,.7-3.5Z"/><path class="cls-3" d="M209.36,294.52q0,4-1.81,6a6.94,6.94,0,0,1-9.84,0q-1.82-2-1.82-6v-4.39a8.81,8.81,0,0,1,1.81-6,6.9,6.9,0,0,1,9.83,0,8.77,8.77,0,0,1,1.83,6Zm-4-4.8a6.55,6.55,0,0,0-.71-3.47,2.47,2.47,0,0,0-4.1,0,6.65,6.65,0,0,0-.7,3.47v5.18a6.66,6.66,0,0,0,.7,3.5,2.31,2.31,0,0,0,2.07,1.09,2.27,2.27,0,0,0,2-1.09,6.72,6.72,0,0,0,.7-3.5Z"/><path class="cls-3" d="M236.75,294.05H221.93v-3.12h14.82Z"/><path class="cls-3" d="M248.42,299.88l3.36-.41V286h-3.4V283.7l7.38-1.34v17.1l3.36.41v2.39H248.42Z"/><path class="cls-3" d="M261.91,299.88l3.36-.41V286h-3.4V283.7l7.38-1.34v17.1l3.36.41v2.39H261.91Z"/><path class="cls-3" d="M279.74,291h-4v-3.5h4Zm0,11.28h-4v-3.5h4Z"/><path class="cls-3" d="M287.06,290.62h2.24a2.72,2.72,0,0,0,2.11-.75,3,3,0,0,0,.68-2.07,2.7,2.7,0,0,0-.68-1.93,2.6,2.6,0,0,0-2-.72,2.8,2.8,0,0,0-1.89.66,2.16,2.16,0,0,0-.77,1.72h-3.87l0-.08a4.53,4.53,0,0,1,1.79-3.86,7.14,7.14,0,0,1,4.65-1.52,7.65,7.65,0,0,1,4.93,1.48,5.09,5.09,0,0,1,1.84,4.21,4.23,4.23,0,0,1-.82,2.47,5.45,5.45,0,0,1-2.26,1.83,5.09,5.09,0,0,1,2.52,1.8,4.75,4.75,0,0,1,.87,2.83,5.17,5.17,0,0,1-2,4.3,8,8,0,0,1-5.09,1.57,7.8,7.8,0,0,1-4.76-1.47,4.69,4.69,0,0,1-1.92-4.15l0-.08h3.87a2.45,2.45,0,0,0,.82,1.89,3,3,0,0,0,2.08.75,3,3,0,0,0,2.18-.77,2.74,2.74,0,0,0,.8-2.08,3,3,0,0,0-.79-2.3,3.29,3.29,0,0,0-2.32-.73h-2.24Z"/><path class="cls-3" d="M313,294.52q0,4-1.81,6a6.94,6.94,0,0,1-9.84,0q-1.82-2-1.82-6v-4.39a8.81,8.81,0,0,1,1.81-6,6.9,6.9,0,0,1,9.83,0,8.77,8.77,0,0,1,1.83,6Zm-4-4.8a6.55,6.55,0,0,0-.71-3.47,2.47,2.47,0,0,0-4.1,0,6.65,6.65,0,0,0-.7,3.47v5.18a6.66,6.66,0,0,0,.7,3.5,2.31,2.31,0,0,0,2.07,1.09,2.27,2.27,0,0,0,2-1.09,6.72,6.72,0,0,0,.7-3.5Z"/><rect class="cls-4" x="244.5" y="68.3" width="167.25" height="18"/><rect class="cls-4" x="244.5" y="111.3" width="223" height="18"/><line class="cls-5" x1="8.5" y1="28.3" x2="75.06" y2="28.3"/><line class="cls-5" x1="8.94" y1="22.3" x2="8.94" y2="35.3"/><line class="cls-5" x1="75.5" y1="22.3" x2="75.5" y2="35.3"/><circle class="cls-5" cx="42" cy="229.8" r="26"/><line class="cls-5" x1="42" y1="208.8" x2="42" y2="214.8"/><line class="cls-5" x1="42" y1="246.3" x2="42" y2="252.3"/><line class="cls-5" x1="20.25" y1="230.55" x2="26.25" y2="230.55"/><line class="cls-5" x1="57.75" y1="230.55" x2="63.75" y2="230.55"/><circle class="cls-5" cx="42" cy="229.8" r="2"/><line class="cls-5" x1="53" y1="213.8" x2="42" y2="229.8"/><path class="cls-1" d="M121.59,405.21v17.06h-3.43V415.7a13.15,13.15,0,0,1-1.73.29,16.88,16.88,0,0,1-1.72.1,7.66,7.66,0,0,1-4.86-1.36,5,5,0,0,1-1.72-4.21v-5.31h3.42v5.31a2.91,2.91,0,0,0,.74,2.3,3.7,3.7,0,0,0,2.41.63q.73,0,1.71-.1a13.12,13.12,0,0,0,1.75-.29v-7.85Z"/><path class="cls-1" d="M132.41,422.27a7.2,7.2,0,0,1-.32-.91,6.36,6.36,0,0,1-.19-1,4.72,4.72,0,0,1-1.39,1.54,3.47,3.47,0,0,1-2.06.61,4.28,4.28,0,0,1-3.07-1,3.67,3.67,0,0,1-1.08-2.79,3.34,3.34,0,0,1,1.44-2.89,7.17,7.17,0,0,1,4.19-1h1.91v-1a2,2,0,0,0-.48-1.42,2.24,2.24,0,0,0-2.7-.1,1.43,1.43,0,0,0-.45,1.12h-3.3v-.07a3.22,3.22,0,0,1,1.39-2.77,6.08,6.08,0,0,1,3.88-1.17,5.66,5.66,0,0,1,3.69,1.15,4,4,0,0,1,1.42,3.29V419a9.91,9.91,0,0,0,.13,1.68,8.41,8.41,0,0,0,.43,1.56ZM129.28,420a2.94,2.94,0,0,0,1.61-.45,2.32,2.32,0,0,0,.95-1v-1.79h-1.91a2.28,2.28,0,0,0-1.65.54,1.77,1.77,0,0,0-.56,1.32,1.32,1.32,0,0,0,.42,1A1.63,1.63,0,0,0,129.28,420Z"/><path class="cls-1" d="M143.66,419.88a2,2,0,0,0,1.46-.53,1.89,1.89,0,0,0,.55-1.42h3.11l0,.07a4,4,0,0,1-1.45,3.22,6.09,6.09,0,0,1-8.08-.49,6.83,6.83,0,0,1-1.54-4.61v-.35a6.88,6.88,0,0,1,1.53-4.61,5.41,5.41,0,0,1,4.37-1.8,5.33,5.33,0,0,1,3.78,1.34,4.44,4.44,0,0,1,1.39,3.52l0,.07h-3.12a2.48,2.48,0,0,0-.54-1.63,1.83,1.83,0,0,0-1.49-.65,2,2,0,0,0-1.92,1.05,5.8,5.8,0,0,0-.56,2.71v.35a5.77,5.77,0,0,0,.56,2.73A2,2,0,0,0,143.66,419.88Z"/><path class="cls-1" d="M168.68,422.27h-3.42v-10h-4.2v10h-3.42V409.59h11Z"/><path class="cls-1" d="M171.2,415.81a6.8,6.8,0,0,1,1.58-4.65,5.51,5.51,0,0,1,4.38-1.81,5.57,5.57,0,0,1,4.41,1.8,6.77,6.77,0,0,1,1.59,4.65v.25a6.78,6.78,0,0,1-1.59,4.66,6.27,6.27,0,0,1-8.79,0,6.78,6.78,0,0,1-1.59-4.66Zm3.41.24a5.5,5.5,0,0,0,.61,2.78,2.34,2.34,0,0,0,3.91,0,5.47,5.47,0,0,0,.62-2.77v-.25a5.41,5.41,0,0,0-.62-2.75,2.1,2.1,0,0,0-2-1.06,2.08,2.08,0,0,0-1.94,1.07,5.46,5.46,0,0,0-.62,2.74Z"/><path class="cls-1" d="M196.64,422.27h-3.42v-4a7.32,7.32,0,0,1-.88.13q-.45,0-.85,0a6.84,6.84,0,0,1-4.32-1.2,4.37,4.37,0,0,1-1.52-3.66v-4h3.42v4a2.23,2.23,0,0,0,.55,1.73,2.84,2.84,0,0,0,1.86.48,7.9,7.9,0,0,0,.86,0q.43,0,.87-.14v-6h3.42Z"/><path class="cls-1" d="M207.11,422.27a7.2,7.2,0,0,1-.32-.91,6.36,6.36,0,0,1-.19-1,4.72,4.72,0,0,1-1.39,1.54,3.47,3.47,0,0,1-2.06.61,4.28,4.28,0,0,1-3.07-1A3.67,3.67,0,0,1,199,418.7a3.34,3.34,0,0,1,1.44-2.89,7.17,7.17,0,0,1,4.19-1h1.91v-1a2,2,0,0,0-.48-1.42,2.24,2.24,0,0,0-2.7-.1,1.43,1.43,0,0,0-.45,1.12h-3.3v-.07a3.22,3.22,0,0,1,1.39-2.77,6.08,6.08,0,0,1,3.88-1.17,5.66,5.66,0,0,1,3.69,1.15A4,4,0,0,1,210,413.8V419a9.91,9.91,0,0,0,.13,1.68,8.41,8.41,0,0,0,.43,1.56ZM204,420a2.94,2.94,0,0,0,1.61-.45,2.32,2.32,0,0,0,.95-1v-1.79h-1.91a2.28,2.28,0,0,0-1.65.54,1.77,1.77,0,0,0-.56,1.32,1.32,1.32,0,0,0,.42,1A1.63,1.63,0,0,0,204,420Z"/><path class="cls-1" d="M223.55,412.23H219.5v10h-3.43v-10h-4v-2.64h11.48Z"/><path class="cls-1" d="M230.77,417.52h-1.31v4.75H226V409.59h3.42v4.83h1.2l2.73-4.83h4.32l-4.14,6,4.51,6.7h-4.56Z"/><path class="cls-1" d="M244.34,416.95l.14.7h.07l2.43-8.06h3.68l-5.14,14.58a6.71,6.71,0,0,1-1.46,2.29,3.76,3.76,0,0,1-2.78.93,4.29,4.29,0,0,1-.8-.07l-.9-.2.4-2.5.33,0,.32,0a1.87,1.87,0,0,0,1.3-.42,2.74,2.74,0,0,0,.7-1l.4-1-4.5-12.67h3.68Z"/><path class="cls-1" d="M262.56,406.55h-3.42V404h3.42Zm0,15.71h-3.42V409.59h3.42Z"/><path class="cls-1" d="M277.25,417.52h-1.31v4.75h-3.42V409.59h3.42v4.83h1.2l2.73-4.83h4.32l-4.14,6,4.51,6.7H280Z"/><path class="cls-1" d="M289.84,406.55h-3.42V404h3.42Zm0,15.71h-3.42V409.59h3.42Z"/><path class="cls-1" d="M304.09,422.27h-3.42v-4.91H296.5v4.91h-3.42V409.59h3.42v5.13h4.17v-5.13h3.42Z"/><path class="cls-1" d="M307.11,409.59h3.42v10h4.2v-10h3.42v10H320v6.83h-3.41v-4.2h-9.46Z"/><path class="cls-1" d="M333.11,409.59v12.68h-3.4v-4.44h-2.06l-2.48,4.44h-3.46l2.8-5a4.18,4.18,0,0,1-1.79-1.42,3.51,3.51,0,0,1-.63-2.05,3.71,3.71,0,0,1,1.47-3,6.17,6.17,0,0,1,4-1.18Zm-7.59,4.31A1.52,1.52,0,0,0,326,415a2,2,0,0,0,1.45.48h2.24v-3.29h-2.18a2.05,2.05,0,0,0-1.49.51A1.58,1.58,0,0,0,325.52,413.9Z"/><path class="cls-1" d="M350.57,418.28h.07l3.27-8.7h4.28v12.68h-3.41V414.7h-.07l-2.94,7.58h-2.3l-2.87-7.42h-.07v7.41H343.1V409.59h4.24Z"/><path class="cls-1" d="M361.1,415.81a6.8,6.8,0,0,1,1.58-4.65,5.51,5.51,0,0,1,4.38-1.81,5.57,5.57,0,0,1,4.41,1.8,6.77,6.77,0,0,1,1.59,4.65v.25a6.78,6.78,0,0,1-1.59,4.66,6.27,6.27,0,0,1-8.79,0,6.78,6.78,0,0,1-1.59-4.66Zm3.41.24a5.5,5.5,0,0,0,.61,2.78,2.34,2.34,0,0,0,3.91,0,5.47,5.47,0,0,0,.62-2.77v-.25a5.41,5.41,0,0,0-.62-2.75,2.1,2.1,0,0,0-2-1.06,2.08,2.08,0,0,0-1.94,1.07,5.46,5.46,0,0,0-.62,2.74Z"/><path class="cls-1" d="M386.61,422.27h-3.42v-4.91H379v4.91H375.6V409.59H379v5.13h4.17v-5.13h3.42Z"/><path class="cls-1" d="M393.28,406.55h-3.42V404h3.42Zm0,15.71h-3.42V409.59h3.42Z"/><path class="cls-1" d="M407.31,412.23h-4.05v10h-3.43v-10h-4v-2.64h11.48Z"/><path class="cls-1" d="M408.77,415.81a6.8,6.8,0,0,1,1.58-4.65,5.51,5.51,0,0,1,4.38-1.81,5.57,5.57,0,0,1,4.41,1.8,6.77,6.77,0,0,1,1.59,4.65v.25a6.78,6.78,0,0,1-1.59,4.66,6.27,6.27,0,0,1-8.79,0,6.78,6.78,0,0,1-1.59-4.66Zm3.41.24a5.5,5.5,0,0,0,.61,2.78,2.34,2.34,0,0,0,3.91,0,5.47,5.47,0,0,0,.62-2.77v-.25a5.41,5.41,0,0,0-.62-2.75,2.1,2.1,0,0,0-2-1.06,2.08,2.08,0,0,0-1.94,1.07,5.46,5.46,0,0,0-.62,2.74Z"/><path class="cls-1" d="M434.77,416.28a7.28,7.28,0,0,1-1.3,4.52,4.3,4.3,0,0,1-3.63,1.71,4.06,4.06,0,0,1-1.77-.37,3.63,3.63,0,0,1-1.32-1.08v6.08h-3.41V409.59h3.08l.2,1.5a4.06,4.06,0,0,1,1.35-1.28,3.66,3.66,0,0,1,1.85-.45,4.22,4.22,0,0,1,3.66,1.84,8.21,8.21,0,0,1,1.3,4.84Zm-3.42-.26a6.15,6.15,0,0,0-.6-2.91,2,2,0,0,0-1.83-1.12,2.58,2.58,0,0,0-1.32.32,2.27,2.27,0,0,0-.86.9v5.56a2.1,2.1,0,0,0,.86.82,2.9,2.9,0,0,0,1.34.28,2,2,0,0,0,1.82-1,5.15,5.15,0,0,0,.58-2.64Z"/><path class="cls-1" d="M444.92,409.59h3.41v12.68h-3.41v-7.73h-.07l-4.14,7.75H437.3V409.59h3.42v7.71h.07Z"/><path class="cls-1" d="M462.34,422.27h-3.42v-4.91h-4.17v4.91h-3.42V409.59h3.42v5.13h4.17v-5.13h3.42Z"/><path class="cls-1" d="M474,412.23h-5.24v10h-3.42V409.59H474Z"/><path class="cls-1" d="M480.48,416.95l.14.7h.07l2.43-8.06h3.68l-5.14,14.58a6.71,6.71,0,0,1-1.46,2.29,3.76,3.76,0,0,1-2.78.93,4.29,4.29,0,0,1-.8-.07l-.9-.2.4-2.5.33,0,.32,0a1.87,1.87,0,0,0,1.3-.42,2.74,2.74,0,0,0,.7-1l.4-1-4.5-12.67h3.68Z"/><path class="cls-3" d="M154.29,473.52q0,4-1.81,6a6.94,6.94,0,0,1-9.84,0q-1.82-2-1.82-6v-4.39a8.81,8.81,0,0,1,1.81-6,6.9,6.9,0,0,1,9.83,0,8.77,8.77,0,0,1,1.83,6Zm-4-4.8a6.55,6.55,0,0,0-.71-3.47,2.47,2.47,0,0,0-4.1,0,6.65,6.65,0,0,0-.7,3.47v5.18a6.66,6.66,0,0,0,.7,3.5,2.31,2.31,0,0,0,2.07,1.09,2.27,2.27,0,0,0,2-1.09,6.72,6.72,0,0,0,.7-3.5Z"/><path class="cls-3" d="M165.84,461.08a9.5,9.5,0,0,1,2.07.21,10.85,10.85,0,0,1,1.91.62l-.7,2.91a13.61,13.61,0,0,0-1.59-.46,7.94,7.94,0,0,0-1.67-.16,3.51,3.51,0,0,0-2.85,1.3,5.94,5.94,0,0,0-1.09,3.83l0,.07a4.61,4.61,0,0,1,1.7-1.09,6.39,6.39,0,0,1,2.3-.4,5.07,5.07,0,0,1,4.18,1.89,7.49,7.49,0,0,1,1.52,4.83,6.88,6.88,0,0,1-1.87,5,6.4,6.4,0,0,1-4.84,2,6.67,6.67,0,0,1-5.13-2.14,8.38,8.38,0,0,1-2-5.93V470a9.14,9.14,0,0,1,2.24-6.57A7.59,7.59,0,0,1,165.84,461.08Zm-.92,9.86a4.54,4.54,0,0,0-1.89.36,2.86,2.86,0,0,0-1.2,1v1.33a6.5,6.5,0,0,0,.85,3.64,2.62,2.62,0,0,0,2.28,1.27,2.27,2.27,0,0,0,2-1.13,4.84,4.84,0,0,0,.75-2.73,4.43,4.43,0,0,0-.75-2.68A2.37,2.37,0,0,0,164.93,470.93Z"/><path class="cls-3" d="M178.6,470h-4v-3.5h4Zm0,11.28h-4v-3.5h4Z"/><path class="cls-3" d="M192.12,465.9l-.36-1.34H186.4l-.56,4.59a5,5,0,0,1,1.34-.68,5.57,5.57,0,0,1,1.72-.28,5.51,5.51,0,0,1,4.44,1.74,7.22,7.22,0,0,1,1.57,4.95,6.82,6.82,0,0,1-1.73,4.77,6.39,6.39,0,0,1-5,1.9,7.49,7.49,0,0,1-4.69-1.5,4.74,4.74,0,0,1-1.89-4.12l0-.07,3.83-.19a2.78,2.78,0,0,0,.75,2.07,2.67,2.67,0,0,0,2,.75,2.31,2.31,0,0,0,2.06-1,4.55,4.55,0,0,0,.67-2.58,4.81,4.81,0,0,0-.71-2.76,2.4,2.4,0,0,0-2.12-1,3,3,0,0,0-1.74.42,2.32,2.32,0,0,0-.87,1.15l-3.53-.23,1.15-11.09h11.46v4.54Z"/><path class="cls-3" d="M211.56,473.52q0,4-1.81,6a6.94,6.94,0,0,1-9.84,0q-1.82-2-1.82-6v-4.39a8.81,8.81,0,0,1,1.81-6,6.9,6.9,0,0,1,9.83,0,8.77,8.77,0,0,1,1.83,6Zm-4-4.8a6.55,6.55,0,0,0-.71-3.47,2.47,2.47,0,0,0-4.1,0,6.65,6.65,0,0,0-.7,3.47v5.18a6.66,6.66,0,0,0,.7,3.5,2.31,2.31,0,0,0,2.07,1.09,2.27,2.27,0,0,0,2-1.09,6.72,6.72,0,0,0,.7-3.5Z"/><path class="cls-3" d="M239,473.05H224.13v-3.12H239Z"/><path class="cls-3" d="M250.62,478.88l3.36-.41V465h-3.4V462.7l7.38-1.34v17.1l3.36.41v2.39H250.62Z"/><path class="cls-3" d="M264.11,478.88l3.36-.41V465h-3.4V462.7l7.38-1.34v17.1l3.36.41v2.39H264.11Z"/><path class="cls-3" d="M281.94,470h-4v-3.5h4Zm0,11.28h-4v-3.5h4Z"/><path class="cls-3" d="M295.46,465.9l-.36-1.34h-5.36l-.56,4.59a5,5,0,0,1,1.34-.68,5.57,5.57,0,0,1,1.72-.28,5.51,5.51,0,0,1,4.44,1.74,7.22,7.22,0,0,1,1.57,4.95,6.82,6.82,0,0,1-1.73,4.77,6.39,6.39,0,0,1-5,1.9,7.49,7.49,0,0,1-4.69-1.5,4.74,4.74,0,0,1-1.89-4.12l0-.07,3.83-.19a2.78,2.78,0,0,0,.75,2.07,2.67,2.67,0,0,0,2,.75,2.31,2.31,0,0,0,2.06-1,4.55,4.55,0,0,0,.67-2.58,4.81,4.81,0,0,0-.71-2.76,2.4,2.4,0,0,0-2.12-1,3,3,0,0,0-1.74.42,2.32,2.32,0,0,0-.87,1.15l-3.53-.23,1.15-11.09h11.46v4.54Z"/><path class="cls-3" d="M314.9,473.52q0,4-1.81,6a6.94,6.94,0,0,1-9.84,0q-1.82-2-1.82-6v-4.39a8.81,8.81,0,0,1,1.81-6,6.9,6.9,0,0,1,9.83,0,8.77,8.77,0,0,1,1.83,6Zm-4-4.8a6.55,6.55,0,0,0-.71-3.47,2.47,2.47,0,0,0-4.1,0,6.65,6.65,0,0,0-.7,3.47v5.18a6.66,6.66,0,0,0,.7,3.5,2.31,2.31,0,0,0,2.07,1.09,2.27,2.27,0,0,0,2-1.09,6.72,6.72,0,0,0,.7-3.5Z"/><path class="cls-1" d="M666.41,27.14h-1.9v7.13h-3.42V17.21h3.42v7H666l4.52-7h4.18L669,25.15l6.2,9.12H671Z"/><path class="cls-1" d="M680.39,18.55H677V16h3.42Zm0,15.71H677V21.59h3.42Z"/><path class="cls-1" d="M694.67,21.59V34.27h-3.41v-10h-3V27a10.35,10.35,0,0,1-1.15,5.52,4.32,4.32,0,0,1-3.93,1.77h-.55l0-2.7h.36a1.45,1.45,0,0,0,1.52-1,12.22,12.22,0,0,0,.35-3.61v-5.4Z"/><path class="cls-1" d="M701.26,25.69h2.38a6.24,6.24,0,0,1,4,1.18A3.77,3.77,0,0,1,709.13,30a3.83,3.83,0,0,1-1.46,3.12,6.2,6.2,0,0,1-4,1.19h-5.81V21.59h3.43Zm0,2.64v3.3h2.38a2.27,2.27,0,0,0,1.56-.46,1.62,1.62,0,0,0,0-2.37,2.25,2.25,0,0,0-1.56-.47Z"/><path class="cls-1" d="M716.44,29.52h-1.31v4.75h-3.42V21.59h3.42v4.83h1.2l2.73-4.83h4.32l-4.14,6,4.51,6.7h-4.56Z"/><path class="cls-1" d="M729,18.55h-3.42V16H729Zm0,15.71h-3.42V21.59H729Z"/><path class="cls-1" d="M737.65,31.88a2,2,0,0,0,1.46-.53,1.89,1.89,0,0,0,.55-1.42h3.11l0,.07a4,4,0,0,1-1.45,3.22,6.09,6.09,0,0,1-8.08-.49,6.83,6.83,0,0,1-1.54-4.61v-.35a6.88,6.88,0,0,1,1.53-4.61,5.41,5.41,0,0,1,4.37-1.8,5.33,5.33,0,0,1,3.78,1.34,4.44,4.44,0,0,1,1.39,3.52l0,.07h-3.12a2.48,2.48,0,0,0-.54-1.63,1.83,1.83,0,0,0-1.49-.65A2,2,0,0,0,735.72,25a5.79,5.79,0,0,0-.56,2.71v.35a5.77,5.77,0,0,0,.56,2.73A2,2,0,0,0,737.65,31.88Z"/><path class="cls-1" d="M756,24.23h-4.05v10h-3.43v-10h-4V21.59H756Z"/><path class="cls-1" d="M761.88,25.69h2.38a6.24,6.24,0,0,1,4,1.18A3.77,3.77,0,0,1,769.75,30a3.83,3.83,0,0,1-1.46,3.12,6.2,6.2,0,0,1-4,1.19h-5.81V21.59h3.43Zm0,2.64v3.3h2.38a2.27,2.27,0,0,0,1.56-.46,1.62,1.62,0,0,0,0-2.37,2.25,2.25,0,0,0-1.56-.47Z"/><path class="cls-1" d="M783.15,28.95l.14.7h.07l2.43-8.06h3.68l-5.14,14.58a6.71,6.71,0,0,1-1.46,2.29,3.76,3.76,0,0,1-2.78.93,4.29,4.29,0,0,1-.8-.07l-.9-.2.4-2.5.33,0,.32,0a1.87,1.87,0,0,0,1.3-.42,2.74,2.74,0,0,0,.7-1l.4-1-4.5-12.67H781Z"/><path class="cls-1" d="M802.21,34.27h-3.42v-4a7.32,7.32,0,0,1-.88.13q-.45,0-.85,0a6.84,6.84,0,0,1-4.32-1.2,4.37,4.37,0,0,1-1.52-3.66v-4h3.42v4a2.23,2.23,0,0,0,.55,1.73,2.84,2.84,0,0,0,1.86.48,7.9,7.9,0,0,0,.86,0q.43,0,.87-.14v-6h3.42Z"/><path class="cls-1" d="M812.68,34.27a7.2,7.2,0,0,1-.32-.91,6.36,6.36,0,0,1-.19-1,4.72,4.72,0,0,1-1.39,1.54,3.47,3.47,0,0,1-2.06.61,4.28,4.28,0,0,1-3.07-1,3.67,3.67,0,0,1-1.08-2.79A3.34,3.34,0,0,1,806,27.81a7.17,7.17,0,0,1,4.19-1h1.91v-1a2,2,0,0,0-.48-1.42,2.24,2.24,0,0,0-2.7-.1,1.43,1.43,0,0,0-.45,1.12h-3.3v-.07a3.22,3.22,0,0,1,1.39-2.77,6.08,6.08,0,0,1,3.88-1.17,5.66,5.66,0,0,1,3.69,1.15,4,4,0,0,1,1.42,3.29V31a9.91,9.91,0,0,0,.13,1.68,8.41,8.41,0,0,0,.43,1.56ZM809.55,32a2.94,2.94,0,0,0,1.61-.45,2.32,2.32,0,0,0,.95-1V28.71H810.2a2.28,2.28,0,0,0-1.65.54,1.77,1.77,0,0,0-.56,1.32,1.32,1.32,0,0,0,.42,1A1.63,1.63,0,0,0,809.55,32Z"/><path class="cls-1" d="M823.93,31.88a2,2,0,0,0,1.46-.53,1.89,1.89,0,0,0,.55-1.42h3.11l0,.07a4,4,0,0,1-1.45,3.22,6.09,6.09,0,0,1-8.08-.49A6.83,6.83,0,0,1,818,28.12v-.35a6.88,6.88,0,0,1,1.53-4.61,5.41,5.41,0,0,1,4.37-1.8,5.33,5.33,0,0,1,3.78,1.34,4.44,4.44,0,0,1,1.39,3.52l0,.07h-3.12a2.48,2.48,0,0,0-.54-1.63,1.83,1.83,0,0,0-1.49-.65A2,2,0,0,0,822,25a5.79,5.79,0,0,0-.56,2.71v.35a5.77,5.77,0,0,0,.56,2.73A2,2,0,0,0,823.93,31.88Z"/><path class="cls-1" d="M842.47,34.27H839V29.36h-4.17v4.91h-3.42V21.59h3.42v5.13H839V21.59h3.42Z"/><path class="cls-1" d="M853.11,21.59h3.41V34.27h-3.41V26.53H853l-4.14,7.75h-3.42V21.59h3.42V29.3H849Z"/><path class="cls-1" d="M864.5,29.52h-1.31v4.75h-3.42V21.59h3.42v4.83h1.2l2.73-4.83h4.32l-4.14,6,4.51,6.7h-4.56Z"/><path class="cls-1" d="M877.1,18.55h-3.42V16h3.42Zm0,15.71h-3.42V21.59h3.42Z"/><path class="cls-1" d="M880.57,34.27V21.59h5.3a7.38,7.38,0,0,1,3.94.89,2.93,2.93,0,0,1,1.41,2.65,2.36,2.36,0,0,1-.59,1.58,3.69,3.69,0,0,1-1.68,1.05,4,4,0,0,1,2.19,1.06,2.55,2.55,0,0,1,.74,1.82,3.06,3.06,0,0,1-1.34,2.71,6.81,6.81,0,0,1-3.85.91ZM884,26.76h2a2.56,2.56,0,0,0,1.4-.3,1,1,0,0,0,.45-.91,1.12,1.12,0,0,0-.48-1,2.68,2.68,0,0,0-1.46-.32H884ZM884,29v2.68h2.7a2.18,2.18,0,0,0,1.34-.33,1.17,1.17,0,0,0,.43-1,1.25,1.25,0,0,0-.42-1,2.09,2.09,0,0,0-1.35-.35Z"/><path class="cls-1" d="M905.62,17.21,910,29.78H910l4.38-12.57h4.48V34.27h-3.42V29.18l.33-7.54h-.07l-4.57,12.63h-2.3l-4.55-12.59h-.07l.33,7.49v5.09h-3.42V17.21Z"/><path class="cls-1" d="M929.74,34.27a7.2,7.2,0,0,1-.32-.91,6.36,6.36,0,0,1-.19-1,4.72,4.72,0,0,1-1.39,1.54,3.47,3.47,0,0,1-2.06.61,4.28,4.28,0,0,1-3.07-1,3.67,3.67,0,0,1-1.08-2.79,3.34,3.34,0,0,1,1.44-2.89,7.17,7.17,0,0,1,4.19-1h1.91v-1a2,2,0,0,0-.48-1.42,2.24,2.24,0,0,0-2.7-.1,1.43,1.43,0,0,0-.45,1.12h-3.3v-.07a3.22,3.22,0,0,1,1.39-2.77,6.08,6.08,0,0,1,3.88-1.17,5.66,5.66,0,0,1,3.69,1.15,4,4,0,0,1,1.42,3.29V31a9.91,9.91,0,0,0,.13,1.68,8.41,8.41,0,0,0,.43,1.56ZM926.61,32a2.94,2.94,0,0,0,1.61-.45,2.32,2.32,0,0,0,.95-1V28.71h-1.91a2.28,2.28,0,0,0-1.65.54,1.77,1.77,0,0,0-.56,1.32,1.32,1.32,0,0,0,.42,1A1.63,1.63,0,0,0,926.61,32Z"/><path class="cls-1" d="M947.1,28.28a7.28,7.28,0,0,1-1.3,4.52,4.3,4.3,0,0,1-3.63,1.71,4.06,4.06,0,0,1-1.77-.37,3.63,3.63,0,0,1-1.32-1.08v6.08h-3.41V21.59h3.08l.2,1.5a4.06,4.06,0,0,1,1.35-1.28,3.66,3.66,0,0,1,1.85-.45,4.22,4.22,0,0,1,3.66,1.84A8.21,8.21,0,0,1,947.1,28ZM943.68,28a6.15,6.15,0,0,0-.6-2.91A2,2,0,0,0,941.26,24a2.58,2.58,0,0,0-1.32.32,2.26,2.26,0,0,0-.86.9v5.56a2.1,2.1,0,0,0,.86.82,2.9,2.9,0,0,0,1.34.28,2,2,0,0,0,1.82-1,5.15,5.15,0,0,0,.58-2.64Z"/><path class="cls-1" d="M953.06,21.59v10h3.45v-10h3.43v10h3.45v-10h3.42V34.27H949.63V21.59Z"/><path class="cls-1" d="M974.56,28.95l.14.7h.07l2.43-8.06h3.68l-5.14,14.58a6.71,6.71,0,0,1-1.46,2.29,3.76,3.76,0,0,1-2.78.93,4.29,4.29,0,0,1-.8-.07l-.9-.2.4-2.5.33,0,.32,0a1.87,1.87,0,0,0,1.3-.42,2.74,2.74,0,0,0,.7-1l.4-1-4.5-12.67h3.68Z"/><path class="cls-1" d="M666.41,236.14h-1.9v7.13h-3.42V226.21h3.42v7H666l4.52-7h4.18L669,234.15l6.2,9.12H671Z"/><path class="cls-1" d="M679.91,227.55h-3.42V225h3.42Zm0,15.71h-3.42V230.59h3.42Z"/><path class="cls-1" d="M693.71,230.59v12.68H690.3v-10h-3V236a10.35,10.35,0,0,1-1.15,5.52,4.32,4.32,0,0,1-3.93,1.77h-.55l0-2.7H682a1.45,1.45,0,0,0,1.52-1,12.22,12.22,0,0,0,.35-3.61v-5.4Z"/><path class="cls-1" d="M699.82,234.69h2.38a6.24,6.24,0,0,1,4,1.18,3.77,3.77,0,0,1,1.46,3.09,3.83,3.83,0,0,1-1.46,3.12,6.2,6.2,0,0,1-4,1.19h-5.81V230.59h3.43Zm0,2.64v3.3h2.38a2.27,2.27,0,0,0,1.56-.46,1.62,1.62,0,0,0,0-2.37,2.25,2.25,0,0,0-1.56-.47Z"/><path class="cls-1" d="M714.52,238.52h-1.31v4.75h-3.42V230.59h3.42v4.83h1.2l2.73-4.83h4.32l-4.14,6,4.51,6.7h-4.56Z"/><path class="cls-1" d="M726.64,227.55h-3.42V225h3.42Zm0,15.71h-3.42V230.59h3.42Z"/><path class="cls-1" d="M734.77,240.88a2,2,0,0,0,1.46-.53,1.89,1.89,0,0,0,.55-1.42h3.11l0,.07a4,4,0,0,1-1.45,3.22,6.09,6.09,0,0,1-8.08-.49,6.83,6.83,0,0,1-1.54-4.61v-.35a6.88,6.88,0,0,1,1.53-4.61,5.41,5.41,0,0,1,4.37-1.8,5.33,5.33,0,0,1,3.78,1.34,4.44,4.44,0,0,1,1.39,3.52l0,.07h-3.12a2.48,2.48,0,0,0-.54-1.63,1.83,1.83,0,0,0-1.49-.65,2,2,0,0,0-1.92,1.05,5.79,5.79,0,0,0-.56,2.71v.35a5.77,5.77,0,0,0,.56,2.73A2,2,0,0,0,734.77,240.88Z"/><path class="cls-1" d="M752.61,233.23h-4.05v10h-3.43v-10h-4v-2.64h11.48Z"/><path class="cls-1" d="M758,234.69h2.38a6.24,6.24,0,0,1,4,1.18,3.77,3.77,0,0,1,1.46,3.09,3.83,3.83,0,0,1-1.46,3.12,6.2,6.2,0,0,1-4,1.19h-5.81V230.59H758Zm0,2.64v3.3h2.38a2.27,2.27,0,0,0,1.56-.46,1.62,1.62,0,0,0,0-2.37,2.25,2.25,0,0,0-1.56-.47Z"/><path class="cls-1" d="M784.76,243.27h-3.42v-10h-4.2v10h-3.42V230.59h11Z"/><path class="cls-1" d="M798.77,237.28a7.28,7.28,0,0,1-1.3,4.52,4.3,4.3,0,0,1-3.63,1.71,4.06,4.06,0,0,1-1.77-.37,3.63,3.63,0,0,1-1.32-1.08v6.08h-3.41V230.59h3.08l.2,1.5a4.06,4.06,0,0,1,1.35-1.28,3.66,3.66,0,0,1,1.85-.45,4.22,4.22,0,0,1,3.66,1.84,8.21,8.21,0,0,1,1.3,4.84Zm-3.42-.26a6.15,6.15,0,0,0-.6-2.91,2,2,0,0,0-1.83-1.11,2.58,2.58,0,0,0-1.32.32,2.26,2.26,0,0,0-.86.9v5.56a2.1,2.1,0,0,0,.86.82,2.9,2.9,0,0,0,1.34.28,2,2,0,0,0,1.82-1,5.15,5.15,0,0,0,.58-2.64Z"/><path class="cls-1" d="M808.32,243.27a7.2,7.2,0,0,1-.32-.91,6.36,6.36,0,0,1-.19-1,4.72,4.72,0,0,1-1.39,1.54,3.47,3.47,0,0,1-2.06.61,4.28,4.28,0,0,1-3.07-1,3.67,3.67,0,0,1-1.08-2.79,3.34,3.34,0,0,1,1.44-2.89,7.17,7.17,0,0,1,4.19-1h1.91v-1a2,2,0,0,0-.48-1.42,2.24,2.24,0,0,0-2.7-.1,1.43,1.43,0,0,0-.45,1.12h-3.3v-.07a3.22,3.22,0,0,1,1.39-2.77,6.08,6.08,0,0,1,3.88-1.17,5.66,5.66,0,0,1,3.69,1.15,4,4,0,0,1,1.42,3.29V240a9.91,9.91,0,0,0,.13,1.68,8.41,8.41,0,0,0,.43,1.56ZM805.19,241a2.94,2.94,0,0,0,1.61-.45,2.32,2.32,0,0,0,.95-1v-1.79h-1.91a2.28,2.28,0,0,0-1.65.54,1.77,1.77,0,0,0-.56,1.32,1.32,1.32,0,0,0,.42,1A1.63,1.63,0,0,0,805.19,241Z"/><path class="cls-1" d="M813.94,243.27V230.59h5.3a7.38,7.38,0,0,1,3.94.89,2.93,2.93,0,0,1,1.41,2.65,2.36,2.36,0,0,1-.59,1.58,3.69,3.69,0,0,1-1.68,1.05,4,4,0,0,1,2.19,1.06,2.55,2.55,0,0,1,.74,1.82,3.06,3.06,0,0,1-1.34,2.71,6.81,6.81,0,0,1-3.85.91Zm3.42-7.51h2a2.56,2.56,0,0,0,1.4-.3,1,1,0,0,0,.45-.91,1.12,1.12,0,0,0-.48-1,2.68,2.68,0,0,0-1.46-.32h-1.87Zm0,2.23v2.68h2.7a2.18,2.18,0,0,0,1.34-.33,1.17,1.17,0,0,0,.43-1,1.25,1.25,0,0,0-.42-1,2.09,2.09,0,0,0-1.35-.35Z"/><path class="cls-1" d="M826.79,236.81a6.8,6.8,0,0,1,1.58-4.65,5.51,5.51,0,0,1,4.38-1.81,5.57,5.57,0,0,1,4.41,1.8,6.77,6.77,0,0,1,1.59,4.65v.25a6.78,6.78,0,0,1-1.59,4.66,6.27,6.27,0,0,1-8.79,0,6.78,6.78,0,0,1-1.59-4.66Zm3.41.24a5.5,5.5,0,0,0,.61,2.78,2.34,2.34,0,0,0,3.91,0,5.46,5.46,0,0,0,.62-2.77v-.25a5.41,5.41,0,0,0-.62-2.75,2.1,2.1,0,0,0-2-1.06,2.08,2.08,0,0,0-1.94,1.07,5.46,5.46,0,0,0-.62,2.74Z"/><path class="cls-1" d="M840.33,236.81a6.8,6.8,0,0,1,1.58-4.65,5.51,5.51,0,0,1,4.38-1.81,5.57,5.57,0,0,1,4.41,1.8,6.77,6.77,0,0,1,1.59,4.65v.25a6.78,6.78,0,0,1-1.59,4.66,6.27,6.27,0,0,1-8.79,0,6.78,6.78,0,0,1-1.59-4.66Zm3.41.24a5.5,5.5,0,0,0,.61,2.78,2.34,2.34,0,0,0,3.91,0,5.46,5.46,0,0,0,.62-2.77v-.25a5.41,5.41,0,0,0-.62-2.75,2.1,2.1,0,0,0-2-1.06,2.08,2.08,0,0,0-1.94,1.07,5.46,5.46,0,0,0-.62,2.74Z"/><path class="cls-1" d="M858.8,234.62h.07l1.95-4h3.87l-3.82,6.27,3.95,6.41H861l-2.07-4.21-2.07,4.21h-3.87l3.95-6.41-3.83-6.27h3.84Z"/><path class="cls-1" d="M865.43,236.81a6.8,6.8,0,0,1,1.58-4.65,5.51,5.51,0,0,1,4.38-1.81,5.57,5.57,0,0,1,4.41,1.8,6.77,6.77,0,0,1,1.59,4.65v.25a6.78,6.78,0,0,1-1.59,4.66,6.27,6.27,0,0,1-8.79,0,6.78,6.78,0,0,1-1.59-4.66Zm3.41.24a5.5,5.5,0,0,0,.61,2.78,2.34,2.34,0,0,0,3.91,0,5.46,5.46,0,0,0,.62-2.77v-.25a5.41,5.41,0,0,0-.62-2.75,2.1,2.1,0,0,0-2-1.06,2.08,2.08,0,0,0-1.94,1.07,5.46,5.46,0,0,0-.62,2.74Z"/><path class="cls-1" d="M890.95,237.28a7.28,7.28,0,0,1-1.3,4.52,4.3,4.3,0,0,1-3.63,1.71,4.06,4.06,0,0,1-1.77-.37,3.63,3.63,0,0,1-1.32-1.08v6.08h-3.41V230.59h3.08l.2,1.5a4.06,4.06,0,0,1,1.35-1.28,3.66,3.66,0,0,1,1.85-.45,4.22,4.22,0,0,1,3.66,1.84,8.21,8.21,0,0,1,1.3,4.84Zm-3.42-.26a6.15,6.15,0,0,0-.6-2.91A2,2,0,0,0,885.1,233a2.58,2.58,0,0,0-1.32.32,2.26,2.26,0,0,0-.86.9v5.56a2.1,2.1,0,0,0,.86.82,2.9,2.9,0,0,0,1.34.28,2,2,0,0,0,1.82-1,5.15,5.15,0,0,0,.58-2.64Z"/><path class="cls-1" d="M892.53,236.81a6.8,6.8,0,0,1,1.58-4.65,5.51,5.51,0,0,1,4.38-1.81,5.57,5.57,0,0,1,4.41,1.8,6.77,6.77,0,0,1,1.59,4.65v.25a6.78,6.78,0,0,1-1.59,4.66,6.27,6.27,0,0,1-8.79,0,6.78,6.78,0,0,1-1.59-4.66Zm3.41.24a5.5,5.5,0,0,0,.61,2.78,2.34,2.34,0,0,0,3.91,0,5.46,5.46,0,0,0,.62-2.77v-.25a5.41,5.41,0,0,0-.62-2.75,2.1,2.1,0,0,0-2-1.06,2.08,2.08,0,0,0-1.94,1.07,5.46,5.46,0,0,0-.62,2.74Z"/><path class="cls-1" d="M917.56,243.27h-3.42v-4.91H910v4.91h-3.42V230.59H910v5.13h4.17v-5.13h3.42Z"/><path class="cls-1" d="M931.11,243.27h-3.42v-4.91h-4.17v4.91h-3.42V230.59h3.42v5.13h4.17v-5.13h3.42Z"/><path class="cls-1" d="M941.27,230.59h3.41v12.68h-3.41v-7.73h-.07l-4.14,7.75h-3.42V230.59h3.42v7.71h.07Z"/><path class="cls-1" d="M952,234.62h.07l1.95-4h3.87l-3.82,6.27,3.95,6.41h-3.86l-2.07-4.21L950,243.27h-3.87l3.95-6.41-3.83-6.27h3.84Z"/><path class="cls-1" d="M964.95,236.81a6.8,6.8,0,0,1,1.58-4.65,5.51,5.51,0,0,1,4.38-1.81,5.57,5.57,0,0,1,4.41,1.8,6.77,6.77,0,0,1,1.59,4.65v.25a6.78,6.78,0,0,1-1.59,4.66,6.27,6.27,0,0,1-8.79,0,6.78,6.78,0,0,1-1.59-4.66Zm3.41.24a5.5,5.5,0,0,0,.61,2.78,2.34,2.34,0,0,0,3.91,0,5.46,5.46,0,0,0,.62-2.77v-.25a5.41,5.41,0,0,0-.62-2.75,2.1,2.1,0,0,0-2-1.06,2.08,2.08,0,0,0-1.94,1.07,5.46,5.46,0,0,0-.62,2.74Z"/><path class="cls-1" d="M990.46,237.28a7.28,7.28,0,0,1-1.3,4.52,4.3,4.3,0,0,1-3.63,1.71,4.06,4.06,0,0,1-1.77-.37,3.63,3.63,0,0,1-1.32-1.08v6.08H979V230.59h3.08l.2,1.5a4.06,4.06,0,0,1,1.35-1.28,3.66,3.66,0,0,1,1.85-.45,4.22,4.22,0,0,1,3.66,1.84,8.21,8.21,0,0,1,1.3,4.84ZM987,237a6.15,6.15,0,0,0-.6-2.91,2,2,0,0,0-1.83-1.11,2.58,2.58,0,0,0-1.32.32,2.26,2.26,0,0,0-.86.9v5.56a2.1,2.1,0,0,0,.86.82,2.9,2.9,0,0,0,1.34.28,2,2,0,0,0,1.82-1,5.15,5.15,0,0,0,.58-2.64Z"/><path class="cls-1" d="M1001.17,233.23h-5.24v10h-3.42V230.59h8.66Z"/><path class="cls-1" d="M1010,243.27a7.2,7.2,0,0,1-.32-.91,6.36,6.36,0,0,1-.19-1,4.72,4.72,0,0,1-1.39,1.54,3.47,3.47,0,0,1-2.06.61,4.28,4.28,0,0,1-3.07-1,3.67,3.67,0,0,1-1.08-2.79,3.34,3.34,0,0,1,1.44-2.89,7.17,7.17,0,0,1,4.19-1h1.91v-1a2,2,0,0,0-.48-1.42,2.24,2.24,0,0,0-2.7-.1,1.43,1.43,0,0,0-.45,1.12h-3.3v-.07a3.22,3.22,0,0,1,1.39-2.77,6.08,6.08,0,0,1,3.88-1.17,5.66,5.66,0,0,1,3.69,1.15,4,4,0,0,1,1.42,3.29V240a9.91,9.91,0,0,0,.13,1.68,8.41,8.41,0,0,0,.43,1.56ZM1006.9,241a2.94,2.94,0,0,0,1.61-.45,2.32,2.32,0,0,0,.95-1v-1.79h-1.91a2.28,2.28,0,0,0-1.65.54,1.77,1.77,0,0,0-.56,1.32,1.32,1.32,0,0,0,.42,1A1.63,1.63,0,0,0,1006.9,241Z"/><path class="cls-1" d="M1026.44,243.27H1023v-4.91h-4.17v4.91h-3.42V230.59h3.42v5.13H1023v-5.13h3.42Z"/><path class="cls-1" d="M1032.63,227.55h-3.42V225h3.42Zm0,15.71h-3.42V230.59h3.42Z"/><path class="cls-1" d="M1035.61,243.27V230.59h5.3a7.38,7.38,0,0,1,3.94.89,2.93,2.93,0,0,1,1.41,2.65,2.36,2.36,0,0,1-.59,1.58,3.69,3.69,0,0,1-1.68,1.05,4,4,0,0,1,2.19,1.06,2.55,2.55,0,0,1,.74,1.82,3.06,3.06,0,0,1-1.34,2.71,6.81,6.81,0,0,1-3.85.91Zm3.42-7.51h2a2.56,2.56,0,0,0,1.4-.3,1,1,0,0,0,.45-.91,1.12,1.12,0,0,0-.48-1,2.68,2.68,0,0,0-1.46-.32H1039Zm0,2.23v2.68h2.7a2.18,2.18,0,0,0,1.34-.33,1.17,1.17,0,0,0,.43-1,1.25,1.25,0,0,0-.42-1,2.09,2.09,0,0,0-1.35-.35Z"/><path class="cls-3" d="M693.39,83.88l3.36-.41V70h-3.4V67.7l7.38-1.34v17.1l3.36.41v2.39H693.39Z"/><path class="cls-3" d="M705.87,86.27V83.66l6.44-6.9a15.61,15.61,0,0,0,2-2.7,4.38,4.38,0,0,0,.59-2A3.08,3.08,0,0,0,714.2,70a2.38,2.38,0,0,0-1.92-.8,2.48,2.48,0,0,0-2.1.94,4,4,0,0,0-.72,2.5h-3.88l0-.08a6,6,0,0,1,1.77-4.56,6.64,6.64,0,0,1,5-1.87,6.94,6.94,0,0,1,4.84,1.6,5.48,5.48,0,0,1,1.76,4.27,6,6,0,0,1-1,3.34,31.44,31.44,0,0,1-3.29,4l-3.54,3.87,0,.07h5.17l.16-2h3v5Z"/><path class="cls-3" d="M735.14,78.52q0,4-1.81,6a6.94,6.94,0,0,1-9.84,0q-1.82-2-1.82-6V74.13a8.81,8.81,0,0,1,1.81-6,6.9,6.9,0,0,1,9.83,0,8.77,8.77,0,0,1,1.83,6Zm-4-4.8a6.55,6.55,0,0,0-.71-3.47,2.47,2.47,0,0,0-4.1,0,6.65,6.65,0,0,0-.7,3.47V78.9a6.66,6.66,0,0,0,.7,3.5,2.31,2.31,0,0,0,2.07,1.09,2.27,2.27,0,0,0,2-1.09,6.72,6.72,0,0,0,.7-3.5Z"/><path class="cls-3" d="M751.14,78.52q0,4-1.81,6a6.94,6.94,0,0,1-9.84,0q-1.82-2-1.82-6V74.13a8.81,8.81,0,0,1,1.81-6,6.9,6.9,0,0,1,9.83,0,8.77,8.77,0,0,1,1.83,6Zm-4-4.8a6.55,6.55,0,0,0-.71-3.47,2.47,2.47,0,0,0-4.1,0,6.65,6.65,0,0,0-.7,3.47V78.9a6.66,6.66,0,0,0,.7,3.5,2.31,2.31,0,0,0,2.07,1.09,2.27,2.27,0,0,0,2-1.09,6.72,6.72,0,0,0,.7-3.5Z"/><path class="cls-3" d="M693.39,126.88l3.36-.41V113h-3.4V110.7l7.38-1.34v17.1l3.36.41v2.39H693.39Z"/><path class="cls-3" d="M714.1,109.08a9.53,9.53,0,0,1,2.07.21,10.85,10.85,0,0,1,1.91.62l-.7,2.91a13.74,13.74,0,0,0-1.59-.46,7.94,7.94,0,0,0-1.67-.16,3.51,3.51,0,0,0-2.85,1.3,5.94,5.94,0,0,0-1.09,3.83l0,.07a4.61,4.61,0,0,1,1.7-1.09,6.38,6.38,0,0,1,2.3-.4,5.07,5.07,0,0,1,4.18,1.89,7.49,7.49,0,0,1,1.52,4.83,6.89,6.89,0,0,1-1.87,5,6.4,6.4,0,0,1-4.84,2,6.67,6.67,0,0,1-5.13-2.14,8.38,8.38,0,0,1-2-5.93V118a9.14,9.14,0,0,1,2.24-6.57A7.59,7.59,0,0,1,714.1,109.08Zm-.92,9.86a4.53,4.53,0,0,0-1.89.36,2.86,2.86,0,0,0-1.2,1v1.33a6.5,6.5,0,0,0,.85,3.64,2.62,2.62,0,0,0,2.28,1.27,2.27,2.27,0,0,0,2-1.13,4.83,4.83,0,0,0,.75-2.73,4.43,4.43,0,0,0-.75-2.68A2.37,2.37,0,0,0,713.19,118.93Z"/><path class="cls-3" d="M735.31,121.52q0,4-1.81,6a6.94,6.94,0,0,1-9.84,0q-1.82-2-1.82-6v-4.39a8.81,8.81,0,0,1,1.81-6,6.9,6.9,0,0,1,9.83,0,8.77,8.77,0,0,1,1.83,6Zm-4-4.8a6.55,6.55,0,0,0-.71-3.47,2.47,2.47,0,0,0-4.1,0,6.65,6.65,0,0,0-.7,3.47v5.18a6.66,6.66,0,0,0,.7,3.5,2.31,2.31,0,0,0,2.07,1.09,2.27,2.27,0,0,0,2-1.09,6.72,6.72,0,0,0,.7-3.5Z"/><path class="cls-3" d="M751.3,121.52q0,4-1.81,6a6.94,6.94,0,0,1-9.84,0q-1.82-2-1.82-6v-4.39a8.81,8.81,0,0,1,1.81-6,6.9,6.9,0,0,1,9.83,0,8.77,8.77,0,0,1,1.83,6Zm-4-4.8a6.55,6.55,0,0,0-.71-3.47,2.47,2.47,0,0,0-4.1,0,6.65,6.65,0,0,0-.7,3.47v5.18a6.66,6.66,0,0,0,.7,3.5,2.31,2.31,0,0,0,2.07,1.09,2.27,2.27,0,0,0,2-1.09,6.72,6.72,0,0,0,.7-3.5Z"/><rect class="cls-4" x="769.13" y="68.3" width="143.2" height="18"/><rect class="cls-4" x="769.57" y="111.3" width="190.93" height="18"/><path class="cls-1" d="M666.41,415.14h-1.9v7.13h-3.42V405.21h3.42v7H666l4.52-7h4.18L669,413.15l6.2,9.12H671Z"/><path class="cls-1" d="M680.39,406.55H677V404h3.42Zm0,15.71H677V409.59h3.42Z"/><path class="cls-1" d="M694.67,409.59v12.68h-3.41v-10h-3V415a10.35,10.35,0,0,1-1.15,5.52,4.32,4.32,0,0,1-3.93,1.77h-.55l0-2.7h.36a1.45,1.45,0,0,0,1.52-1,12.22,12.22,0,0,0,.35-3.61v-5.4Z"/><path class="cls-1" d="M701.26,413.69h2.38a6.24,6.24,0,0,1,4,1.18,3.77,3.77,0,0,1,1.46,3.09,3.83,3.83,0,0,1-1.46,3.12,6.2,6.2,0,0,1-4,1.19h-5.81V409.59h3.43Zm0,2.64v3.3h2.38a2.27,2.27,0,0,0,1.56-.46,1.62,1.62,0,0,0,0-2.37,2.25,2.25,0,0,0-1.56-.47Z"/><path class="cls-1" d="M716.44,417.52h-1.31v4.75h-3.42V409.59h3.42v4.83h1.2l2.73-4.83h4.32l-4.14,6,4.51,6.7h-4.56Z"/><path class="cls-1" d="M729,406.55h-3.42V404H729Zm0,15.71h-3.42V409.59H729Z"/><path class="cls-1" d="M737.65,419.88a2,2,0,0,0,1.46-.53,1.89,1.89,0,0,0,.55-1.42h3.11l0,.07a4,4,0,0,1-1.45,3.22,6.09,6.09,0,0,1-8.08-.49,6.83,6.83,0,0,1-1.54-4.61v-.35a6.88,6.88,0,0,1,1.53-4.61,5.41,5.41,0,0,1,4.37-1.8,5.33,5.33,0,0,1,3.78,1.34,4.44,4.44,0,0,1,1.39,3.52l0,.07h-3.12a2.48,2.48,0,0,0-.54-1.63,1.83,1.83,0,0,0-1.49-.65,2,2,0,0,0-1.92,1.05,5.8,5.8,0,0,0-.56,2.71v.35a5.77,5.77,0,0,0,.56,2.73A2,2,0,0,0,737.65,419.88Z"/><path class="cls-1" d="M756,412.23h-4.05v10h-3.43v-10h-4v-2.64H756Z"/><path class="cls-1" d="M761.88,413.69h2.38a6.24,6.24,0,0,1,4,1.18,3.77,3.77,0,0,1,1.46,3.09,3.83,3.83,0,0,1-1.46,3.12,6.2,6.2,0,0,1-4,1.19h-5.81V409.59h3.43Zm0,2.64v3.3h2.38a2.27,2.27,0,0,0,1.56-.46,1.62,1.62,0,0,0,0-2.37,2.25,2.25,0,0,0-1.56-.47Z"/><path class="cls-1" d="M783.51,417.52H782.2v4.75h-3.42V409.59h3.42v4.83h1.2l2.73-4.83h4.32l-4.14,6,4.51,6.7h-4.56Z"/><path class="cls-1" d="M791.6,415.81a6.8,6.8,0,0,1,1.58-4.65,5.51,5.51,0,0,1,4.38-1.81,5.57,5.57,0,0,1,4.41,1.8,6.77,6.77,0,0,1,1.59,4.65v.25a6.78,6.78,0,0,1-1.59,4.66,6.27,6.27,0,0,1-8.79,0,6.78,6.78,0,0,1-1.59-4.66Zm3.41.24a5.5,5.5,0,0,0,.61,2.78,2.34,2.34,0,0,0,3.91,0,5.47,5.47,0,0,0,.62-2.77v-.25a5.41,5.41,0,0,0-.62-2.75,2.1,2.1,0,0,0-2-1.06,2.08,2.08,0,0,0-1.94,1.07,5.46,5.46,0,0,0-.62,2.74Z"/><path class="cls-1" d="M817.11,422.27h-3.42v-4.91h-4.17v4.91H806.1V409.59h3.42v5.13h4.17v-5.13h3.42Z"/><path class="cls-1" d="M830.92,412.23h-4.05v10h-3.43v-10h-4v-2.64h11.48Z"/><path class="cls-1" d="M844.64,416.28a7.28,7.28,0,0,1-1.3,4.52,4.3,4.3,0,0,1-3.63,1.71,4.06,4.06,0,0,1-1.77-.37,3.63,3.63,0,0,1-1.32-1.08v6.08H833.2V409.59h3.08l.2,1.5a4.06,4.06,0,0,1,1.35-1.28,3.66,3.66,0,0,1,1.85-.45,4.22,4.22,0,0,1,3.66,1.84,8.21,8.21,0,0,1,1.3,4.84Zm-3.42-.26a6.15,6.15,0,0,0-.6-2.91,2,2,0,0,0-1.83-1.12,2.58,2.58,0,0,0-1.32.32,2.27,2.27,0,0,0-.86.9v5.56a2.1,2.1,0,0,0,.86.82,2.9,2.9,0,0,0,1.34.28,2,2,0,0,0,1.82-1,5.15,5.15,0,0,0,.58-2.64Z"/><path class="cls-1" d="M853.85,416.29h-6.61v-2.64h6.61Z"/><path class="cls-1" d="M857.27,419.61a6.58,6.58,0,0,0,1.58-2.38,11.83,11.83,0,0,0,.46-3.37l.06-4.27h9.35v10h1.83l-.23,6.43h-3.18v-3.8h-7.49v3.8h-3.19l-.29-6.46Zm5.45-5.74a14.92,14.92,0,0,1-.47,3.3,8.77,8.77,0,0,1-1.06,2.45h4.13v-7.3h-2.57Z"/><path class="cls-1" d="M878.36,422.52a5.71,5.71,0,0,1-4.38-1.76,6.29,6.29,0,0,1-1.64-4.46v-.47a6.94,6.94,0,0,1,1.55-4.65,5.79,5.79,0,0,1,8.15-.27,6,6,0,0,1,1.42,4.18v1.86h-7.57l0,.07a3.29,3.29,0,0,0,.84,2.05,2.62,2.62,0,0,0,2,.8,6.58,6.58,0,0,0,1.89-.23,8.67,8.67,0,0,0,1.64-.72l.93,2.11a6.29,6.29,0,0,1-2,1.05A8.77,8.77,0,0,1,878.36,422.52Zm-.3-10.52a1.78,1.78,0,0,0-1.5.73,3.78,3.78,0,0,0-.68,1.91l0,.06h4.2v-.3a2.74,2.74,0,0,0-.51-1.74A1.84,1.84,0,0,0,878.06,412Z"/><path class="cls-1" d="M893.6,418.28h.07l3.27-8.7h4.28v12.68H897.8V414.7h-.07l-2.94,7.58h-2.3l-2.87-7.42h-.07v7.41h-3.42V409.59h4.24Z"/><path class="cls-1" d="M904.13,415.81a6.8,6.8,0,0,1,1.58-4.65,5.51,5.51,0,0,1,4.38-1.81,5.57,5.57,0,0,1,4.41,1.8,6.77,6.77,0,0,1,1.59,4.65v.25a6.78,6.78,0,0,1-1.59,4.66,6.27,6.27,0,0,1-8.79,0,6.78,6.78,0,0,1-1.59-4.66Zm3.41.24a5.5,5.5,0,0,0,.61,2.78,2.34,2.34,0,0,0,3.91,0,5.47,5.47,0,0,0,.62-2.77v-.25a5.41,5.41,0,0,0-.62-2.75,2.1,2.1,0,0,0-2-1.06,2.08,2.08,0,0,0-1.94,1.07,5.46,5.46,0,0,0-.62,2.74Z"/><path class="cls-1" d="M929.64,422.27h-3.42v-4.91H922v4.91h-3.42V409.59H922v5.13h4.17v-5.13h3.42Z"/><path class="cls-1" d="M938,419.88a2,2,0,0,0,1.46-.53,1.89,1.89,0,0,0,.55-1.42h3.11l0,.07a4,4,0,0,1-1.45,3.22,6.09,6.09,0,0,1-8.08-.49,6.83,6.83,0,0,1-1.54-4.61v-.35a6.88,6.88,0,0,1,1.53-4.61,5.41,5.41,0,0,1,4.37-1.8,5.33,5.33,0,0,1,3.78,1.34,4.44,4.44,0,0,1,1.39,3.52l0,.07H940a2.48,2.48,0,0,0-.54-1.63A1.83,1.83,0,0,0,938,412a2,2,0,0,0-1.92,1.05,5.8,5.8,0,0,0-.56,2.71v.35a5.77,5.77,0,0,0,.56,2.73A2,2,0,0,0,938,419.88Z"/><path class="cls-1" d="M956.35,412.23h-4.05v10h-3.43v-10h-4v-2.64h11.48Z"/><path class="cls-1" d="M970.07,416.28a7.28,7.28,0,0,1-1.3,4.52,4.3,4.3,0,0,1-3.63,1.71,4.06,4.06,0,0,1-1.77-.37,3.63,3.63,0,0,1-1.32-1.08v6.08h-3.41V409.59h3.08l.2,1.5a4.06,4.06,0,0,1,1.35-1.28,3.66,3.66,0,0,1,1.85-.45,4.22,4.22,0,0,1,3.66,1.84,8.21,8.21,0,0,1,1.3,4.84Zm-3.42-.26a6.15,6.15,0,0,0-.6-2.91,2,2,0,0,0-1.83-1.12,2.58,2.58,0,0,0-1.32.32,2.27,2.27,0,0,0-.86.9v5.56a2.1,2.1,0,0,0,.86.82,2.9,2.9,0,0,0,1.34.28,2,2,0,0,0,1.82-1,5.15,5.15,0,0,0,.58-2.64Z"/><path class="cls-1" d="M980.1,422.27a7.2,7.2,0,0,1-.32-.91,6.36,6.36,0,0,1-.19-1,4.72,4.72,0,0,1-1.39,1.54,3.47,3.47,0,0,1-2.06.61,4.28,4.28,0,0,1-3.07-1A3.67,3.67,0,0,1,972,418.7a3.34,3.34,0,0,1,1.44-2.89,7.17,7.17,0,0,1,4.19-1h1.91v-1a2,2,0,0,0-.48-1.42,2.24,2.24,0,0,0-2.7-.1,1.43,1.43,0,0,0-.45,1.12h-3.3v-.07a3.22,3.22,0,0,1,1.39-2.77,6.08,6.08,0,0,1,3.88-1.17,5.66,5.66,0,0,1,3.69,1.15A4,4,0,0,1,983,413.8V419a9.91,9.91,0,0,0,.13,1.68,8.41,8.41,0,0,0,.43,1.56ZM977,420a2.94,2.94,0,0,0,1.61-.45,2.32,2.32,0,0,0,.95-1v-1.79h-1.91a2.28,2.28,0,0,0-1.65.54,1.77,1.77,0,0,0-.56,1.32,1.32,1.32,0,0,0,.42,1A1.63,1.63,0,0,0,977,420Z"/><path class="cls-1" d="M997,422.27h-3.42v-4.91h-4.17v4.91H986V409.59h3.42v5.13h4.17v-5.13H997Z"/><path class="cls-1" d="M1010.79,412.23h-4.05v10h-3.43v-10h-4v-2.64h11.48Z"/><path class="cls-1" d="M1016.67,406.55h-3.42V404h3.42Zm0,15.71h-3.42V409.59h3.42Z"/><path class="cls-1" d="M1020.14,422.27V409.59h5.3a7.38,7.38,0,0,1,3.94.89,2.93,2.93,0,0,1,1.41,2.65,2.36,2.36,0,0,1-.59,1.58,3.69,3.69,0,0,1-1.68,1.05,4,4,0,0,1,2.19,1.06,2.55,2.55,0,0,1,.74,1.82,3.06,3.06,0,0,1-1.34,2.71,6.81,6.81,0,0,1-3.85.91Zm3.42-7.51h2a2.56,2.56,0,0,0,1.4-.3,1,1,0,0,0,.45-.91,1.12,1.12,0,0,0-.48-1,2.68,2.68,0,0,0-1.46-.32h-1.87Zm0,2.23v2.68h2.7a2.18,2.18,0,0,0,1.34-.33,1.17,1.17,0,0,0,.43-1,1.25,1.25,0,0,0-.42-1,2.09,2.09,0,0,0-1.35-.35Z"/><circle class="cls-5" cx="42" cy="408.8" r="26"/><circle class="cls-6" cx="42" cy="408.8" r="33"/><circle class="cls-7" cx="42" cy="408.8" r="41"/><line class="cls-5" x1="42" y1="387.8" x2="42" y2="393.8"/><line class="cls-5" x1="42" y1="425.3" x2="42" y2="431.3"/><line class="cls-5" x1="20.25" y1="409.55" x2="26.25" y2="409.55"/><line class="cls-5" x1="57.75" y1="409.55" x2="63.75" y2="409.55"/><circle class="cls-5" cx="42" cy="408.8" r="2"/><line class="cls-5" x1="53" y1="392.8" x2="42" y2="408.8"/><path class="cls-4" d="M1031.45,122.39H1035V124h-3.51v4h-1.73v-4h-3.53v-1.56h3.53v-3.72h1.73Z"/><path class="cls-4" d="M1039.12,122.07h1.51a2,2,0,0,0,1.63-.58,2.44,2.44,0,0,0,.48-1.6,2.33,2.33,0,0,0-.54-1.67,2.12,2.12,0,0,0-1.61-.57,2.23,2.23,0,0,0-1.62.59,2.1,2.1,0,0,0-.61,1.58h-1.66l0-.05a3.1,3.1,0,0,1,1.05-2.47,4,4,0,0,1,2.86-1,4.08,4.08,0,0,1,2.83.94,3.43,3.43,0,0,1,1.05,2.69,3.08,3.08,0,0,1-1.92,2.78,2.81,2.81,0,0,1,1.63,1.19,3.79,3.79,0,0,1-.67,4.56,4.29,4.29,0,0,1-2.93,1,4.4,4.4,0,0,1-2.9-.94,3,3,0,0,1-1.1-2.56l0-.05h1.65a2.11,2.11,0,0,0,.62,1.6,2.35,2.35,0,0,0,1.7.6,2.39,2.39,0,0,0,1.72-.6,2.32,2.32,0,0,0,.62-1.76,2,2,0,0,0-2.3-2.3h-1.51Z"/><path class="cls-4" d="M1049.26,122.07h1.51a2,2,0,0,0,1.63-.58,2.43,2.43,0,0,0,.48-1.6,2.33,2.33,0,0,0-.54-1.67,2.12,2.12,0,0,0-1.61-.57,2.23,2.23,0,0,0-1.62.59,2.1,2.1,0,0,0-.61,1.58h-1.66l0-.05a3.1,3.1,0,0,1,1-2.47,4,4,0,0,1,2.86-1,4.08,4.08,0,0,1,2.83.94,3.43,3.43,0,0,1,1.05,2.69,3.07,3.07,0,0,1-1.92,2.78,2.82,2.82,0,0,1,1.63,1.19,3.79,3.79,0,0,1-.67,4.56,4.3,4.3,0,0,1-2.93,1,4.41,4.41,0,0,1-2.9-.94,3,3,0,0,1-1.1-2.56l0-.05h1.65a2.12,2.12,0,0,0,.62,1.6,2.35,2.35,0,0,0,1.7.6,2.39,2.39,0,0,0,1.72-.6,2.32,2.32,0,0,0,.62-1.76,2,2,0,0,0-2.3-2.3h-1.51Z"/><path class="cls-4" d="M1058.75,128.85l-1.32,2.69h-1l.62-2.78v-1.43h1.73Z"/><path class="cls-4" d="M1062.94,122.07h1.51a2,2,0,0,0,1.63-.58,2.44,2.44,0,0,0,.48-1.6,2.33,2.33,0,0,0-.54-1.67,2.12,2.12,0,0,0-1.61-.57,2.23,2.23,0,0,0-1.62.59,2.1,2.1,0,0,0-.61,1.58h-1.66l0-.05a3.1,3.1,0,0,1,1.05-2.47,4,4,0,0,1,2.86-1,4.08,4.08,0,0,1,2.83.94,3.43,3.43,0,0,1,1.05,2.69,3.08,3.08,0,0,1-1.92,2.78,2.81,2.81,0,0,1,1.63,1.19,3.79,3.79,0,0,1-.67,4.56,4.29,4.29,0,0,1-2.93,1,4.4,4.4,0,0,1-2.9-.94,3,3,0,0,1-1.1-2.56l0-.05h1.65a2.11,2.11,0,0,0,.62,1.6,2.35,2.35,0,0,0,1.7.6,2.39,2.39,0,0,0,1.72-.6,2.32,2.32,0,0,0,.62-1.76,2,2,0,0,0-2.3-2.3h-1.51Z"/><path class="cls-4" d="M1070.58,118.93a2.64,2.64,0,0,1,.72-1.88,2.81,2.81,0,0,1,3.85,0,2.63,2.63,0,0,1,.72,1.89v.68a2.62,2.62,0,0,1-.72,1.87,2.51,2.51,0,0,1-1.91.76,2.56,2.56,0,0,1-1.94-.76,2.6,2.6,0,0,1-.73-1.87Zm1.28.68a1.72,1.72,0,0,0,.36,1.1,1.22,1.22,0,0,0,1,.45,1.19,1.19,0,0,0,1-.45,1.74,1.74,0,0,0,.35-1.11v-.68a1.76,1.76,0,0,0-.36-1.11,1.33,1.33,0,0,0-2,0,1.78,1.78,0,0,0-.35,1.11Zm1.83,8.69-1-.59,6.25-10,1,.59Zm3.08-2.17a2.62,2.62,0,0,1,.72-1.88,2.81,2.81,0,0,1,3.85,0,2.62,2.62,0,0,1,.72,1.88v.69a2.62,2.62,0,0,1-.72,1.88,2.51,2.51,0,0,1-1.91.76,2.56,2.56,0,0,1-1.94-.76,2.61,2.61,0,0,1-.72-1.88Zm1.28.69a1.75,1.75,0,0,0,.36,1.11,1.23,1.23,0,0,0,1,.45,1.18,1.18,0,0,0,1-.45,1.76,1.76,0,0,0,.35-1.11v-.69a1.73,1.73,0,0,0-.36-1.11,1.33,1.33,0,0,0-2,0,1.75,1.75,0,0,0-.36,1.11Z"/><path class="cls-2" d="M969.83,296.27h-8.3v-1.19l4.19-4.65a11.7,11.7,0,0,0,1.52-2,3.13,3.13,0,0,0,.4-1.51,2.4,2.4,0,0,0-.56-1.61,1.85,1.85,0,0,0-1.48-.65,2.53,2.53,0,0,0-2,.68,2.71,2.71,0,0,0-.63,1.91h-1.66l0-.05a3.6,3.6,0,0,1,1.1-2.78,4.31,4.31,0,0,1,3.16-1.12,3.74,3.74,0,0,1,2.75,1,3.43,3.43,0,0,1,1,2.56,4.09,4.09,0,0,1-.62,2.1,13.45,13.45,0,0,1-1.74,2.25l-3.37,3.66,0,0h6.15Z"/><path class="cls-2" d="M979.77,291.39a5.74,5.74,0,0,1-1.08,3.76,4.05,4.05,0,0,1-6,0,5.69,5.69,0,0,1-1.1-3.75v-3a5.73,5.73,0,0,1,1.09-3.76,4,4,0,0,1,6,0,5.72,5.72,0,0,1,1.09,3.76ZM978,288a4.28,4.28,0,0,0-.6-2.5,2.23,2.23,0,0,0-3.49,0,4.3,4.3,0,0,0-.6,2.5v3.75a4.29,4.29,0,0,0,.61,2.51,2,2,0,0,0,1.75.85,2,2,0,0,0,1.74-.84,4.35,4.35,0,0,0,.59-2.51Z"/><path class="cls-2" d="M986.76,296.27H985V285.16l-2.62,0v-1.25l4.35-.47Z"/><path class="cls-2" d="M996.84,283.29a5.78,5.78,0,0,1,1.31.15,4.3,4.3,0,0,1,1.07.38l-.37,1.33a5,5,0,0,0-.9-.36,3.94,3.94,0,0,0-1.1-.14,2.65,2.65,0,0,0-2.21,1.1,4.59,4.59,0,0,0-.84,2.87v.2a4.26,4.26,0,0,1,1.29-.77,4.36,4.36,0,0,1,1.56-.28,3.42,3.42,0,0,1,2.73,1.19,4.45,4.45,0,0,1,1,3,4.77,4.77,0,0,1-1.08,3.24,3.64,3.64,0,0,1-2.9,1.25,4,4,0,0,1-3.11-1.36,5.53,5.53,0,0,1-1.23-3.84v-2.44a5.75,5.75,0,0,1,1.37-4A4.38,4.38,0,0,1,996.84,283.29Zm-.59,5.77a3,3,0,0,0-1.51.36,2.44,2.44,0,0,0-.95,1v1a4.33,4.33,0,0,0,.75,2.72,2.28,2.28,0,0,0,1.87,1,1.88,1.88,0,0,0,1.66-.9,4,4,0,0,0,.59-2.23,3.28,3.28,0,0,0-.64-2.08A2.12,2.12,0,0,0,996.25,289.06Z"/><path class="cls-2" d="M939.83,343.27h-8.3v-1.19l4.19-4.65a11.7,11.7,0,0,0,1.52-2,3.13,3.13,0,0,0,.4-1.51,2.4,2.4,0,0,0-.56-1.61,1.85,1.85,0,0,0-1.48-.65,2.53,2.53,0,0,0-2,.68,2.71,2.71,0,0,0-.63,1.91h-1.66l0-.05a3.6,3.6,0,0,1,1.1-2.78,4.31,4.31,0,0,1,3.16-1.12,3.74,3.74,0,0,1,2.75,1,3.43,3.43,0,0,1,1,2.56,4.09,4.09,0,0,1-.62,2.1,13.45,13.45,0,0,1-1.74,2.25l-3.37,3.66,0,0h6.15Z"/><path class="cls-2" d="M949.77,338.39a5.74,5.74,0,0,1-1.08,3.76,4.05,4.05,0,0,1-6,0,5.69,5.69,0,0,1-1.1-3.75v-3a5.73,5.73,0,0,1,1.09-3.76,4,4,0,0,1,6,0,5.72,5.72,0,0,1,1.09,3.76ZM948,335a4.28,4.28,0,0,0-.6-2.5,2.23,2.23,0,0,0-3.49,0,4.3,4.3,0,0,0-.6,2.5v3.75a4.29,4.29,0,0,0,.61,2.51,2,2,0,0,0,1.75.85,2,2,0,0,0,1.74-.84,4.35,4.35,0,0,0,.59-2.51Z"/><path class="cls-2" d="M956.76,343.27H955V332.16l-2.62,0v-1.25l4.35-.47Z"/><path class="cls-2" d="M970.24,331.83a18,18,0,0,0-3.13,4.89,21.77,21.77,0,0,0-1.17,5.16l-.14,1.38h-1.73l.14-1.38a18.79,18.79,0,0,1,1.43-5.41,20.85,20.85,0,0,1,2.91-4.65h-7v-1.36h8.66Z"/><path class="cls-3" d="M701.73,280.08a9.5,9.5,0,0,1,2.07.21,10.85,10.85,0,0,1,1.91.62l-.7,2.91a13.64,13.64,0,0,0-1.59-.46,7.94,7.94,0,0,0-1.67-.16,3.51,3.51,0,0,0-2.85,1.3,5.94,5.94,0,0,0-1.09,3.83l0,.07a4.61,4.61,0,0,1,1.7-1.09,6.4,6.4,0,0,1,2.3-.4,5.07,5.07,0,0,1,4.18,1.89,7.49,7.49,0,0,1,1.52,4.83,6.88,6.88,0,0,1-1.87,5,6.4,6.4,0,0,1-4.84,2,6.67,6.67,0,0,1-5.13-2.14,8.38,8.38,0,0,1-2-5.93V289a9.14,9.14,0,0,1,2.24-6.57A7.59,7.59,0,0,1,701.73,280.08Zm-.92,9.86a4.54,4.54,0,0,0-1.89.36,2.86,2.86,0,0,0-1.2,1v1.33a6.5,6.5,0,0,0,.85,3.64,2.62,2.62,0,0,0,2.28,1.27,2.27,2.27,0,0,0,2-1.13,4.83,4.83,0,0,0,.75-2.73,4.43,4.43,0,0,0-.75-2.68A2.37,2.37,0,0,0,700.81,289.93Z"/><path class="cls-3" d="M722.93,292.52q0,4-1.81,6a6.94,6.94,0,0,1-9.84,0q-1.82-2-1.82-6v-4.39a8.81,8.81,0,0,1,1.81-6,6.9,6.9,0,0,1,9.83,0,8.77,8.77,0,0,1,1.83,6Zm-4-4.8a6.55,6.55,0,0,0-.71-3.47,2.47,2.47,0,0,0-4.1,0,6.65,6.65,0,0,0-.7,3.47v5.18a6.66,6.66,0,0,0,.7,3.5,2.31,2.31,0,0,0,2.07,1.09,2.27,2.27,0,0,0,2-1.09,6.72,6.72,0,0,0,.7-3.5Z"/><path class="cls-3" d="M738.93,292.52q0,4-1.81,6a6.94,6.94,0,0,1-9.84,0q-1.82-2-1.82-6v-4.39a8.81,8.81,0,0,1,1.81-6,6.9,6.9,0,0,1,9.83,0,8.77,8.77,0,0,1,1.83,6Zm-4-4.8a6.55,6.55,0,0,0-.71-3.47,2.47,2.47,0,0,0-4.1,0,6.65,6.65,0,0,0-.7,3.47v5.18a6.66,6.66,0,0,0,.7,3.5,2.31,2.31,0,0,0,2.07,1.09,2.27,2.27,0,0,0,2-1.09,6.72,6.72,0,0,0,.7-3.5Z"/><path class="cls-3" d="M754.93,292.52q0,4-1.81,6a6.94,6.94,0,0,1-9.84,0q-1.82-2-1.82-6v-4.39a8.81,8.81,0,0,1,1.81-6,6.9,6.9,0,0,1,9.83,0,8.77,8.77,0,0,1,1.83,6Zm-4-4.8a6.55,6.55,0,0,0-.71-3.47,2.47,2.47,0,0,0-4.1,0,6.65,6.65,0,0,0-.7,3.47v5.18a6.66,6.66,0,0,0,.7,3.5,2.31,2.31,0,0,0,2.07,1.09,2.27,2.27,0,0,0,2-1.09,6.72,6.72,0,0,0,.7-3.5Z"/><path class="cls-3" d="M705.28,335.86h2.26v2.65h-2.26v2l2.12.41v2.39h-8.23v-2.39l2.13-.41v-2h-8.12l-.19-2,8.27-13.19h4Zm-8.56,0h4.58v-7.18l-.08,0-.33.57Z"/><path class="cls-3" d="M715.13,340.49a3.16,3.16,0,0,0,2.58-1.22,5.77,5.77,0,0,0,1-3.67v-.3a4.44,4.44,0,0,1-1.6,1.31,4.58,4.58,0,0,1-2,.44,5.49,5.49,0,0,1-4.37-1.83,7.42,7.42,0,0,1-1.59-5,7.17,7.17,0,0,1,1.89-5.07,6.25,6.25,0,0,1,4.79-2,6.37,6.37,0,0,1,4.95,2.1,8.48,8.48,0,0,1,1.9,5.9v4.32a8.21,8.21,0,0,1-2.11,6,7.29,7.29,0,0,1-5.43,2.15,11.27,11.27,0,0,1-2.14-.21,9.45,9.45,0,0,1-2-.62l.45-2.88a10.37,10.37,0,0,0,1.78.5A10.9,10.9,0,0,0,715.13,340.49Zm.64-6.37a3.82,3.82,0,0,0,1.74-.38,3.12,3.12,0,0,0,1.18-1v-2.13a6,6,0,0,0-.77-3.32,2.39,2.39,0,0,0-2.08-1.13,2.26,2.26,0,0,0-2,1.18,5.17,5.17,0,0,0-.76,2.85,5.31,5.31,0,0,0,.68,2.87A2.18,2.18,0,0,0,715.77,334.12Z"/><path class="cls-3" d="M738.67,335.52q0,4-1.81,6a6.94,6.94,0,0,1-9.84,0q-1.82-2-1.82-6v-4.39a8.81,8.81,0,0,1,1.81-6,6.9,6.9,0,0,1,9.83,0,8.77,8.77,0,0,1,1.83,6Zm-4-4.8a6.55,6.55,0,0,0-.71-3.47,2.47,2.47,0,0,0-4.1,0,6.65,6.65,0,0,0-.7,3.47v5.18a6.66,6.66,0,0,0,.7,3.5,2.31,2.31,0,0,0,2.07,1.09,2.27,2.27,0,0,0,2-1.09,6.72,6.72,0,0,0,.7-3.5Z"/><path class="cls-3" d="M754.67,335.52q0,4-1.81,6a6.94,6.94,0,0,1-9.84,0q-1.82-2-1.82-6v-4.39a8.81,8.81,0,0,1,1.81-6,6.9,6.9,0,0,1,9.83,0,8.77,8.77,0,0,1,1.83,6Zm-4-4.8a6.55,6.55,0,0,0-.71-3.47,2.47,2.47,0,0,0-4.1,0,6.65,6.65,0,0,0-.7,3.47v5.18a6.66,6.66,0,0,0,.7,3.5,2.31,2.31,0,0,0,2.07,1.09,2.27,2.27,0,0,0,2-1.09,6.72,6.72,0,0,0,.7-3.5Z"/><rect class="cls-4" x="774.14" y="282.3" width="172.36" height="18"/><rect class="cls-4" x="773.5" y="325.3" width="140.76" height="18"/><path class="cls-4" d="M993.63,337.57h-9.54v-1.36h9.54Z"/><path class="cls-4" d="M1000.93,343.27H999.2V332.16l-2.62,0v-1.25l4.35-.47Z"/><path class="cls-4" d="M1014,333.81a2.85,2.85,0,0,1-.56,1.75,3.36,3.36,0,0,1-1.52,1.12,3.84,3.84,0,0,1,1.77,1.21,3,3,0,0,1,.66,1.91,3.29,3.29,0,0,1-1.16,2.71,5.32,5.32,0,0,1-6,0,3.29,3.29,0,0,1-1.15-2.71,3,3,0,0,1,.65-1.91,3.75,3.75,0,0,1,1.76-1.21,3.25,3.25,0,0,1-1.5-1.12,2.91,2.91,0,0,1-.54-1.75,3.29,3.29,0,0,1,1-2.61,4,4,0,0,1,2.76-.92,4.07,4.07,0,0,1,2.76.92A3.25,3.25,0,0,1,1014,333.81Zm-1.37,6a2.31,2.31,0,0,0-.69-1.73,2.41,2.41,0,0,0-1.76-.68,2.31,2.31,0,0,0-2.43,2.4,2.21,2.21,0,0,0,.67,1.71,2.82,2.82,0,0,0,3.53,0A2.2,2.2,0,0,0,1012.58,339.77Zm-.36-5.92a2.19,2.19,0,0,0-.59-1.57,2.13,2.13,0,0,0-3,0,2.22,2.22,0,0,0-.57,1.6,2.15,2.15,0,0,0,.58,1.56,2.21,2.21,0,0,0,3,0A2.13,2.13,0,0,0,1012.22,333.85Z"/><path class="cls-4" d="M1018,342.85l-1.32,2.69h-1l.62-2.78v-1.43H1018Z"/><path class="cls-4" d="M1022.17,336.07h1.51a2,2,0,0,0,1.63-.58,2.45,2.45,0,0,0,.48-1.6,2.33,2.33,0,0,0-.54-1.67,2.12,2.12,0,0,0-1.61-.57,2.23,2.23,0,0,0-1.62.59,2.1,2.1,0,0,0-.61,1.58h-1.66l0-.05a3.1,3.1,0,0,1,1.05-2.47,4,4,0,0,1,2.86-1,4.09,4.09,0,0,1,2.83.94,3.43,3.43,0,0,1,1.05,2.69,3.08,3.08,0,0,1-1.92,2.78,2.81,2.81,0,0,1,1.63,1.19,3.79,3.79,0,0,1-.67,4.56,4.29,4.29,0,0,1-2.93,1,4.41,4.41,0,0,1-2.9-.94,3,3,0,0,1-1.1-2.56l0-.05h1.65a2.11,2.11,0,0,0,.62,1.6,2.35,2.35,0,0,0,1.7.6,2.39,2.39,0,0,0,1.72-.6,2.32,2.32,0,0,0,.62-1.76,2,2,0,0,0-2.3-2.3h-1.51Z"/><path class="cls-4" d="M1029.81,332.93a2.64,2.64,0,0,1,.72-1.88,2.81,2.81,0,0,1,3.85,0,2.63,2.63,0,0,1,.72,1.88v.68a2.62,2.62,0,0,1-.72,1.87,2.51,2.51,0,0,1-1.91.76,2.56,2.56,0,0,1-1.94-.76,2.6,2.6,0,0,1-.73-1.87Zm1.28.68a1.72,1.72,0,0,0,.36,1.1,1.22,1.22,0,0,0,1,.45,1.19,1.19,0,0,0,1-.45,1.74,1.74,0,0,0,.35-1.11v-.68a1.76,1.76,0,0,0-.36-1.11,1.33,1.33,0,0,0-2,0,1.78,1.78,0,0,0-.35,1.11Zm1.83,8.69-1-.59,6.25-10,1,.59Zm3.08-2.17a2.62,2.62,0,0,1,.72-1.88,2.81,2.81,0,0,1,3.85,0,2.62,2.62,0,0,1,.72,1.88v.69a2.62,2.62,0,0,1-.72,1.88,2.51,2.51,0,0,1-1.91.76,2.56,2.56,0,0,1-1.94-.76,2.61,2.61,0,0,1-.72-1.88Zm1.28.69a1.75,1.75,0,0,0,.36,1.11,1.23,1.23,0,0,0,1,.45,1.19,1.19,0,0,0,1-.45,1.76,1.76,0,0,0,.35-1.11v-.69a1.73,1.73,0,0,0-.36-1.11,1.33,1.33,0,0,0-2,0,1.75,1.75,0,0,0-.36,1.11Z"/><path class="cls-2" d="M986.83,475.27h-8.3v-1.19l4.19-4.65a11.7,11.7,0,0,0,1.52-2,3.13,3.13,0,0,0,.4-1.51,2.4,2.4,0,0,0-.56-1.61,1.85,1.85,0,0,0-1.48-.65,2.53,2.53,0,0,0-2,.68,2.71,2.71,0,0,0-.63,1.91h-1.66l0-.05a3.6,3.6,0,0,1,1.1-2.78,4.31,4.31,0,0,1,3.16-1.12,3.74,3.74,0,0,1,2.75,1,3.43,3.43,0,0,1,1,2.56,4.09,4.09,0,0,1-.62,2.1,13.45,13.45,0,0,1-1.74,2.25l-3.37,3.66,0,0h6.15Z"/><path class="cls-2" d="M996.77,470.39a5.74,5.74,0,0,1-1.08,3.76,4.05,4.05,0,0,1-6,0,5.69,5.69,0,0,1-1.1-3.75v-3a5.73,5.73,0,0,1,1.09-3.76,4,4,0,0,1,6,0,5.72,5.72,0,0,1,1.09,3.76ZM995,467a4.28,4.28,0,0,0-.6-2.5,2.23,2.23,0,0,0-3.49,0,4.3,4.3,0,0,0-.6,2.5v3.75a4.29,4.29,0,0,0,.61,2.51,2,2,0,0,0,1.75.85,2,2,0,0,0,1.74-.84,4.35,4.35,0,0,0,.59-2.51Z"/><path class="cls-2" d="M1003.76,475.27H1002V464.16l-2.62,0v-1.25l4.35-.47Z"/><path class="cls-2" d="M1013.84,462.29a5.78,5.78,0,0,1,1.31.15,4.3,4.3,0,0,1,1.07.38l-.37,1.33a5,5,0,0,0-.9-.36,3.94,3.94,0,0,0-1.1-.14,2.65,2.65,0,0,0-2.21,1.1,4.59,4.59,0,0,0-.84,2.87v.2a4.26,4.26,0,0,1,1.29-.77,4.36,4.36,0,0,1,1.56-.28,3.42,3.42,0,0,1,2.73,1.19,4.45,4.45,0,0,1,1,3,4.77,4.77,0,0,1-1.08,3.24,3.64,3.64,0,0,1-2.9,1.25,4,4,0,0,1-3.11-1.36,5.53,5.53,0,0,1-1.23-3.84v-2.44a5.75,5.75,0,0,1,1.37-4A4.38,4.38,0,0,1,1013.84,462.29Zm-.59,5.77a3,3,0,0,0-1.51.36,2.44,2.44,0,0,0-.95,1v1a4.33,4.33,0,0,0,.75,2.72,2.28,2.28,0,0,0,1.87,1,1.88,1.88,0,0,0,1.66-.9,4,4,0,0,0,.59-2.23,3.28,3.28,0,0,0-.64-2.08A2.12,2.12,0,0,0,1013.25,468.06Z"/><path class="cls-2" d="M982.83,522.27h-8.3v-1.19l4.19-4.65a11.7,11.7,0,0,0,1.52-2,3.13,3.13,0,0,0,.4-1.51,2.4,2.4,0,0,0-.56-1.61,1.85,1.85,0,0,0-1.48-.65,2.53,2.53,0,0,0-2,.68,2.71,2.71,0,0,0-.63,1.91h-1.66l0-.05a3.6,3.6,0,0,1,1.1-2.78,4.31,4.31,0,0,1,3.16-1.12,3.74,3.74,0,0,1,2.75,1,3.43,3.43,0,0,1,1,2.56,4.09,4.09,0,0,1-.62,2.1,13.45,13.45,0,0,1-1.74,2.25l-3.37,3.66,0,0h6.15Z"/><path class="cls-2" d="M992.77,517.39a5.74,5.74,0,0,1-1.08,3.76,4.05,4.05,0,0,1-6,0,5.69,5.69,0,0,1-1.1-3.75v-3a5.73,5.73,0,0,1,1.09-3.76,4,4,0,0,1,6,0,5.72,5.72,0,0,1,1.09,3.76ZM991,514a4.28,4.28,0,0,0-.6-2.5,2.23,2.23,0,0,0-3.49,0,4.3,4.3,0,0,0-.6,2.5v3.75a4.29,4.29,0,0,0,.61,2.51,2,2,0,0,0,1.75.85,2,2,0,0,0,1.74-.84,4.35,4.35,0,0,0,.59-2.51Z"/><path class="cls-2" d="M999.76,522.27H998V511.16l-2.62,0v-1.25l4.35-.47Z"/><path class="cls-2" d="M1013.24,510.83a18,18,0,0,0-3.13,4.89,21.77,21.77,0,0,0-1.17,5.16l-.14,1.38h-1.73l.14-1.38a18.79,18.79,0,0,1,1.43-5.41,20.85,20.85,0,0,1,2.91-4.65h-7v-1.36h8.66Z"/><path class="cls-3" d="M703.5,479.27v-2.61l6.44-6.9a15.63,15.63,0,0,0,2-2.7,4.38,4.38,0,0,0,.59-2,3.08,3.08,0,0,0-.68-2.06,2.38,2.38,0,0,0-1.92-.8,2.48,2.48,0,0,0-2.1.94,4,4,0,0,0-.72,2.5h-3.88l0-.08a6,6,0,0,1,1.77-4.56,6.64,6.64,0,0,1,5-1.87,6.94,6.94,0,0,1,4.84,1.6,5.48,5.48,0,0,1,1.76,4.27,6,6,0,0,1-1,3.34,31.41,31.41,0,0,1-3.29,4l-3.54,3.87,0,.07h5.17l.16-2h3v5Z"/><path class="cls-3" d="M732.77,471.52q0,4-1.81,6a6.94,6.94,0,0,1-9.84,0q-1.82-2-1.82-6v-4.39a8.81,8.81,0,0,1,1.81-6,6.9,6.9,0,0,1,9.83,0,8.77,8.77,0,0,1,1.83,6Zm-4-4.8a6.55,6.55,0,0,0-.71-3.47,2.47,2.47,0,0,0-4.1,0,6.65,6.65,0,0,0-.7,3.47v5.18a6.66,6.66,0,0,0,.7,3.5,2.31,2.31,0,0,0,2.07,1.09,2.27,2.27,0,0,0,2-1.09,6.72,6.72,0,0,0,.7-3.5Z"/><path class="cls-3" d="M748.77,471.52q0,4-1.81,6a6.94,6.94,0,0,1-9.84,0q-1.82-2-1.82-6v-4.39a8.81,8.81,0,0,1,1.81-6,6.9,6.9,0,0,1,9.83,0,8.77,8.77,0,0,1,1.83,6Zm-4-4.8a6.55,6.55,0,0,0-.71-3.47,2.47,2.47,0,0,0-4.1,0,6.65,6.65,0,0,0-.7,3.47v5.18a6.66,6.66,0,0,0,.7,3.5,2.31,2.31,0,0,0,2.07,1.09,2.27,2.27,0,0,0,2-1.09,6.72,6.72,0,0,0,.7-3.5Z"/><path class="cls-3" d="M703.39,519.88l3.36-.41V506h-3.4V503.7l7.38-1.34v17.1l3.36.41v2.39H703.39Z"/><path class="cls-3" d="M721.72,519.49a3.16,3.16,0,0,0,2.58-1.22,5.77,5.77,0,0,0,1-3.67v-.3a4.44,4.44,0,0,1-1.6,1.31,4.58,4.58,0,0,1-2,.44,5.49,5.49,0,0,1-4.37-1.83,7.42,7.42,0,0,1-1.59-5,7.17,7.17,0,0,1,1.89-5.07,6.25,6.25,0,0,1,4.79-2,6.37,6.37,0,0,1,4.95,2.1,8.48,8.48,0,0,1,1.9,5.9v4.32a8.21,8.21,0,0,1-2.11,6,7.29,7.29,0,0,1-5.43,2.15,11.27,11.27,0,0,1-2.14-.21,9.45,9.45,0,0,1-2-.62l.45-2.88a10.37,10.37,0,0,0,1.78.5A10.9,10.9,0,0,0,721.72,519.49Zm.64-6.37a3.82,3.82,0,0,0,1.74-.38,3.12,3.12,0,0,0,1.18-1v-2.13a6,6,0,0,0-.77-3.32,2.39,2.39,0,0,0-2.08-1.13,2.26,2.26,0,0,0-2,1.18,5.17,5.17,0,0,0-.76,2.85,5.31,5.31,0,0,0,.68,2.87A2.18,2.18,0,0,0,722.37,513.12Z"/><path class="cls-3" d="M745.27,514.52q0,4-1.81,6a6.94,6.94,0,0,1-9.84,0q-1.82-2-1.82-6v-4.39a8.81,8.81,0,0,1,1.81-6,6.9,6.9,0,0,1,9.83,0,8.77,8.77,0,0,1,1.83,6Zm-4-4.8a6.55,6.55,0,0,0-.71-3.47,2.47,2.47,0,0,0-4.1,0,6.65,6.65,0,0,0-.7,3.47v5.18a6.66,6.66,0,0,0,.7,3.5,2.31,2.31,0,0,0,2.07,1.09,2.27,2.27,0,0,0,2-1.09,6.72,6.72,0,0,0,.7-3.5Z"/><rect class="cls-4" x="769.5" y="461.3" width="191" height="18"/><rect class="cls-4" x="770.01" y="504.3" width="181.45" height="18"/><path class="cls-4" d="M1036.63,516.57h-9.54v-1.36h9.54Z"/><path class="cls-4" d="M1039.48,516.49l.74-7h6.41V511h-4.94l-.42,3.59a4,4,0,0,1,.9-.5,3.32,3.32,0,0,1,1.15-.22,3.45,3.45,0,0,1,2.78,1.15,4.64,4.64,0,0,1,1,3.15,4.51,4.51,0,0,1-1,3.09,3.81,3.81,0,0,1-3,1.17,4.12,4.12,0,0,1-2.71-.89,3.07,3.07,0,0,1-1-2.61l0-.05h1.56a2.12,2.12,0,0,0,.6,1.62,2.17,2.17,0,0,0,1.56.57,2,2,0,0,0,1.71-.77,3.34,3.34,0,0,0,.61-2.12,3.19,3.19,0,0,0-.62-2,2,2,0,0,0-1.7-.79,2.72,2.72,0,0,0-1.48.31,1.75,1.75,0,0,0-.67.94Z"/><path class="cls-4" d="M1049,511.93a2.64,2.64,0,0,1,.72-1.88,2.81,2.81,0,0,1,3.85,0,2.63,2.63,0,0,1,.72,1.88v.68a2.62,2.62,0,0,1-.72,1.87,2.51,2.51,0,0,1-1.91.76,2.56,2.56,0,0,1-1.94-.76,2.6,2.6,0,0,1-.73-1.87Zm1.28.68a1.72,1.72,0,0,0,.36,1.1,1.22,1.22,0,0,0,1,.45,1.19,1.19,0,0,0,1-.45,1.74,1.74,0,0,0,.35-1.11v-.68a1.76,1.76,0,0,0-.36-1.11,1.33,1.33,0,0,0-2,0,1.78,1.78,0,0,0-.35,1.11Zm1.83,8.69-1-.59,6.25-10,1,.59Zm3.08-2.17a2.62,2.62,0,0,1,.72-1.88,2.81,2.81,0,0,1,3.85,0,2.62,2.62,0,0,1,.72,1.88v.69a2.62,2.62,0,0,1-.72,1.88,2.51,2.51,0,0,1-1.91.76,2.56,2.56,0,0,1-1.94-.76,2.61,2.61,0,0,1-.72-1.88Zm1.28.69a1.75,1.75,0,0,0,.36,1.11,1.23,1.23,0,0,0,1,.45,1.19,1.19,0,0,0,1-.45,1.76,1.76,0,0,0,.35-1.11v-.69a1.73,1.73,0,0,0-.36-1.11,1.33,1.33,0,0,0-2,0,1.75,1.75,0,0,0-.36,1.11Z"/><path class="cls-8" d="M620.22,14.66a7.65,7.65,0,0,0-1-.08h-6.11a7.26,7.26,0,1,0-3.31,0h-6.12a6.23,6.23,0,0,0-1,.08,7.17,7.17,0,0,0-6.2,7.11V43.66a3.61,3.61,0,0,0,3.59,3.62A3.56,3.56,0,0,0,602.83,46v.43h0V75a1.71,1.71,0,0,0,0,.34,4.51,4.51,0,0,0,8.61,1.88,4.5,4.5,0,0,0,8.51-1H620V46a3.57,3.57,0,0,0,2.78,1.34,3.61,3.61,0,0,0,3.66-3.56s0,0,0-.07V21.81A7.22,7.22,0,0,0,620.22,14.66ZM611.47,1.14A6.41,6.41,0,1,1,605,7.56a6.41,6.41,0,0,1,6.42-6.42ZM625.6,43.66a2.75,2.75,0,1,1-5.49,0V25a.46.46,0,0,0-.45-.45.45.45,0,0,0-.43.45V75.3h0a3.66,3.66,0,1,1-7.32,0,.86.86,0,0,1,0-.25V46a.44.44,0,0,0-.88,0V75.31a3.67,3.67,0,0,1-7.34,0,.86.86,0,0,1,0-.25V45.57h0V25a.43.43,0,0,0-.41-.45h0a.44.44,0,0,0-.43.45h0V43.66a2.75,2.75,0,1,1-5.49,0V21.81a6.34,6.34,0,0,1,5.49-6.29,5.52,5.52,0,0,1,.86-.07h15.54a6.13,6.13,0,0,1,.88.07,6.35,6.35,0,0,1,5.49,6.29V43.66Z"/><path class="cls-4" d="M623.64,222.39a.72.72,0,0,0-.72-.5H605.13a.76.76,0,0,0-.65.36c-3.89,6.62-12.24,6.12-12.31,6a.82.82,0,0,0-.58.22.78.78,0,0,0-.22.5c0,.29.94,29,21.89,46.15a.53.53,0,0,0,.43.14,1,1,0,0,0,.43-.14C635.08,258,636,230,636,229.81a.71.71,0,0,0-.65-.72C625.51,228.44,623.71,222.61,623.64,222.39Zm-9.86,51.26c-18.07-15.19-20.59-39.38-20.88-43.92,2.3,0,8.93-.58,12.67-6.48h16.85c.65,1.58,3.38,6.34,12.24,7.13C634.36,234.7,631.92,258.39,613.77,273.66Z"/><path class="cls-4" d="M622.05,241.69l-5.33-.79-2.38-4.82a.83.83,0,0,0-.65-.43h0a.69.69,0,0,0-.65.43l-2.38,4.82-5.33.79a.7.7,0,0,0-.58.5.65.65,0,0,0,.22.72l3.82,3.74-.94,5.26a.68.68,0,0,0,.29.72.77.77,0,0,0,.79.07l4.75-2.45,4.75,2.52a.78.78,0,0,1,.36-.07,1,1,0,0,0,.43-.14.68.68,0,0,0,.29-.72l-.86-5.26,3.82-3.74a.73.73,0,0,0,.22-.72A.83.83,0,0,0,622.05,241.69Zm-4.68,4.18a.88.88,0,0,0-.22.65l.72,4.18-3.74-2a.54.54,0,0,0-.36-.07.65.65,0,0,0-.36.07l-3.82,2,.72-4.18a.73.73,0,0,0-.22-.65l-3-3,4.25-.58c.22,0,.43-.22.58-.36l1.87-3.82,1.87,3.82a.57.57,0,0,0,.58.36l4.25.65Z"/><path class="cls-4" d="M611.56,397.3h3.88l.53.11c1.88.33,3.8.51,5.64,1A30.94,30.94,0,0,1,644,423c.19,1.11.31,2.23.47,3.34v3.88a4.27,4.27,0,0,0-.1.53,27.76,27.76,0,0,1-2,8.68c-4.44,10.64-12.3,17.15-23.64,19.38-1.1.22-2.23.32-3.34.47h-3.88l-.46-.1c-1.92-.33-3.88-.52-5.76-1A31,31,0,0,1,583,433.66c-.19-1.13-.32-2.27-.47-3.4v-3.87a2.49,2.49,0,0,1,.11-.53c.33-1.88.51-3.8,1-5.64a30.92,30.92,0,0,1,24.62-22.43C609.35,397.57,610.45,397.45,611.56,397.3Zm21.27,52.16a28.71,28.71,0,1,0-40.56-1.92q.91,1,1.92,1.92c3.83-8.21,10.15-13,19.32-13S629,441.21,632.83,449.46ZM596,451c10.63,8.42,25.68,7.57,34.94,0-3.28-7.7-9-12.27-17.45-12.27S599.35,443.3,596,451Z"/><path class="cls-4" d="M620.18,420.56a4.86,4.86,0,0,1-1-.82,1,1,0,0,1,.18-1.27c.57-.6,1.16-1.17,1.75-1.76l3-3a1.16,1.16,0,1,1,1.64,1.61c-1.53,1.54-3.07,3.09-4.62,4.61A5.86,5.86,0,0,1,620.18,420.56Z"/><path class="cls-4" d="M601.82,413.09a5,5,0,0,1,.93.55q2.39,2.35,4.75,4.74a1.15,1.15,0,1,1-1.58,1.67l-.06-.06c-1.59-1.57-3.16-3.16-4.74-4.74a1,1,0,0,1-.25-1.32A4.18,4.18,0,0,1,601.82,413.09Z"/><path class="cls-4" d="M626.11,422.56a2.28,2.28,0,0,1-2.27,2.29h0a2.29,2.29,0,1,1,0-4.58,2.25,2.25,0,0,1,2.3,2.2S626.11,422.53,626.11,422.56Z"/><path class="cls-4" d="M600.88,422.55a2.26,2.26,0,0,1,2.25-2.27h.06a2.29,2.29,0,0,1,2.27,2.31v0a2.32,2.32,0,0,1-2.3,2.25,2.28,2.28,0,0,1-2.28-2.28S600.88,422.56,600.88,422.55Z"/></g></g></svg>