<svg xmlns="http://www.w3.org/2000/svg" viewBox="0 0 119.14 21.61"><defs><style>.cls-1{fill:#212121;}.cls-2{fill:#fff;}</style></defs><title>Ресурс 2</title><g id="Шар_2" data-name="Шар 2"><g id="Шар_1-2" data-name="Шар 1"><path class="cls-1" d="M.54,14.8l.48.08A8.69,8.69,0,0,0,2.58,15V5.36A15,15,0,0,0,1,5.42l-.48,0L.58,3l4,.07L8.38,3,8.22,5.52l-.48-.07q-.86-.1-1.16-.1V8.58h1.6L10.3,6.45q.72-.73.72-.9c0-.07-.05-.11-.16-.11l-.53,0L10.58,3l3,0,2.8,0,0,2.46h-.76a2,2,0,0,0-1,.29,5.83,5.83,0,0,0-1.07.88L10.2,10l4.34,3.19a1.54,1.54,0,0,0,1,.48l.27,0,.37-.11.34-.11.06,4a5.8,5.8,0,0,1-2.16.38,5.73,5.73,0,0,1-1.27-.12,2.66,2.66,0,0,1-1-.45,4.78,4.78,0,0,1-.79-.71q-.33-.38-.84-1.09L7.91,11.66a2,2,0,0,0-.44-.5A.81.81,0,0,0,7,11h-.4v4a10.78,10.78,0,0,0,1.16-.08l.48-.06.17,2.56-3.8-.06-4,.06Z" transform="translate(-0.36 -0.59)"/><path class="cls-1" d="M17.13,22l.07-2.36h1.19A7.39,7.39,0,0,0,21.68,19a2,2,0,0,0,1.22-1.83,4,4,0,0,0-.56-1.83l-3.7-6.74A3.64,3.64,0,0,0,18.23,8a.49.49,0,0,0-.37-.14l-.39,0-.32,0,0-2.54,3.5.06,3.5-.06,0,2.54-.48-.06a5.47,5.47,0,0,0-.84-.08l2.82,5.42,2.42-5.4a6.22,6.22,0,0,0-.76,0l-.48,0,0-2.5,2.16.06,2.8-.06,0,2.46-.74-.06a.51.51,0,0,0-.38.12,2.22,2.22,0,0,0-.32.53L28.2,13.64q-.44,1-.8,1.71t-.79,1.52q-.42.78-.81,1.36T25,19.4a7.86,7.86,0,0,1-.91,1,8.61,8.61,0,0,1-1,.77,5.67,5.67,0,0,1-1.1.58,6.7,6.7,0,0,1-1.23.34,7.53,7.53,0,0,1-1.38.12q-.54,0-1.24-.07A6.32,6.32,0,0,1,17.13,22Z" transform="translate(-0.36 -0.59)"/><path class="cls-1" d="M32.59,14.8l.48.08a8.69,8.69,0,0,0,1.56.12V7.8a8.69,8.69,0,0,0-1.56.12L32.59,8l0-2.62,3.6.06,2.6-.06q0,.23-.1,1.11a12.46,12.46,0,0,0-.1,1.31V15a8.69,8.69,0,0,0,1.56-.12l.48-.08,0,2.62-4-.06-4,.06ZM34.93,2.4a1.57,1.57,0,0,1,.52-1.23A1.73,1.73,0,0,1,36.64.7a1.58,1.58,0,0,1,1.23.52,1.71,1.71,0,0,1,.47,1.18,1.58,1.58,0,0,1-.52,1.23,1.71,1.71,0,0,1-1.18.47,1.59,1.59,0,0,1-1.24-.52A1.71,1.71,0,0,1,34.93,2.4Z" transform="translate(-0.36 -0.59)"/><path class="cls-1" d="M40.4,8l0-2.56,2.92,0,1.42,0,3.2,7L50.14,7.8,49,7.88l-.48,0,0-2.52,2.94,0,2.6,0,0,2.52-.82-.06a.74.74,0,0,0-.49.15,2,2,0,0,0-.4.6L48.1,17.53a9.72,9.72,0,0,0-2.16-.14l-4.1-8.8A2.51,2.51,0,0,0,41.5,8a.47.47,0,0,0-.37-.14l-.4,0Z" transform="translate(-0.36 -0.59)"/><path class="cls-1" d="M54.77,14.8l.48.08a8.69,8.69,0,0,0,1.56.12V5.36a8.22,8.22,0,0,0-1.52.14l-.52.13,0-2.63L61,2.86l1.42,0,1.42,0a5.7,5.7,0,0,1,3.94,1.28A4.54,4.54,0,0,1,69.2,7.65a4.68,4.68,0,0,1-1.43,3.62,5.57,5.57,0,0,1-3.94,1.33l-1.65,0-1.38,0V15a8.69,8.69,0,0,0,1.56-.12l.48-.08,0,2.62-4-.06-4,.06Zm6-4.59H62a4,4,0,0,0,2.46-.62,2.18,2.18,0,0,0,.79-1.83,2.3,2.3,0,0,0-.76-1.94A4.06,4.06,0,0,0,62,5.26H60.81Z" transform="translate(-0.36 -0.59)"/><path class="cls-1" d="M69.95,14.8l.48.08A8.69,8.69,0,0,0,72,15V7.8a9.63,9.63,0,0,0-1.56.11L69.95,8l0-2.62,3.6,0A2.39,2.39,0,0,1,75.37,6,2.46,2.46,0,0,1,76,7.79V9L78,6.4A3,3,0,0,1,80.25,5,14.44,14.44,0,0,1,83,5.22V10.7H80.69a2.88,2.88,0,0,0-.57-1.48,1.2,1.2,0,0,0-1.77-.1L76,11.42V15q.3,0,1.16-.1l.48-.06,0,2.58L74,17.36l-4,.06Z" transform="translate(-0.36 -0.59)"/><path class="cls-1" d="M83.73,14.8l.48.08a8.69,8.69,0,0,0,1.56.12V7.8a8.69,8.69,0,0,0-1.56.12L83.73,8l0-2.62,3.6.06L90,5.38q0,.23-.1,1.11a12.46,12.46,0,0,0-.1,1.31V15a8.69,8.69,0,0,0,1.56-.12l.48-.08,0,2.62-4-.06-4,.06ZM86.07,2.4a1.57,1.57,0,0,1,.52-1.23A1.73,1.73,0,0,1,87.77.7,1.58,1.58,0,0,1,89,1.22a1.71,1.71,0,0,1,.47,1.18A1.58,1.58,0,0,1,89,3.63a1.71,1.71,0,0,1-1.18.47,1.59,1.59,0,0,1-1.24-.52A1.71,1.71,0,0,1,86.07,2.4Z" transform="translate(-0.36 -0.59)"/><path class="cls-1" d="M92.31,11.41a7.58,7.58,0,0,1,1.13-4.52,3.83,3.83,0,0,1,3.29-1.54l4.07.84V4.36l-1.56,0-.54,0,.1-2.37,4,.07L105,1.93a11.51,11.51,0,0,1-.1,1.27,11.42,11.42,0,0,0-.1,1.2V15a6,6,0,0,0,1.11-.15l.53-.13,0,2.7-4-.06L101.6,16,96.79,17.5a3.87,3.87,0,0,1-3.32-1.56A7.53,7.53,0,0,1,92.31,11.41Zm4,0q0,3.64,2.1,3.64l2.4-.4V8.42L98.4,8a1.76,1.76,0,0,0-1.58.78A4.93,4.93,0,0,0,96.31,11.41Z" transform="translate(-0.36 -0.59)"/><path class="cls-1" d="M108.67,16a5.84,5.84,0,0,1-1.73-4.54,6.16,6.16,0,0,1,1.69-4.62,6.75,6.75,0,0,1,4.91-1.65,7.39,7.39,0,0,1,3.07.6,4.74,4.74,0,0,1,2.1,1.81,5.25,5.25,0,0,1,.77,2.87,9,9,0,0,1-.16,1.68l-8.43-.36a3.85,3.85,0,0,0,.9,2.5,3,3,0,0,0,2.28.87,4.09,4.09,0,0,0,3.36-1.75l2.08,1.15a7.34,7.34,0,0,1-2.44,2.2,6.77,6.77,0,0,1-3.37.83A7.2,7.2,0,0,1,108.67,16Zm2.28-6.22h4.52a3.24,3.24,0,0,0,0-.41,2.37,2.37,0,0,0-.17-1,1.16,1.16,0,0,0-.48-.56,2.11,2.11,0,0,0-.65-.25,4.08,4.08,0,0,0-.81-.07,2.22,2.22,0,0,0-1.57.58A3.14,3.14,0,0,0,110.94,9.8Z" transform="translate(-0.36 -0.59)"/><path class="cls-2" d="M.36,14.69l.48.08a8.69,8.69,0,0,0,1.56.12V5.25a15,15,0,0,0-1.56.07l-.48,0,0-2.5,4,.07,3.8-.07L8,5.42l-.48-.07q-.86-.1-1.16-.1V8.47H8l2.12-2.13q.72-.73.72-.9c0-.07-.05-.11-.16-.11l-.53,0,.24-2.5,3,0,2.8,0,0,2.46h-.76a2,2,0,0,0-1,.29,5.83,5.83,0,0,0-1.07.88L10,9.86l4.34,3.19a1.54,1.54,0,0,0,1,.48l.27,0,.37-.11.34-.11.06,4a5.8,5.8,0,0,1-2.16.38A5.73,5.73,0,0,1,13,17.55a2.66,2.66,0,0,1-1-.45,4.78,4.78,0,0,1-.79-.71q-.33-.38-.84-1.09L7.72,11.55a2,2,0,0,0-.44-.5.81.81,0,0,0-.48-.15H6.4v4a10.78,10.78,0,0,0,1.16-.08L8,14.75l.17,2.56-3.8-.06-4,.06Z" transform="translate(-0.36 -0.59)"/><path class="cls-2" d="M17,21.88,17,19.52h1.19a7.39,7.39,0,0,0,3.29-.61,2,2,0,0,0,1.22-1.83,4,4,0,0,0-.56-1.83L18.45,8.5A3.64,3.64,0,0,0,18,7.87a.49.49,0,0,0-.37-.14l-.39,0-.32,0,0-2.54,3.5.06L24,5.27l0,2.54-.48-.06a5.47,5.47,0,0,0-.84-.08l2.82,5.42L28,7.69a6.22,6.22,0,0,0-.76,0l-.48,0,0-2.5,2.16.06,2.8-.06,0,2.46L31,7.67a.51.51,0,0,0-.38.12,2.22,2.22,0,0,0-.32.53L28,13.53q-.44,1-.8,1.71t-.79,1.52q-.42.78-.81,1.36t-.84,1.17a7.86,7.86,0,0,1-.91,1,8.61,8.61,0,0,1-1,.77,5.67,5.67,0,0,1-1.1.58,6.7,6.7,0,0,1-1.23.34,7.53,7.53,0,0,1-1.38.12q-.54,0-1.24-.07A6.32,6.32,0,0,1,17,21.88Z" transform="translate(-0.36 -0.59)"/><path class="cls-2" d="M32.41,14.69l.48.08a8.69,8.69,0,0,0,1.56.12V7.69a8.69,8.69,0,0,0-1.56.12l-.48.08,0-2.62,3.6.06,2.6-.06q0,.23-.1,1.11a12.46,12.46,0,0,0-.1,1.31v7.2A8.69,8.69,0,0,0,40,14.77l.48-.08,0,2.62-4-.06-4,.06Zm2.33-12.4a1.57,1.57,0,0,1,.52-1.23A1.73,1.73,0,0,1,36.46.59a1.58,1.58,0,0,1,1.23.52,1.71,1.71,0,0,1,.47,1.18,1.58,1.58,0,0,1-.52,1.23A1.71,1.71,0,0,1,36.46,4a1.59,1.59,0,0,1-1.24-.52A1.71,1.71,0,0,1,34.75,2.29Z" transform="translate(-0.36 -0.59)"/><path class="cls-2" d="M40.22,7.85l0-2.56,2.92,0,1.42,0,3.2,7L50,7.69l-1.16.08-.48,0,0-2.52,2.94,0,2.6,0,0,2.52-.82-.06a.74.74,0,0,0-.49.15,2,2,0,0,0-.4.6l-4.32,8.94a9.72,9.72,0,0,0-2.16-.14l-4.1-8.8a2.51,2.51,0,0,0-.34-.58A.47.47,0,0,0,41,7.77l-.4,0Z" transform="translate(-0.36 -0.59)"/><path class="cls-2" d="M54.59,14.69l.48.08a8.69,8.69,0,0,0,1.56.12V5.25a8.22,8.22,0,0,0-1.52.14l-.52.13,0-2.63,6.18-.14,1.42,0,1.42,0A5.7,5.7,0,0,1,67.59,4,4.54,4.54,0,0,1,69,7.54a4.68,4.68,0,0,1-1.43,3.62,5.57,5.57,0,0,1-3.94,1.33l-1.65,0-1.38,0v2.48a8.69,8.69,0,0,0,1.56-.12l.48-.08,0,2.62-4-.06-4,.06Zm6-4.59h1.16a4,4,0,0,0,2.46-.62A2.18,2.18,0,0,0,65,7.68a2.3,2.3,0,0,0-.76-1.94,4.06,4.06,0,0,0-2.47-.59H60.62Z" transform="translate(-0.36 -0.59)"/><path class="cls-2" d="M69.76,14.69l.48.08a8.69,8.69,0,0,0,1.56.12V7.69a9.63,9.63,0,0,0-1.56.11l-.48.07,0-2.62,3.6,0a2.39,2.39,0,0,1,1.78.62,2.46,2.46,0,0,1,.61,1.79V8.91l2-2.62a3,3,0,0,1,2.29-1.43,14.44,14.44,0,0,1,2.71.24v5.48H80.51a2.88,2.88,0,0,0-.57-1.48A1.2,1.2,0,0,0,78.16,9l-2.36,2.3v3.57q.3,0,1.16-.1l.48-.06,0,2.58-3.59-.06-4,.06Z" transform="translate(-0.36 -0.59)"/><path class="cls-2" d="M83.55,14.69l.48.08a8.69,8.69,0,0,0,1.56.12V7.69A8.69,8.69,0,0,0,84,7.81l-.48.08,0-2.62,3.6.06,2.6-.06q0,.23-.1,1.11a12.46,12.46,0,0,0-.1,1.31v7.2a8.69,8.69,0,0,0,1.56-.12l.48-.08,0,2.62-4-.06-4,.06Zm2.33-12.4a1.57,1.57,0,0,1,.52-1.23A1.73,1.73,0,0,1,87.59.59a1.58,1.58,0,0,1,1.23.52,1.71,1.71,0,0,1,.47,1.18,1.58,1.58,0,0,1-.52,1.23A1.71,1.71,0,0,1,87.59,4a1.59,1.59,0,0,1-1.24-.52A1.71,1.71,0,0,1,85.88,2.29Z" transform="translate(-0.36 -0.59)"/><path class="cls-2" d="M92.13,11.31a7.58,7.58,0,0,1,1.13-4.52,3.83,3.83,0,0,1,3.29-1.54l4.07.84V4.25l-1.56,0-.54,0,.1-2.37,4,.07,2.19-.07a11.51,11.51,0,0,1-.1,1.27,11.42,11.42,0,0,0-.1,1.2V14.91a6,6,0,0,0,1.11-.15l.53-.13,0,2.7-4-.06-.8-1.37L96.6,17.39a3.87,3.87,0,0,1-3.32-1.56A7.53,7.53,0,0,1,92.13,11.31Zm4,0q0,3.64,2.1,3.64l2.4-.4V8.31l-2.4-.4a1.76,1.76,0,0,0-1.58.78A4.93,4.93,0,0,0,96.13,11.31Z" transform="translate(-0.36 -0.59)"/><path class="cls-2" d="M108.48,15.91a5.84,5.84,0,0,1-1.73-4.54,6.16,6.16,0,0,1,1.69-4.62,6.75,6.75,0,0,1,4.91-1.65,7.39,7.39,0,0,1,3.07.6,4.74,4.74,0,0,1,2.1,1.81,5.25,5.25,0,0,1,.77,2.88,9,9,0,0,1-.16,1.68l-8.43-.36a3.85,3.85,0,0,0,.9,2.5,3,3,0,0,0,2.28.87,4.09,4.09,0,0,0,3.36-1.75l2.08,1.15a7.34,7.34,0,0,1-2.44,2.2,6.77,6.77,0,0,1-3.37.83A7.2,7.2,0,0,1,108.48,15.91Zm2.28-6.22h4.52a3.24,3.24,0,0,0,0-.41,2.37,2.37,0,0,0-.17-1,1.16,1.16,0,0,0-.48-.56,2.11,2.11,0,0,0-.65-.25,4.08,4.08,0,0,0-.81-.07,2.22,2.22,0,0,0-1.57.58A3.14,3.14,0,0,0,110.76,9.69Z" transform="translate(-0.36 -0.59)"/></g></g></svg>