<svg xmlns="http://www.w3.org/2000/svg" xmlns:xlink="http://www.w3.org/1999/xlink" viewBox="0 0 28.88 31.63"><defs><style>.cls-1{fill:none;}.cls-2{isolation:isolate;}.cls-3{clip-path:url(#clip-path);}.cls-4{fill:#ff4632;}.cls-5{opacity:0.95;mix-blend-mode:soft-light;}.cls-6{fill:#f90;}.cls-7{fill:#ffe246;}.cls-8{fill:#8cc529;}.cls-9{fill:#0093d4;}.cls-10{fill:#8420ff;}.cls-11{fill:#414042;}</style><clipPath id="clip-path"><polygon class="cls-1" points="1.13 15.5 26 15.5 26 0.63 1.13 0.63 5.57 8.06 1.13 15.5"/></clipPath></defs><title>Ресурс 2</title><g class="cls-2"><g id="Шар_2" data-name="Шар 2"><g id="map_icons" data-name="map icons"><g class="cls-3"><rect class="cls-4" y="0.62" width="25.38" height="2.49" transform="translate(25.38 3.74) rotate(-180)"/><g class="cls-5"><rect y="1.1" width="25.38" height="2.49"/></g><rect class="cls-6" y="3.1" width="25.38" height="2.49"/><g class="cls-5"><rect y="3.57" width="25.38" height="2.49"/></g><rect class="cls-7" y="5.57" width="25.38" height="2.49"/><g class="cls-5"><rect y="6.05" width="25.38" height="2.49"/></g><rect class="cls-8" y="8.05" width="25.38" height="2.49"/><g class="cls-5"><rect y="8.52" width="25.38" height="2.49"/></g><rect class="cls-9" y="10.52" width="25.38" height="2.49"/><g class="cls-5"><rect y="10.99" width="25.38" height="2.49"/></g><rect class="cls-10" y="12.99" width="25.38" height="2.49"/></g><rect class="cls-11" x="25.38" y="0.63" width="1.25" height="31" transform="translate(52.01 32.25) rotate(-180)"/><rect class="cls-11" x="23.5" y="30.38" width="5.38" height="1.25" transform="translate(52.38 62) rotate(-180)"/><rect class="cls-11" x="23.5" width="5.38" height="1.25" transform="translate(52.38 1.25) rotate(-180)"/></g></g></g></svg>