<svg xmlns="http://www.w3.org/2000/svg" xmlns:xlink="http://www.w3.org/1999/xlink" viewBox="0 0 28.88 31.63"><defs><style>.cls-1{fill:none;}.cls-2{isolation:isolate;}.cls-3{clip-path:url(#clip-path);}.cls-4{fill:#ff4632;}.cls-5{opacity:0.95;mix-blend-mode:soft-light;}.cls-6{fill:#f90;}.cls-7{fill:#ffe246;}.cls-8{fill:#8cc529;}.cls-9{fill:#0093d4;}.cls-10{fill:#8420ff;}.cls-11{fill:#414042;}</style><clipPath id="clip-path"><polygon class="cls-1" points="27.75 15.5 2.88 15.5 2.88 0.63 27.75 0.63 23.31 8.06 27.75 15.5"/></clipPath></defs><title>Ресурс 2</title><g class="cls-2"><g id="Шар_2" data-name="Шар 2"><g id="map_icons" data-name="map icons"><g class="cls-3"><rect class="cls-4" x="3.5" y="0.63" width="25.38" height="2.49"/><g class="cls-5"><rect x="3.5" y="1.1" width="25.38" height="2.49"/></g><rect class="cls-6" x="3.5" y="3.1" width="25.38" height="2.49"/><g class="cls-5"><rect x="3.5" y="3.57" width="25.38" height="2.49"/></g><rect class="cls-7" x="3.5" y="5.57" width="25.38" height="2.49"/><g class="cls-5"><rect x="3.5" y="6.05" width="25.38" height="2.49"/></g><rect class="cls-8" x="3.5" y="8.05" width="25.38" height="2.49"/><g class="cls-5"><rect x="3.5" y="8.52" width="25.38" height="2.49"/></g><rect class="cls-9" x="3.5" y="10.52" width="25.38" height="2.49"/><g class="cls-5"><rect x="3.5" y="10.99" width="25.38" height="2.49"/></g><rect class="cls-10" x="3.5" y="12.99" width="25.38" height="2.49"/></g><rect class="cls-11" x="2.25" y="0.63" width="1.25" height="31"/><rect class="cls-11" y="30.38" width="5.38" height="1.25"/><rect class="cls-11" width="5.38" height="1.25"/></g></g></g></svg>