<svg id="Шар_1" data-name="Шар 1" xmlns="http://www.w3.org/2000/svg" viewBox="0 0 60.74 58.81"><defs><style>.cls-1{fill:#4792e1;stroke:#fff;stroke-miterlimit:10;stroke-width:0.25px;}</style></defs><title>metro</title><path class="cls-1" d="M89.23,4367.1l-3.75-1.63a1.92,1.92,0,0,1-1-.89,2.42,2.42,0,0,0-2.12-1.26H65.24a2.43,2.43,0,0,0-2.12,1.26,1.93,1.93,0,0,1-1,.88l-3.79,1.68a5.29,5.29,0,0,0-3.19,4.9v26.65a1.92,1.92,0,0,0,1.91,1.91h4.59L56,4410.33l1.54,0.89,6.14-10.64H83.78l6.2,10.74,1.54-.89-5.69-9.85h4.7a1.92,1.92,0,0,0,1.91-1.91V4372A5.28,5.28,0,0,0,89.23,4367.1Zm1.44,31.58a0.14,0.14,0,0,1-.14.14H57.08a0.14,0.14,0,0,1-.14-0.14V4372a3.49,3.49,0,0,1,2.13-3.27l3.79-1.68a3.69,3.69,0,0,0,1.8-1.65,0.65,0.65,0,0,1,.57-0.34H82.37a0.63,0.63,0,0,1,.57.34,3.69,3.69,0,0,0,1.83,1.67l3.75,1.63a3.49,3.49,0,0,1,2.15,3.28v26.67Z" transform="translate(-43.6 -4352.68)"/><path class="cls-1" d="M61,4389.37a2.64,2.64,0,1,0,2.64,2.64A2.65,2.65,0,0,0,61,4389.37Zm0,3.51a0.87,0.87,0,1,1,.87-0.87A0.87,0.87,0,0,1,61,4392.88Z" transform="translate(-43.6 -4352.68)"/><path class="cls-1" d="M86.53,4389.37a2.64,2.64,0,1,0,2.64,2.64A2.65,2.65,0,0,0,86.53,4389.37Zm0,3.51a0.87,0.87,0,1,1,.87-0.87A0.87,0.87,0,0,1,86.53,4392.88Z" transform="translate(-43.6 -4352.68)"/><path class="cls-1" d="M65.92,4372.46H60.36a1.92,1.92,0,0,0-1.91,1.91v8.17a1.92,1.92,0,0,0,1.91,1.91h5.56a1.92,1.92,0,0,0,1.91-1.91v-8.17A1.92,1.92,0,0,0,65.92,4372.46Zm0.14,10.08a0.14,0.14,0,0,1-.14.14H60.36a0.14,0.14,0,0,1-.14-0.14v-8.17a0.14,0.14,0,0,1,.14-0.14h5.56a0.14,0.14,0,0,1,.14.14v8.17Z" transform="translate(-43.6 -4352.68)"/><path class="cls-1" d="M89.15,4382.54v-8.17a1.92,1.92,0,0,0-1.91-1.91H81.67a1.91,1.91,0,0,0-1.91,1.91v8.17a1.91,1.91,0,0,0,1.91,1.91h5.56A1.91,1.91,0,0,0,89.15,4382.54Zm-7.61,0v-8.17a0.14,0.14,0,0,1,.14-0.14h5.56a0.14,0.14,0,0,1,.14.14v8.17a0.14,0.14,0,0,1-.14.14H81.67A0.14,0.14,0,0,1,81.54,4382.54Z" transform="translate(-43.6 -4352.68)"/><path class="cls-1" d="M76.21,4372.46H71.38a1.78,1.78,0,0,0-1.78,1.78v8.44a1.78,1.78,0,0,0,1.78,1.78h4.83a1.78,1.78,0,0,0,1.78-1.78v-8.44A1.78,1.78,0,0,0,76.21,4372.46Zm0,10.22H71.38v-8.44h4.83v8.44Z" transform="translate(-43.6 -4352.68)"/><path class="cls-1" d="M74,4352.81a30.24,30.24,0,0,0-24.74,47.63l1.45-1a28.47,28.47,0,1,1,47.07-.72l1.48,1A30.24,30.24,0,0,0,74,4352.81Z" transform="translate(-43.6 -4352.68)"/></svg>