<svg xmlns="http://www.w3.org/2000/svg" viewBox="0 0 21.58 34.75"><defs><style>.cls-1{fill:#4792e1;}</style></defs><title>Mon_places</title><g id="Шар_2" data-name="Шар 2"><g id="map_icons" data-name="map icons"><path class="cls-1" d="M21.58,10.56A10.67,10.67,0,0,0,10.79,0,10.67,10.67,0,0,0,0,10.56a10.33,10.33,0,0,0,.47,3.07h0v0C1,14.73,10.79,34.75,10.79,34.75s9.83-20,10.32-21.09v0h0A10.33,10.33,0,0,0,21.58,10.56ZM10.79,16.11a4.76,4.76,0,1,1,4.76-4.76A4.76,4.76,0,0,1,10.79,16.11Z"/></g></g></svg>