<svg xmlns="http://www.w3.org/2000/svg" viewBox="0 0 59.32 34.83"><defs><style>.cls-1{fill:#008bd2;fill-rule:evenodd;}.cls-2{fill:#1d1d1b;}</style></defs><title>Ресурс 1</title><g id="Шар_2" data-name="Шар 2"><g id="Шар_1-2" data-name="Шар 1"><path class="cls-1" d="M17.77,0c-5.46,9.86-5.46,15.91.52,24.84C4,16.49,10.8,4.78,17.77,0Z"/><path class="cls-1" d="M7.27,3.48C1.19,11.58,2.74,16.87,8,22.29c-14-7.66-6.5-15.76-.69-18.8Z"/><path class="cls-1" d="M41.55,0C47,9.86,47,15.91,41,24.84,55.35,16.49,48.51,4.78,41.55,0Z"/><path class="cls-1" d="M52.05,3.48c6.08,8.09,4.53,13.39-.69,18.8,14-7.66,6.5-15.76.69-18.8Z"/><path class="cls-2" d="M23.64,12.08a4.66,4.66,0,0,1-.2,1.41,2.81,2.81,0,0,1-.59,1.06,2.53,2.53,0,0,1-1,.66,3.6,3.6,0,0,1-1.33.23,4,4,0,0,1-1.3-.19,2.25,2.25,0,0,1-.93-.59,2.52,2.52,0,0,1-.55-1,5,5,0,0,1-.19-1.45,4.52,4.52,0,0,1,.2-1.38,2.8,2.8,0,0,1,.59-1,2.55,2.55,0,0,1,1-.66,3.58,3.58,0,0,1,1.34-.23A4,4,0,0,1,22,9.06a2.24,2.24,0,0,1,.93.59,2.53,2.53,0,0,1,.56,1,4.8,4.8,0,0,1,.19,1.43Zm-1.37.07a4.83,4.83,0,0,0-.08-.91,1.94,1.94,0,0,0-.27-.7,1.29,1.29,0,0,0-.51-.45,1.76,1.76,0,0,0-.79-.16,1.62,1.62,0,0,0-.8.18,1.47,1.47,0,0,0-.52.48,2,2,0,0,0-.28.7,4.27,4.27,0,0,0-.08.85,5,5,0,0,0,.08.93,2,2,0,0,0,.27.71,1.22,1.22,0,0,0,.5.45,1.82,1.82,0,0,0,.79.15,1.62,1.62,0,0,0,.8-.18,1.43,1.43,0,0,0,.52-.48,2,2,0,0,0,.28-.71,4.38,4.38,0,0,0,.08-.86Zm6.62,2.67a1.94,1.94,0,0,1,0,.24.71.71,0,0,1,0,.16.17.17,0,0,1-.06.09l-.08,0H24.93a.4.4,0,0,1-.3-.11.46.46,0,0,1-.11-.33v-.21a1.15,1.15,0,0,1,0-.18.89.89,0,0,1,0-.17,1.23,1.23,0,0,1,.09-.18l.14-.24L27.29,10H24.83a.18.18,0,0,1-.1,0,.2.2,0,0,1-.07-.09.55.55,0,0,1,0-.16,1.89,1.89,0,0,1,0-.24,2,2,0,0,1,0-.25.56.56,0,0,1,0-.16A.17.17,0,0,1,24.73,9a.19.19,0,0,1,.1,0h3.53a.39.39,0,0,1,.3.1.41.41,0,0,1,.1.29v.24a1.79,1.79,0,0,1,0,.23.88.88,0,0,1,0,.19,1.08,1.08,0,0,1-.09.19l-.14.23L26,14.29H28.7c.06,0,.11,0,.14.12a1.19,1.19,0,0,1,0,.41Zm6.91-2.73a4.66,4.66,0,0,1-.2,1.41A2.81,2.81,0,0,1,35,14.54a2.53,2.53,0,0,1-1,.66,3.6,3.6,0,0,1-1.33.23,4,4,0,0,1-1.3-.19,2.25,2.25,0,0,1-.93-.59,2.52,2.52,0,0,1-.55-1,5,5,0,0,1-.19-1.45,4.52,4.52,0,0,1,.2-1.38,2.8,2.8,0,0,1,.59-1,2.55,2.55,0,0,1,1-.66,3.58,3.58,0,0,1,1.34-.23,4,4,0,0,1,1.28.19,2.24,2.24,0,0,1,.93.59,2.53,2.53,0,0,1,.56,1,4.8,4.8,0,0,1,.19,1.43Zm-1.37.07a4.83,4.83,0,0,0-.08-.91,1.94,1.94,0,0,0-.27-.7,1.29,1.29,0,0,0-.51-.45,1.76,1.76,0,0,0-.79-.16,1.62,1.62,0,0,0-.8.18,1.47,1.47,0,0,0-.52.48,2,2,0,0,0-.28.7,4.27,4.27,0,0,0-.08.85,5,5,0,0,0,.08.93,2,2,0,0,0,.27.71,1.22,1.22,0,0,0,.5.45,1.82,1.82,0,0,0,.79.15,1.62,1.62,0,0,0,.8-.18,1.43,1.43,0,0,0,.52-.48,2,2,0,0,0,.28-.71,4.38,4.38,0,0,0,.08-.86Zm8.13,2.73a.52.52,0,0,1,0,.2.43.43,0,0,1-.11.15.42.42,0,0,1-.16.09l-.19,0h-.55a1.21,1.21,0,0,1-.3,0,.61.61,0,0,1-.23-.13,1,1,0,0,1-.21-.25,4.49,4.49,0,0,1-.22-.4l-1.59-3c-.09-.18-.19-.37-.28-.57s-.18-.4-.26-.6h0c0,.24,0,.47,0,.7s0,.48,0,.72v3.32a.15.15,0,0,1,0,.09.22.22,0,0,1-.09.07l-.18,0-.29,0-.29,0-.18,0a.17.17,0,0,1-.09-.07.16.16,0,0,1,0-.09V9.44a.43.43,0,0,1,.14-.35A.49.49,0,0,1,37.77,9h.7a1.32,1.32,0,0,1,.32,0,.67.67,0,0,1,.23.11.8.8,0,0,1,.19.2,2.56,2.56,0,0,1,.18.32L40.63,12l.21.41.2.41.19.4.18.39h0c0-.23,0-.47,0-.72s0-.49,0-.71v-3a.14.14,0,0,1,0-.09.24.24,0,0,1,.1-.07l.18,0h.58a.56.56,0,0,1,.18,0,.21.21,0,0,1,.09.07.16.16,0,0,1,0,.09v5.7Z"/><path class="cls-2" d="M12.77,32.57a2.15,2.15,0,0,1-.07.56,1.24,1.24,0,0,1-.19.42.86.86,0,0,1-.32.27,1,1,0,0,1-.43.09l-.19,0-.16-.06-.16-.1-.16-.14v1.09a.08.08,0,0,1,0,0l-.05,0-.1,0h-.32l-.1,0-.05,0a.08.08,0,0,1,0,0V31.45a.08.08,0,0,1,0,0l0,0,.09,0h.26l.09,0,0,0a.08.08,0,0,1,0,0v.27l.2-.18.2-.13.21-.08.23,0a.88.88,0,0,1,.43.1.82.82,0,0,1,.29.27,1.22,1.22,0,0,1,.16.41,2.24,2.24,0,0,1,.05.49Zm-.68,0a1.73,1.73,0,0,0,0-.28.82.82,0,0,0-.08-.24.45.45,0,0,0-.14-.17.36.36,0,0,0-.22-.06l-.13,0-.13.06-.14.11-.15.17V33a1.53,1.53,0,0,0,.26.27.42.42,0,0,0,.26.09.36.36,0,0,0,.22-.06.5.5,0,0,0,.15-.17.84.84,0,0,0,.08-.24,1.27,1.27,0,0,0,0-.26Zm3.4,1.15a.08.08,0,0,1,0,0l0,0-.09,0h-.27l-.08,0,0,0a.08.08,0,0,1,0,0V33.5a1.47,1.47,0,0,1-.39.31.88.88,0,0,1-.41.1.92.92,0,0,1-.4-.08.69.69,0,0,1-.26-.21.87.87,0,0,1-.14-.31,2,2,0,0,1,0-.44V31.45a.07.07,0,0,1,0,0l.05,0,.1,0h.32l.1,0,.05,0a.07.07,0,0,1,0,0v1.31A1.28,1.28,0,0,0,14,33a.48.48,0,0,0,.07.16.33.33,0,0,0,.12.11.38.38,0,0,0,.17,0,.43.43,0,0,0,.25-.09,1.51,1.51,0,0,0,.27-.26V31.45a.07.07,0,0,1,0,0l.05,0,.1,0h.32l.1,0,.05,0a.07.07,0,0,1,0,0v2.32Zm3-1.19a2.1,2.1,0,0,1-.07.56,1.3,1.3,0,0,1-.19.42.88.88,0,0,1-.31.27.93.93,0,0,1-.42.09l-.22,0a.72.72,0,0,1-.19-.07l-.18-.12-.18-.18v.25a.09.09,0,0,1,0,0l0,0-.09,0h-.27l-.09,0,0,0a.08.08,0,0,1,0,0V30.35a.08.08,0,0,1,0,0l.05,0,.1,0h.32l.1,0,.05,0a.08.08,0,0,1,0,0v1.28l.18-.15.18-.1.18-.06.2,0a.87.87,0,0,1,.44.1.85.85,0,0,1,.29.28,1.22,1.22,0,0,1,.16.41,2.24,2.24,0,0,1,.05.49Zm-.68,0a1.75,1.75,0,0,0,0-.28.8.8,0,0,0-.08-.24.47.47,0,0,0-.14-.17.36.36,0,0,0-.22-.06l-.13,0-.13.06-.14.11-.15.17V33a1.42,1.42,0,0,0,.26.27.44.44,0,0,0,.26.09.35.35,0,0,0,.22-.06.53.53,0,0,0,.15-.17.82.82,0,0,0,.08-.24,1.4,1.4,0,0,0,0-.26Zm1.85,1.15a.07.07,0,0,1,0,0l-.05,0-.1,0h-.32l-.1,0-.05,0a.07.07,0,0,1,0,0V30.35a.08.08,0,0,1,0,0l.05,0,.1,0h.32l.1,0,.05,0a.08.08,0,0,1,0,0v3.42Zm1.31,0a.07.07,0,0,1,0,0l-.05,0-.1,0h-.32l-.1,0-.05,0a.07.07,0,0,1,0,0V31.45a.07.07,0,0,1,0,0l.05,0,.1,0h.32l.1,0,.05,0a.07.07,0,0,1,0,0v2.31ZM21,30.66a.37.37,0,0,1-.08.27.64.64,0,0,1-.6,0,.36.36,0,0,1-.08-.26.38.38,0,0,1,.08-.27.63.63,0,0,1,.6,0,.35.35,0,0,1,.08.26Zm2.35,2.74s0,.08,0,.11a.68.68,0,0,1,0,.08l0,.05,0,0-.11.07-.17.08-.21.05-.23,0a1.25,1.25,0,0,1-.47-.08.89.89,0,0,1-.35-.25,1.08,1.08,0,0,1-.21-.4,1.83,1.83,0,0,1-.07-.54,1.87,1.87,0,0,1,.09-.6,1.16,1.16,0,0,1,.24-.42,1,1,0,0,1,.37-.25,1.3,1.3,0,0,1,.47-.08l.2,0,.19,0,.16.07.1.07,0,0,0,.05a.67.67,0,0,1,0,.08s0,.07,0,.11a.6.6,0,0,1,0,.21s0,.06-.07.06a.16.16,0,0,1-.09,0l-.12-.08-.16-.08a.62.62,0,0,0-.22,0,.45.45,0,0,0-.39.2,1,1,0,0,0-.13.58,1.47,1.47,0,0,0,0,.33.71.71,0,0,0,.1.24.43.43,0,0,0,.17.14.54.54,0,0,0,.23,0,.6.6,0,0,0,.23,0l.17-.09.12-.09a.14.14,0,0,1,.08,0h0a.09.09,0,0,1,0,0,.61.61,0,0,1,0,.09s0,.08,0,.14Zm5.36.37a.07.07,0,0,1,0,0l-.05,0-.1,0h-.32l-.1,0-.05,0a.07.07,0,0,1,0,0V32.39a.93.93,0,0,0,0-.21A.48.48,0,0,0,28,32a.33.33,0,0,0-.11-.11.34.34,0,0,0-.16,0,.38.38,0,0,0-.24.09,1.57,1.57,0,0,0-.26.26v1.54a.07.07,0,0,1,0,0l-.05,0-.1,0h-.32l-.1,0-.05,0a.07.07,0,0,1,0,0V32.39a.93.93,0,0,0,0-.21.48.48,0,0,0-.07-.16.31.31,0,0,0-.11-.11.35.35,0,0,0-.16,0A.39.39,0,0,0,26,32a1.5,1.5,0,0,0-.26.26v1.54a.07.07,0,0,1,0,0l-.05,0-.1,0h-.32l-.1,0-.05,0a.07.07,0,0,1,0,0V31.45a.08.08,0,0,1,0,0l0,0,.09,0h.27l.09,0,0,0a.08.08,0,0,1,0,0v.27A1.53,1.53,0,0,1,26,31.4a.83.83,0,0,1,.4-.1,1,1,0,0,1,.26,0,.73.73,0,0,1,.2.09.66.66,0,0,1,.15.13.78.78,0,0,1,.11.17l.2-.19.2-.13.2-.07.2,0a.87.87,0,0,1,.39.08.67.67,0,0,1,.26.21.83.83,0,0,1,.14.31,1.69,1.69,0,0,1,0,.38v1.48Zm3-1.18a1.76,1.76,0,0,1-.08.54,1.14,1.14,0,0,1-.24.42,1.05,1.05,0,0,1-.4.27,1.5,1.5,0,0,1-.56.1,1.52,1.52,0,0,1-.54-.09,1,1,0,0,1-.38-.25,1,1,0,0,1-.22-.4,1.86,1.86,0,0,1-.07-.55,1.77,1.77,0,0,1,.08-.54,1.14,1.14,0,0,1,.24-.42,1.07,1.07,0,0,1,.4-.27,1.48,1.48,0,0,1,.56-.1,1.57,1.57,0,0,1,.54.08,1,1,0,0,1,.38.25,1,1,0,0,1,.22.4,1.87,1.87,0,0,1,.07.55Zm-.67,0a1.66,1.66,0,0,0,0-.32.73.73,0,0,0-.09-.25.47.47,0,0,0-.17-.17.56.56,0,0,0-.27-.06.58.58,0,0,0-.26.05A.46.46,0,0,0,30,32a.73.73,0,0,0-.11.25,1.37,1.37,0,0,0,0,.33,1.66,1.66,0,0,0,0,.32.79.79,0,0,0,.09.25.44.44,0,0,0,.17.16.57.57,0,0,0,.27.06.59.59,0,0,0,.26-.05.46.46,0,0,0,.18-.15.73.73,0,0,0,.1-.25,1.47,1.47,0,0,0,0-.33Zm3.4,1.16a.07.07,0,0,1,0,0l-.05,0-.1,0H34l-.1,0-.05,0a.07.07,0,0,1,0,0V32.44a1.09,1.09,0,0,0,0-.27A.5.5,0,0,0,33.7,32a.33.33,0,0,0-.12-.11.38.38,0,0,0-.17,0,.43.43,0,0,0-.25.09,1.37,1.37,0,0,0-.26.26v1.54a.07.07,0,0,1,0,0l-.05,0-.1,0H32.4l-.1,0-.05,0a.07.07,0,0,1,0,0V31.45a.08.08,0,0,1,0,0l0,0,.09,0h.27l.09,0,0,0a.08.08,0,0,1,0,0v.27a1.45,1.45,0,0,1,.39-.31.88.88,0,0,1,.41-.1.91.91,0,0,1,.4.08.7.7,0,0,1,.26.21.85.85,0,0,1,.14.31,1.83,1.83,0,0,1,0,.43v1.43Zm1.3,0a.07.07,0,0,1,0,0l-.05,0-.1,0h-.32l-.1,0-.05,0a.07.07,0,0,1,0,0V31.45a.07.07,0,0,1,0,0l.05,0,.1,0h.32l.1,0,.05,0a.07.07,0,0,1,0,0v2.31Zm.05-3.11a.37.37,0,0,1-.08.27.64.64,0,0,1-.6,0,.36.36,0,0,1-.08-.26.38.38,0,0,1,.08-.27.63.63,0,0,1,.6,0,.35.35,0,0,1,.08.26Zm2,2.88a.81.81,0,0,1,0,.18.18.18,0,0,1,0,.09l-.07,0-.11,0-.13,0h-.14a1,1,0,0,1-.34,0,.57.57,0,0,1-.24-.15.63.63,0,0,1-.14-.26,1.37,1.37,0,0,1,0-.37V31.89h-.28a.08.08,0,0,1-.08-.06.56.56,0,0,1,0-.2,1,1,0,0,1,0-.13.31.31,0,0,1,0-.08l0,0h.32v-.52a.08.08,0,0,1,0,0l.05,0,.1,0H37l.1,0,.05,0a.08.08,0,0,1,0,0v.52h.55l0,0a.31.31,0,0,1,0,.08,1,1,0,0,1,0,.13.59.59,0,0,1,0,.2s0,.06-.08.06h-.51V33a.54.54,0,0,0,.06.28.23.23,0,0,0,.21.09h.09l.07,0,.05,0h.07l0,0v.07a.89.89,0,0,1,0,.12Zm2.76-1a1.76,1.76,0,0,1-.08.54,1.14,1.14,0,0,1-.24.42,1.05,1.05,0,0,1-.4.27,1.5,1.5,0,0,1-.56.1,1.52,1.52,0,0,1-.54-.09,1,1,0,0,1-.38-.25,1,1,0,0,1-.22-.4,1.86,1.86,0,0,1-.07-.55,1.77,1.77,0,0,1,.08-.54,1.14,1.14,0,0,1,.24-.42,1.07,1.07,0,0,1,.4-.27,1.48,1.48,0,0,1,.56-.1,1.57,1.57,0,0,1,.54.08,1,1,0,0,1,.38.25,1,1,0,0,1,.22.4,1.87,1.87,0,0,1,.07.55Zm-.67,0a1.66,1.66,0,0,0,0-.32.73.73,0,0,0-.09-.25.47.47,0,0,0-.17-.17.56.56,0,0,0-.27-.06.58.58,0,0,0-.26.05.46.46,0,0,0-.18.16.73.73,0,0,0-.11.25,1.37,1.37,0,0,0,0,.33,1.66,1.66,0,0,0,0,.32.79.79,0,0,0,.09.25.44.44,0,0,0,.17.16.57.57,0,0,0,.27.06.59.59,0,0,0,.26-.05.46.46,0,0,0,.18-.15.73.73,0,0,0,.1-.25,1.47,1.47,0,0,0,0-.33Zm2.68-.95c0,.06,0,.11,0,.15a.54.54,0,0,1,0,.09.1.1,0,0,1,0,0H42.4l-.06,0-.07,0h-.09l-.11,0L42,32l-.12.12-.14.19v1.45a.07.07,0,0,1,0,0l-.05,0-.1,0h-.32l-.1,0-.05,0a.07.07,0,0,1,0,0V31.45a.08.08,0,0,1,0,0l0,0,.09,0h.27l.09,0,0,0a.08.08,0,0,1,0,0v.29a1.8,1.8,0,0,1,.17-.21l.15-.13a.47.47,0,0,1,.15-.07l.15,0h.15l.07,0,0,0,0,0v0a.6.6,0,0,1,0,.08s0,.09,0,.15Zm1.06,2.1a.07.07,0,0,1,0,0l-.05,0-.1,0h-.32l-.1,0-.05,0a.07.07,0,0,1,0,0V31.45a.07.07,0,0,1,0,0l.05,0,.1,0h.32l.1,0,.05,0a.07.07,0,0,1,0,0v2.31Zm.05-3.11a.37.37,0,0,1-.08.27.64.64,0,0,1-.6,0,.36.36,0,0,1-.08-.26A.38.38,0,0,1,43,30.4a.63.63,0,0,1,.6,0,.35.35,0,0,1,.08.26Z"/><path class="cls-2" d="M46.46,33.77a.07.07,0,0,1,0,0l-.05,0-.1,0H46l-.1,0-.05,0a.07.07,0,0,1,0,0V32.44a1.09,1.09,0,0,0,0-.27.5.5,0,0,0-.07-.16.33.33,0,0,0-.12-.11.38.38,0,0,0-.17,0,.43.43,0,0,0-.25.09,1.37,1.37,0,0,0-.26.26v1.54a.07.07,0,0,1,0,0l-.05,0-.1,0h-.32l-.1,0-.05,0a.07.07,0,0,1,0,0V31.45a.08.08,0,0,1,0,0l0,0,.09,0h.27l.09,0,0,0a.08.08,0,0,1,0,0v.27a1.45,1.45,0,0,1,.39-.31.88.88,0,0,1,.41-.1.91.91,0,0,1,.4.08.7.7,0,0,1,.26.21.85.85,0,0,1,.14.31,1.83,1.83,0,0,1,0,.43v1.43ZM47,34l.73.09a.26.26,0,0,0,.08.18.48.48,0,0,0,.29.07.74.74,0,0,0,.38-.08.31.31,0,0,0,.13-.16,1,1,0,0,0,0-.29v-.35a.87.87,0,0,1-.73.39.89.89,0,0,1-.77-.41,1.4,1.4,0,0,1-.22-.81,1.33,1.33,0,0,1,.29-.93,1,1,0,0,1,.73-.32.89.89,0,0,1,.74.39v-.34h.6V33.6a2.15,2.15,0,0,1-.07.64.79.79,0,0,1-.2.33.87.87,0,0,1-.34.19,1.78,1.78,0,0,1-.54.07,1.39,1.39,0,0,1-.87-.21.66.66,0,0,1-.26-.54s0,0,0-.08Zm.57-1.41a.87.87,0,0,0,.15.56.46.46,0,0,0,.37.18.51.51,0,0,0,.39-.18.79.79,0,0,0,.16-.54.84.84,0,0,0-.15-.56.49.49,0,0,0-.39-.18.47.47,0,0,0-.38.18.84.84,0,0,0-.15.54Z"/></g></g></svg>